<?xml version="1.0" standalone="yes"?>

<svg version="1.1" viewBox="0.0 0.0 1215.4330708661416 395.88451443569556" fill="none" stroke="none" stroke-linecap="square" stroke-miterlimit="10" xmlns="http://www.w3.org/2000/svg" xmlns:xlink="http://www.w3.org/1999/xlink"><clipPath id="p.0"><path d="m0 0l1215.4331 0l0 395.88452l-1215.4331 0l0 -395.88452z" clip-rule="nonzero"></path></clipPath><g clip-path="url(#p.0)"><path fill="#000000" fill-opacity="0.0" d="m0 0l1215.4331 0l0 395.88452l-1215.4331 0z" fill-rule="nonzero"></path><path fill="#000000" fill-opacity="0.0" d="m1019.0551 194.9626l0 0c0 -49.22728 39.906555 -89.13386 89.13385 -89.13386l0 0c23.63977 0 46.31128 9.3908615 63.02722 26.106697c16.71582 16.715836 26.10669 39.38739 26.10669 63.02716l0 0c0 49.227264 -39.906616 89.133865 -89.13391 89.133865l0 0c-49.227295 0 -89.13385 -39.9066 -89.13385 -89.133865z" fill-rule="nonzero"></path><path stroke="#000000" stroke-width="4.0" stroke-linejoin="round" stroke-linecap="butt" d="m1019.0551 194.9626l0 0c0 -49.22728 39.906555 -89.13386 89.13385 -89.13386l0 0c23.63977 0 46.31128 9.3908615 63.02722 26.106697c16.71582 16.715836 26.10669 39.38739 26.10669 63.02716l0 0c0 49.227264 -39.906616 89.133865 -89.13391 89.133865l0 0c-49.227295 0 -89.13385 -39.9066 -89.13385 -89.133865z" fill-rule="nonzero"></path><path fill="#000000" fill-opacity="0.0" d="m25.080456 352.8244l11.181103 -94.834656" fill-rule="nonzero"></path><path stroke="#000000" stroke-width="4.0" stroke-linejoin="round" stroke-linecap="butt" d="m25.080456 352.8244l8.370941 -70.999756" fill-rule="evenodd"></path><path fill="#000000" stroke="#000000" stroke-width="4.0" stroke-linecap="butt" d="m40.01288 282.59827l-4.436016 -18.801147l-8.686949 17.253937z" fill-rule="evenodd"></path><path fill="#000000" fill-opacity="0.0" d="m188.43439 194.96326l77.19684 0" fill-rule="nonzero"></path><path stroke="#000000" stroke-width="4.0" stroke-linejoin="round" stroke-linecap="butt" d="m188.43439 194.96326l53.196854 0" fill-rule="evenodd"></path><path fill="#000000" stroke="#000000" stroke-width="4.0" stroke-linecap="butt" d="m241.63124 201.57019l18.15239 -6.6069336l-18.15239 -6.6069336z" fill-rule="evenodd"></path><path fill="#000000" fill-opacity="0.0" d="m440.6601 194.96326l77.19684 0" fill-rule="nonzero"></path><path stroke="#000000" stroke-width="4.0" stroke-linejoin="round" stroke-linecap="butt" d="m440.6601 194.96326l53.19687 0" fill-rule="evenodd"></path><path fill="#000000" stroke="#000000" stroke-width="4.0" stroke-linecap="butt" d="m493.85696 201.57019l18.152374 -6.6069336l-18.152374 -6.6069336z" fill-rule="evenodd"></path><path fill="#000000" fill-opacity="0.0" d="m692.8832 194.96326l77.1969 0" fill-rule="nonzero"></path><path stroke="#000000" stroke-width="4.0" stroke-linejoin="round" stroke-linecap="butt" d="m692.8832 194.96326l53.1969 0" fill-rule="evenodd"></path><path fill="#000000" stroke="#000000" stroke-width="4.0" stroke-linecap="butt" d="m746.0801 201.57019l18.152344 -6.6069336l-18.152344 -6.6069336z" fill-rule="evenodd"></path><path fill="#000000" fill-opacity="0.0" d="m945.10236 194.9626l73.95276 0" fill-rule="nonzero"></path><path stroke="#000000" stroke-width="4.0" stroke-linejoin="round" stroke-linecap="butt" d="m945.10236 194.9626l49.95276 0" fill-rule="evenodd"></path><path fill="#000000" stroke="#000000" stroke-width="4.0" stroke-linecap="butt" d="m995.0551 201.56953l18.152405 -6.6069336l-18.152405 -6.6069336z" fill-rule="evenodd"></path><path fill="#000000" fill-opacity="0.0" d="m194.92914 140.56955l28.94487 0l0 54.393707l-28.94487 0z" fill-rule="nonzero"></path><path fill="#000000" d="m220.10101 185.40706q-1.953125 1.65625 -3.765625 2.34375q-1.796875 0.6875 -3.875 0.6875q-3.40625 0 -5.25 -1.671875q-1.828125 -1.671875 -1.828125 -4.265625q0 -1.53125 0.6875 -2.78125q0.6875 -1.265625 1.8125 -2.015625q1.125 -0.765625 2.53125 -1.15625q1.03125 -0.28125 3.125 -0.53125q4.265625 -0.515625 6.265625 -1.21875q0.03125 -0.71875 0.03125 -0.90625q0 -2.15625 -1.0 -3.03125q-1.34375 -1.1875 -4.0 -1.1875q-2.484375 0 -3.671875 0.875q-1.171875 0.859375 -1.75 3.0625l-3.4375 -0.46875q0.46875 -2.203125 1.546875 -3.5625q1.078125 -1.359375 3.109375 -2.09375q2.03125 -0.734375 4.703125 -0.734375q2.65625 0 4.3125 0.625q1.671875 0.625 2.453125 1.578125q0.78125 0.953125 1.09375 2.390625q0.171875 0.90625 0.171875 3.25l0 4.6875q0 4.890625 0.21875 6.203125q0.234375 1.296875 0.890625 2.484375l-3.671875 0q-0.546875 -1.09375 -0.703125 -2.5625zm-0.296875 -7.84375q-1.90625 0.78125 -5.734375 1.328125q-2.171875 0.3125 -3.078125 0.703125q-0.890625 0.390625 -1.375 1.140625q-0.484375 0.75 -0.484375 1.671875q0 1.40625 1.0625 2.34375q1.0625 0.9375 3.109375 0.9375q2.03125 0 3.609375 -0.890625q1.59375 -0.890625 2.328125 -2.4375q0.5625 -1.1875 0.5625 -3.515625l0 -1.28125z" fill-rule="nonzero"></path><path fill="#000000" fill-opacity="0.0" d="m447.15485 140.56955l28.944885 0l0 54.393707l-28.944885 0z" fill-rule="nonzero"></path><path fill="#000000" d="m472.32672 185.40706q-1.953125 1.65625 -3.765625 2.34375q-1.796875 0.6875 -3.875 0.6875q-3.40625 0 -5.25 -1.671875q-1.828125 -1.671875 -1.828125 -4.265625q0 -1.53125 0.6875 -2.78125q0.6875 -1.265625 1.8125 -2.015625q1.125 -0.765625 2.53125 -1.15625q1.03125 -0.28125 3.125 -0.53125q4.265625 -0.515625 6.265625 -1.21875q0.03125 -0.71875 0.03125 -0.90625q0 -2.15625 -1.0 -3.03125q-1.34375 -1.1875 -4.0 -1.1875q-2.484375 0 -3.671875 0.875q-1.171875 0.859375 -1.75 3.0625l-3.4375 -0.46875q0.46875 -2.203125 1.546875 -3.5625q1.078125 -1.359375 3.109375 -2.09375q2.03125 -0.734375 4.703125 -0.734375q2.65625 0 4.3125 0.625q1.671875 0.625 2.453125 1.578125q0.78125 0.953125 1.09375 2.390625q0.171875 0.90625 0.171875 3.25l0 4.6875q0 4.890625 0.21875 6.203125q0.234375 1.296875 0.890625 2.484375l-3.671875 0q-0.546875 -1.09375 -0.703125 -2.5625zm-0.296875 -7.84375q-1.90625 0.78125 -5.734375 1.328125q-2.171875 0.3125 -3.078125 0.703125q-0.890625 0.390625 -1.375 1.140625q-0.484375 0.75 -0.484375 1.671875q0 1.40625 1.0625 2.34375q1.0625 0.9375 3.109375 0.9375q2.03125 0 3.609375 -0.890625q1.59375 -0.890625 2.328125 -2.4375q0.5625 -1.1875 0.5625 -3.515625l0 -1.28125z" fill-rule="nonzero"></path><path fill="#000000" fill-opacity="0.0" d="m699.3793 140.56955l28.944885 0l0 54.393707l-28.944885 0z" fill-rule="nonzero"></path><path fill="#000000" d="m724.55115 185.40706q-1.953125 1.65625 -3.765625 2.34375q-1.796875 0.6875 -3.875 0.6875q-3.40625 0 -5.25 -1.671875q-1.828125 -1.671875 -1.828125 -4.265625q0 -1.53125 0.6875 -2.78125q0.6875 -1.265625 1.8125 -2.015625q1.125 -0.765625 2.53125 -1.15625q1.03125 -0.28125 3.125 -0.53125q4.265625 -0.515625 6.265625 -1.21875q0.03125 -0.71875 0.03125 -0.90625q0 -2.15625 -1.0 -3.03125q-1.34375 -1.1875 -4.0 -1.1875q-2.484375 0 -3.671875 0.875q-1.171875 0.859375 -1.75 3.0625l-3.4375 -0.46875q0.46875 -2.203125 1.546875 -3.5625q1.078125 -1.359375 3.109375 -2.09375q2.03125 -0.734375 4.703125 -0.734375q2.65625 0 4.3125 0.625q1.671875 0.625 2.453125 1.578125q0.78125 0.953125 1.09375 2.390625q0.171875 0.90625 0.171875 3.25l0 4.6875q0 4.890625 0.21875 6.203125q0.234375 1.296875 0.890625 2.484375l-3.671875 0q-0.546875 -1.09375 -0.703125 -2.5625zm-0.296875 -7.84375q-1.90625 0.78125 -5.734375 1.328125q-2.171875 0.3125 -3.078125 0.703125q-0.890625 0.390625 -1.375 1.140625q-0.484375 0.75 -0.484375 1.671875q0 1.40625 1.0625 2.34375q1.0625 0.9375 3.109375 0.9375q2.03125 0 3.609375 -0.890625q1.59375 -0.890625 2.328125 -2.4375q0.5625 -1.1875 0.5625 -3.515625l0 -1.28125z" fill-rule="nonzero"></path><path fill="#000000" fill-opacity="0.0" d="m951.6037 140.56955l28.944885 0l0 54.393707l-28.944885 0z" fill-rule="nonzero"></path><path fill="#000000" d="m976.7756 185.40706q-1.953125 1.65625 -3.765625 2.34375q-1.796875 0.6875 -3.875 0.6875q-3.40625 0 -5.25 -1.671875q-1.828125 -1.671875 -1.828125 -4.265625q0 -1.53125 0.6875 -2.78125q0.6875 -1.265625 1.8125 -2.015625q1.125 -0.765625 2.53125 -1.15625q1.03125 -0.28125 3.125 -0.53125q4.265625 -0.515625 6.265625 -1.21875q0.03125 -0.71875 0.03125 -0.90625q0 -2.15625 -1.0 -3.03125q-1.34375 -1.1875 -4.0 -1.1875q-2.484375 0 -3.671875 0.875q-1.171875 0.859375 -1.75 3.0625l-3.4375 -0.46875q0.46875 -2.203125 1.546875 -3.5625q1.078125 -1.359375 3.109375 -2.09375q2.03125 -0.734375 4.703125 -0.734375q2.65625 0 4.3125 0.625q1.671875 0.625 2.453125 1.578125q0.78125 0.953125 1.09375 2.390625q0.171875 0.90625 0.171875 3.25l0 4.6875q0 4.890625 0.21875 6.203125q0.234375 1.296875 0.890625 2.484375l-3.671875 0q-0.546875 -1.09375 -0.703125 -2.5625zm-0.296875 -7.84375q-1.90625 0.78125 -5.734375 1.328125q-2.171875 0.3125 -3.078125 0.703125q-0.890625 0.390625 -1.375 1.140625q-0.484375 0.75 -0.484375 1.671875q0 1.40625 1.0625 2.34375q1.0625 0.9375 3.109375 0.9375q2.03125 0 3.609375 -0.890625q1.59375 -0.890625 2.328125 -2.4375q0.5625 -1.1875 0.5625 -3.515625l0 -1.28125z" fill-rule="nonzero"></path><path fill="#000000" fill-opacity="0.0" d="m517.85693 194.96326l0 0c0 -49.22728 39.906616 -89.13386 89.13385 -89.13386l0 0c23.63977 0 46.31134 9.3908615 63.02716 26.106697c16.715881 16.715836 26.10675 39.38739 26.10675 63.02716l0 0c0 49.227264 -39.906616 89.13385 -89.13391 89.13385l0 0c-49.227234 0 -89.13385 -39.906586 -89.13385 -89.13385zm44.566956 0l0 0c0 24.613632 19.953308 44.566925 44.566895 44.566925c24.613647 0 44.566956 -19.953293 44.566956 -44.566925c0 -24.613632 -19.953308 -44.566925 -44.566956 -44.566925l0 0c-24.613586 0 -44.566895 19.953293 -44.566895 44.566925z" fill-rule="nonzero"></path><path stroke="#000000" stroke-width="4.0" stroke-linejoin="round" stroke-linecap="butt" d="m517.85693 194.96326l0 0c0 -49.22728 39.906616 -89.13386 89.13385 -89.13386l0 0c23.63977 0 46.31134 9.3908615 63.02716 26.106697c16.715881 16.715836 26.10675 39.38739 26.10675 63.02716l0 0c0 49.227264 -39.906616 89.13385 -89.13391 89.13385l0 0c-49.227234 0 -89.13385 -39.906586 -89.13385 -89.13385zm44.566956 0l0 0c0 24.613632 19.953308 44.566925 44.566895 44.566925c24.613647 0 44.566956 -19.953293 44.566956 -44.566925c0 -24.613632 -19.953308 -44.566925 -44.566956 -44.566925l0 0c-24.613586 0 -44.566895 19.953293 -44.566895 44.566925z" fill-rule="nonzero"></path><path fill="#000000" fill-opacity="0.0" d="m770.0801 194.96326l0 0c0 -49.22728 39.906555 -89.13386 89.13385 -89.13386l0 0c23.63977 0 46.31128 9.3908615 63.02716 26.106697c16.71582 16.715836 26.10669 39.38739 26.10669 63.02716l0 0c0 49.227264 -39.906616 89.13385 -89.13385 89.13385l0 0c-49.227295 0 -89.13385 -39.906586 -89.13385 -89.13385zm44.566895 0l0 0c0 24.613632 19.953308 44.566925 44.566956 44.566925c24.613586 0 44.566895 -19.953293 44.566895 -44.566925c0 -24.613632 -19.953308 -44.566925 -44.566895 -44.566925l0 0c-24.613647 0 -44.566956 19.953293 -44.566956 44.566925z" fill-rule="nonzero"></path><path stroke="#000000" stroke-width="4.0" stroke-linejoin="round" stroke-linecap="butt" d="m770.0801 194.96326l0 0c0 -49.22728 39.906555 -89.13386 89.13385 -89.13386l0 0c23.63977 0 46.31128 9.3908615 63.02716 26.106697c16.71582 16.715836 26.10669 39.38739 26.10669 63.02716l0 0c0 49.227264 -39.906616 89.13385 -89.13385 89.13385l0 0c-49.227295 0 -89.13385 -39.906586 -89.13385 -89.13385zm44.566895 0l0 0c0 24.613632 19.953308 44.566925 44.566956 44.566925c24.613586 0 44.566895 -19.953293 44.566895 -44.566925c0 -24.613632 -19.953308 -44.566925 -44.566895 -44.566925l0 0c-24.613647 0 -44.566956 19.953293 -44.566956 44.566925z" fill-rule="nonzero"></path><path fill="#000000" fill-opacity="0.0" d="m10.149607 194.96326l0 0c0 -49.22728 39.906586 -89.13386 89.13386 -89.13386l0 0c23.63977 0 46.31131 9.3908615 63.02716 26.106697c16.715836 16.715836 26.10669 39.38739 26.10669 63.02716l0 0c0 49.227264 -39.906586 89.13385 -89.13385 89.13385l0 0c-49.22727 0 -89.13386 -39.906586 -89.13386 -89.13385zm44.566925 0l0 0c0 24.613632 19.953297 44.566925 44.56693 44.566925c24.613632 0 44.566925 -19.953293 44.566925 -44.566925c0 -24.613632 -19.953293 -44.566925 -44.566925 -44.566925l0 0c-24.613632 0 -44.56693 19.953293 -44.56693 44.566925z" fill-rule="nonzero"></path><path stroke="#000000" stroke-width="4.0" stroke-linejoin="round" stroke-linecap="butt" d="m10.149607 194.96326l0 0c0 -49.22728 39.906586 -89.13386 89.13386 -89.13386l0 0c23.63977 0 46.31131 9.3908615 63.02716 26.106697c16.715836 16.715836 26.10669 39.38739 26.10669 63.02716l0 0c0 49.227264 -39.906586 89.13385 -89.13385 89.13385l0 0c-49.22727 0 -89.13386 -39.906586 -89.13386 -89.13385zm44.566925 0l0 0c0 24.613632 19.953297 44.566925 44.56693 44.566925c24.613632 0 44.566925 -19.953293 44.566925 -44.566925c0 -24.613632 -19.953293 -44.566925 -44.566925 -44.566925l0 0c-24.613632 0 -44.56693 19.953293 -44.56693 44.566925z" fill-rule="nonzero"></path><path fill="#000000" fill-opacity="0.0" d="m99.28346 105.8294c0 -51.296566 15.755905 -105.8569 31.51181 -102.593124c15.755905 3.2637796 31.51181 64.35168 31.51181 128.70337" fill-rule="nonzero"></path><path stroke="#000000" stroke-width="4.0" stroke-linejoin="round" stroke-linecap="butt" d="m99.28346 105.8294c0 -51.296566 15.755905 -105.8569 31.51181 -102.593124c7.87796 1.6318896 15.755905 17.71981 21.664368 41.443714c2.954239 11.861954 5.416092 25.632908 7.1394043 40.460346c0.43081665 3.7068634 0.8154907 7.4797516 1.1501465 11.305359c0.16732788 1.912796 0.3221588 3.8387756 0.46400452 5.776268c0.07092285 0.96875 0.13859558 1.9403687 0.20297241 2.9146652c0.032180786 0.48714447 0.0635376 0.9749527 0.094070435 1.4634094l0.081970215 1.3502502" fill-rule="evenodd"></path><path fill="#000000" stroke="#000000" stroke-width="4.0" stroke-linecap="butt" d="m154.9882 108.14709l7.144699 17.947533l6.0632935 -18.34114z" fill-rule="evenodd"></path><path fill="#000000" fill-opacity="0.0" d="m265.63123 194.96326l0 0c0 -49.22728 39.906586 -89.13386 89.13385 -89.13386l0 0c23.63977 0 46.31134 9.3908615 63.02716 26.106697c16.71585 16.715836 26.10672 39.38739 26.10672 63.02716l0 0c0 49.227264 -39.906586 89.13385 -89.13388 89.13385l0 0c-49.227264 0 -89.13385 -39.906586 -89.13385 -89.13385zm44.566925 0l0 0c0 24.613632 19.953308 44.566925 44.566925 44.566925c24.613647 0 44.566956 -19.953293 44.566956 -44.566925c0 -24.613632 -19.953308 -44.566925 -44.566956 -44.566925l0 0c-24.613617 0 -44.566925 19.953293 -44.566925 44.566925z" fill-rule="nonzero"></path><path stroke="#000000" stroke-width="4.0" stroke-linejoin="round" stroke-linecap="butt" d="m265.63123 194.96326l0 0c0 -49.22728 39.906586 -89.13386 89.13385 -89.13386l0 0c23.63977 0 46.31134 9.3908615 63.02716 26.106697c16.71585 16.715836 26.10672 39.38739 26.10672 63.02716l0 0c0 49.227264 -39.906586 89.13385 -89.13388 89.13385l0 0c-49.227264 0 -89.13385 -39.906586 -89.13385 -89.13385zm44.566925 0l0 0c0 24.613632 19.953308 44.566925 44.566925 44.566925c24.613647 0 44.566956 -19.953293 44.566956 -44.566925c0 -24.613632 -19.953308 -44.566925 -44.566956 -44.566925l0 0c-24.613617 0 -44.566925 19.953293 -44.566925 44.566925z" fill-rule="nonzero"></path><path fill="#000000" fill-opacity="0.0" d="m354.76508 105.8294c0 -48.059025 15.75592 -99.38183 31.51181 -96.11805c15.75592 3.2637796 31.51184 61.114143 31.51184 122.22829" fill-rule="nonzero"></path><path stroke="#000000" stroke-width="4.0" stroke-linejoin="round" stroke-linecap="butt" d="m354.7651 105.8294c0 -48.05903 15.75589 -99.38183 31.51181 -96.11805c7.8779297 1.6318893 15.75589 16.910423 21.664368 39.420254c2.9542236 11.254917 5.4160767 24.317654 7.139374 38.386295c0.43081665 3.5171661 0.8154907 7.0971985 1.1501465 10.72757c0.16732788 1.8151779 0.32217407 3.642952 0.4640503 5.481743c0.070892334 0.9193878 0.1385498 1.8415298 0.2029419 2.7662506c0.032196045 0.46234894 0.0635376 0.92533875 0.09408569 1.3889542l0.0044555664 0.07029724" fill-rule="evenodd"></path><path fill="#000000" stroke="#000000" stroke-width="4.0" stroke-linecap="butt" d="m410.39304 108.170845l7.202606 17.92437l6.004059 -18.360626z" fill-rule="evenodd"></path><path fill="#000000" fill-opacity="0.0" d="m606.9908 105.8294c0 -49.27302 15.75592 -101.80982 31.51184 -98.546036c15.75592 3.2637796 31.51178 62.328136 31.51178 124.65628" fill-rule="nonzero"></path><path stroke="#000000" stroke-width="4.0" stroke-linejoin="round" stroke-linecap="butt" d="m606.9908 105.8294c0 -49.27302 15.75592 -101.80982 31.51184 -98.546036c7.8779297 1.6318893 15.75592 17.213924 21.664368 40.179005c2.9542236 11.482536 5.4160767 24.810837 7.1394043 39.16401c0.86169434 7.17659 1.5386963 14.609398 2.0002441 22.195808c0.11541748 1.8965988 0.21734619 3.8028107 0.3053589 5.717003c0.043945312 0.95710754 0.084472656 1.9162064 0.12145996 2.8771057l0.029907227 0.8172989" fill-rule="evenodd"></path><path fill="#000000" stroke="#000000" stroke-width="4.0" stroke-linecap="butt" d="m669.76337 118.23359l-4.580017 -4.4151917l4.723999 12.274605l4.271179 -12.439392z" fill-rule="evenodd"></path><path fill="#000000" fill-opacity="0.0" d="m859.2139 105.8294c0 -47.65484 15.755859 -98.573456 31.51178 -95.30968c15.75592 3.2637796 31.51184 60.709953 31.51184 121.419914" fill-rule="nonzero"></path><path stroke="#000000" stroke-width="4.0" stroke-linejoin="round" stroke-linecap="butt" d="m859.2139 105.8294c0 -47.65484 15.755859 -98.573456 31.51178 -95.30968c7.8779907 1.6318893 15.75592 16.809378 21.664368 39.16764c2.9542236 11.179134 5.4161377 24.153458 7.1394653 38.127365c0.43078613 3.4934769 0.8154297 7.0494385 1.1500854 10.655426c0.16729736 1.8029938 0.3222046 3.6185074 0.46398926 5.444977c0.07092285 0.9132309 0.13861084 1.8292007 0.20300293 2.7477188l0.08795166 1.2902222" fill-rule="evenodd"></path><path fill="#000000" stroke="#000000" stroke-width="4.0" stroke-linecap="butt" d="m914.83136 108.17411l7.2105103 17.921188l5.9959717 -18.363274z" fill-rule="evenodd"></path><path fill="#000000" fill-opacity="0.0" d="m1108.189 105.82874c0 -46.036396 15.755859 -95.33657 31.51184 -92.07279c15.755859 3.2637806 31.51184 59.091515 31.51184 118.18303" fill-rule="nonzero"></path><path stroke="#000000" stroke-width="4.0" stroke-linejoin="round" stroke-linecap="butt" d="m1108.189 105.82874c0 -46.036396 15.755859 -95.33657 31.51184 -92.07279c7.8779297 1.6318903 15.755859 16.404768 21.664307 38.156113c2.9542236 10.875675 5.4161377 23.495964 7.1395264 37.090553c0.43078613 3.3986511 0.8154297 6.8581924 1.1500244 10.366592c0.1673584 1.7541885 0.32226562 3.520607 0.46398926 5.297737c0.07092285 0.88856506 0.13867188 1.7798004 0.20300293 2.673523l0.04296875 0.6134949" fill-rule="evenodd"></path><path fill="#000000" stroke="#000000" stroke-width="4.0" stroke-linecap="butt" d="m1163.7618 108.187386l7.2441406 17.90763l5.961548 -18.374481z" fill-rule="evenodd"></path><path fill="#000000" fill-opacity="0.0" d="m151.49081 7.1391077l28.944885 0l0 54.393703l-28.944885 0z" fill-rule="nonzero"></path><path fill="#000000" d="m166.36581 54.539104l-3.25 0l0 -28.640625l3.515625 0l0 10.21875q2.21875 -2.796875 5.671875 -2.796875q1.921875 0 3.625 0.78125q1.71875 0.765625 2.8125 2.171875q1.109375 1.390625 1.734375 3.359375q0.625 1.96875 0.625 4.21875q0 5.328125 -2.640625 8.25q-2.640625 2.90625 -6.328125 2.90625q-3.671875 0 -5.765625 -3.0625l0 2.59375zm-0.03125 -10.53125q0 3.734375 1.015625 5.390625q1.65625 2.71875 4.484375 2.71875q2.3125 0 3.984375 -2.0q1.6875 -2.0 1.6875 -5.96875q0 -4.0625 -1.609375 -6.0q-1.609375 -1.9375 -3.90625 -1.9375q-2.296875 0 -3.984375 2.015625q-1.671875 2.0 -1.671875 5.78125z" fill-rule="nonzero"></path><path fill="#000000" fill-opacity="0.0" d="m411.7034 7.1391077l28.944885 0l0 54.393703l-28.944885 0z" fill-rule="nonzero"></path><path fill="#000000" d="m426.5784 54.539104l-3.25 0l0 -28.640625l3.515625 0l0 10.21875q2.21875 -2.796875 5.671875 -2.796875q1.921875 0 3.625 0.78125q1.71875 0.765625 2.8125 2.171875q1.109375 1.390625 1.734375 3.359375q0.625 1.96875 0.625 4.21875q0 5.328125 -2.640625 8.25q-2.640625 2.90625 -6.328125 2.90625q-3.671875 0 -5.765625 -3.0625l0 2.59375zm-0.03125 -10.53125q0 3.734375 1.015625 5.390625q1.65625 2.71875 4.484375 2.71875q2.3125 0 3.984375 -2.0q1.6875 -2.0 1.6875 -5.96875q0 -4.0625 -1.609375 -6.0q-1.609375 -1.9375 -3.90625 -1.9375q-2.296875 0 -3.984375 2.015625q-1.671875 2.0 -1.671875 5.78125z" fill-rule="nonzero"></path><path fill="#000000" fill-opacity="0.0" d="m671.916 7.1391077l28.944885 0l0 54.393703l-28.944885 0z" fill-rule="nonzero"></path><path fill="#000000" d="m686.791 54.539104l-3.25 0l0 -28.640625l3.515625 0l0 10.21875q2.21875 -2.796875 5.671875 -2.796875q1.921875 0 3.625 0.78125q1.71875 0.765625 2.8125 2.171875q1.109375 1.390625 1.734375 3.359375q0.625 1.96875 0.625 4.21875q0 5.328125 -2.640625 8.25q-2.640625 2.90625 -6.328125 2.90625q-3.671875 0 -5.765625 -3.0625l0 2.59375zm-0.03125 -10.53125q0 3.734375 1.015625 5.390625q1.65625 2.71875 4.484375 2.71875q2.3125 0 3.984375 -2.0q1.6875 -2.0 1.6875 -5.96875q0 -4.0625 -1.609375 -6.0q-1.609375 -1.9375 -3.90625 -1.9375q-2.296875 0 -3.984375 2.015625q-1.671875 2.0 -1.671875 5.78125z" fill-rule="nonzero"></path><path fill="#000000" fill-opacity="0.0" d="m912.06824 7.1391077l28.944885 0l0 54.393703l-28.944885 0z" fill-rule="nonzero"></path><path fill="#000000" d="m926.94324 54.539104l-3.25 0l0 -28.640625l3.515625 0l0 10.21875q2.21875 -2.796875 5.671875 -2.796875q1.921875 0 3.625 0.78125q1.71875 0.765625 2.8125 2.171875q1.109375 1.390625 1.734375 3.359375q0.625 1.96875 0.625 4.21875q0 5.328125 -2.640625 8.25q-2.640625 2.90625 -6.328125 2.90625q-3.671875 0 -5.765625 -3.0625l0 2.59375zm-0.03125 -10.53125q0 3.734375 1.015625 5.390625q1.65625 2.71875 4.484375 2.71875q2.3125 0 3.984375 -2.0q1.6875 -2.0 1.6875 -5.96875q0 -4.0625 -1.609375 -6.0q-1.609375 -1.9375 -3.90625 -1.9375q-2.296875 0 -3.984375 2.015625q-1.671875 2.0 -1.671875 5.78125z" fill-rule="nonzero"></path><path fill="#000000" fill-opacity="0.0" d="m1043.4619 7.1391077l77.1969 0l0 54.393703l-77.1969 0z" fill-rule="nonzero"></path><path fill="#000000" d="m1058.3369 54.539104l-3.25 0l0 -28.640625l3.515625 0l0 10.21875q2.21875 -2.796875 5.671875 -2.796875q1.921875 0 3.625 0.78125q1.71875 0.765625 2.8125 2.171875q1.109375 1.390625 1.734375 3.359375q0.625 1.96875 0.625 4.21875q0 5.328125 -2.640625 8.25q-2.640625 2.90625 -6.328125 2.90625q-3.671875 0 -5.765625 -3.0625l0 2.59375zm-0.03125 -10.53125q0 3.734375 1.015625 5.390625q1.65625 2.71875 4.484375 2.71875q2.3125 0 3.984375 -2.0q1.6875 -2.0 1.6875 -5.96875q0 -4.0625 -1.609375 -6.0q-1.609375 -1.9375 -3.90625 -1.9375q-2.296875 0 -3.984375 2.015625q-1.671875 2.0 -1.671875 5.78125zm19.964844 10.53125l0 -4.0l4.0 0l0 4.0q0 2.203125 -0.78125 3.5625q-0.78125 1.359375 -2.484375 2.109375l-0.96875 -1.515625q1.109375 -0.484375 1.625 -1.4375q0.53125 -0.9375 0.59375 -2.71875l-1.984375 0zm23.722656 -2.5625q-1.953125 1.65625 -3.765625 2.34375q-1.796875 0.6875 -3.875 0.6875q-3.40625 0 -5.25 -1.671875q-1.828125 -1.671875 -1.828125 -4.265625q0 -1.53125 0.6875 -2.78125q0.6875 -1.265625 1.8125 -2.015625q1.125 -0.765625 2.53125 -1.15625q1.03125 -0.28125 3.125 -0.53125q4.265625 -0.515625 6.265625 -1.21875q0.03125 -0.71875 0.03125 -0.90625q0 -2.15625 -1.0 -3.03125q-1.34375 -1.1875 -4.0 -1.1875q-2.484375 0 -3.671875 0.875q-1.171875 0.859375 -1.75 3.0625l-3.4375 -0.46875q0.46875 -2.203125 1.546875 -3.5625q1.078125 -1.359375 3.109375 -2.09375q2.03125 -0.734375 4.703125 -0.734375q2.65625 0 4.3125 0.625q1.671875 0.625 2.453125 1.578125q0.78125 0.953125 1.09375 2.390625q0.171875 0.90625 0.171875 3.25l0 4.6875q0 4.890625 0.21875 6.203125q0.234375 1.296875 0.890625 2.484375l-3.671875 0q-0.546875 -1.09375 -0.703125 -2.5625zm-0.296875 -7.84375q-1.90625 0.78125 -5.734375 1.328125q-2.171875 0.3125 -3.078125 0.703125q-0.890625 0.390625 -1.375 1.140625q-0.484375 0.75 -0.484375 1.671875q0 1.40625 1.0625 2.34375q1.0625 0.9375 3.109375 0.9375q2.03125 0 3.609375 -0.890625q1.59375 -0.890625 2.328125 -2.4375q0.5625 -1.1875 0.5625 -3.515625l0 -1.28125z" fill-rule="nonzero"></path></g></svg>

