<?xml version="1.0" standalone="yes"?>

<svg version="1.1" viewBox="0.0 0.0 791.4068241469816 388.4199475065617" fill="none" stroke="none" stroke-linecap="square" stroke-miterlimit="10" xmlns="http://www.w3.org/2000/svg" xmlns:xlink="http://www.w3.org/1999/xlink"><clipPath id="p.0"><path d="m0 0l791.4068 0l0 388.41995l-791.4068 0l0 -388.41995z" clip-rule="nonzero"></path></clipPath><g clip-path="url(#p.0)"><path fill="#000000" fill-opacity="0.0" d="m0 0l791.4068 0l0 388.41995l-791.4068 0z" fill-rule="nonzero"></path><path fill="#000000" fill-opacity="0.0" d="m590.73755 194.1752l0 0c0 -49.22728 39.906555 -89.133865 89.13385 -89.133865l0 0c23.63977 0 46.31128 9.3908615 63.02716 26.106705c16.71582 16.715836 26.10669 39.38739 26.10669 63.02716l0 0c0 49.227264 -39.906616 89.13385 -89.13385 89.13385l0 0c-49.227295 0 -89.13385 -39.906586 -89.13385 -89.13385z" fill-rule="nonzero"></path><path stroke="#000000" stroke-width="4.0" stroke-linejoin="round" stroke-linecap="butt" d="m590.73755 194.1752l0 0c0 -49.22728 39.906555 -89.133865 89.13385 -89.133865l0 0c23.63977 0 46.31128 9.3908615 63.02716 26.106705c16.71582 16.715836 26.10669 39.38739 26.10669 63.02716l0 0c0 49.227264 -39.906616 89.13385 -89.13385 89.13385l0 0c-49.227295 0 -89.13385 -39.906586 -89.13385 -89.13385z" fill-rule="nonzero"></path><path fill="#000000" fill-opacity="0.0" d="m25.080456 352.8244l11.181103 -94.834656" fill-rule="nonzero"></path><path stroke="#000000" stroke-width="4.0" stroke-linejoin="round" stroke-linecap="butt" d="m25.080456 352.8244l8.370941 -70.999756" fill-rule="evenodd"></path><path fill="#000000" stroke="#000000" stroke-width="4.0" stroke-linecap="butt" d="m40.01288 282.59827l-4.436016 -18.801147l-8.686949 17.253937z" fill-rule="evenodd"></path><path fill="#000000" fill-opacity="0.0" d="m188.43832 194.9626l120.75589 0" fill-rule="nonzero"></path><path stroke="#000000" stroke-width="4.0" stroke-linejoin="round" stroke-linecap="butt" d="m188.43832 194.9626l96.75589 0" fill-rule="evenodd"></path><path fill="#000000" stroke="#000000" stroke-width="4.0" stroke-linecap="butt" d="m285.1942 201.56953l18.152405 -6.6069336l-18.152405 -6.6069336z" fill-rule="evenodd"></path><path fill="#000000" fill-opacity="0.0" d="m487.46194 194.9626l103.275604 -1.5747986" fill-rule="nonzero"></path><path stroke="#000000" stroke-width="4.0" stroke-linejoin="round" stroke-linecap="butt" d="m487.46194 194.9626l79.27835 -1.2088928" fill-rule="evenodd"></path><path fill="#000000" stroke="#000000" stroke-width="4.0" stroke-linecap="butt" d="m566.84106 200.35988l18.04956 -6.8829193l-18.251038 -6.3294067z" fill-rule="evenodd"></path><path fill="#000000" fill-opacity="0.0" d="m194.92914 140.56955l81.82678 0l0 54.393707l-81.82678 0z" fill-rule="nonzero"></path><path fill="#000000" d="m220.10101 185.40706q-1.953125 1.65625 -3.765625 2.34375q-1.796875 0.6875 -3.875 0.6875q-3.40625 0 -5.25 -1.671875q-1.828125 -1.671875 -1.828125 -4.265625q0 -1.53125 0.6875 -2.78125q0.6875 -1.265625 1.8125 -2.015625q1.125 -0.765625 2.53125 -1.15625q1.03125 -0.28125 3.125 -0.53125q4.265625 -0.515625 6.265625 -1.21875q0.03125 -0.71875 0.03125 -0.90625q0 -2.15625 -1.0 -3.03125q-1.34375 -1.1875 -4.0 -1.1875q-2.484375 0 -3.671875 0.875q-1.171875 0.859375 -1.75 3.0625l-3.4375 -0.46875q0.46875 -2.203125 1.546875 -3.5625q1.078125 -1.359375 3.109375 -2.09375q2.03125 -0.734375 4.703125 -0.734375q2.65625 0 4.3125 0.625q1.671875 0.625 2.453125 1.578125q0.78125 0.953125 1.09375 2.390625q0.171875 0.90625 0.171875 3.25l0 4.6875q0 4.890625 0.21875 6.203125q0.234375 1.296875 0.890625 2.484375l-3.671875 0q-0.546875 -1.09375 -0.703125 -2.5625zm-0.296875 -7.84375q-1.90625 0.78125 -5.734375 1.328125q-2.171875 0.3125 -3.078125 0.703125q-0.890625 0.390625 -1.375 1.140625q-0.484375 0.75 -0.484375 1.671875q0 1.40625 1.0625 2.34375q1.0625 0.9375 3.109375 0.9375q2.03125 0 3.609375 -0.890625q1.59375 -0.890625 2.328125 -2.4375q0.5625 -1.1875 0.5625 -3.515625l0 -1.28125zm9.933594 10.40625l0 -4.0l4.0 0l0 4.0q0 2.203125 -0.78125 3.5625q-0.78125 1.359375 -2.484375 2.109375l-0.96875 -1.515625q1.109375 -0.484375 1.625 -1.4375q0.53125 -0.9375 0.59375 -2.71875l-1.984375 0zm13.425781 0l-3.25 0l0 -28.640625l3.515625 0l0 10.21875q2.21875 -2.796875 5.671875 -2.796875q1.921875 0 3.625 0.78125q1.71875 0.765625 2.8125 2.171875q1.109375 1.390625 1.734375 3.359375q0.625 1.96875 0.625 4.21875q0 5.328125 -2.640625 8.25q-2.640625 2.90625 -6.328125 2.90625q-3.671875 0 -5.765625 -3.0625l0 2.59375zm-0.03125 -10.53125q0 3.734375 1.015625 5.390625q1.65625 2.71875 4.484375 2.71875q2.3125 0 3.984375 -2.0q1.6875 -2.0 1.6875 -5.96875q0 -4.0625 -1.609375 -6.0q-1.609375 -1.9375 -3.90625 -1.9375q-2.296875 0 -3.984375 2.015625q-1.671875 2.0 -1.671875 5.78125z" fill-rule="nonzero"></path><path fill="#000000" fill-opacity="0.0" d="m10.149607 194.96326l0 0c0 -49.22728 39.906586 -89.13386 89.13386 -89.13386l0 0c23.63977 0 46.31131 9.3908615 63.02716 26.106697c16.715836 16.71585 26.106705 39.38739 26.106705 63.02716l0 0c0 49.227264 -39.906586 89.13385 -89.133865 89.13385l0 0c-49.22727 0 -89.13386 -39.906586 -89.13386 -89.13385zm44.566925 0l0 0c0 24.613632 19.953297 44.566925 44.56693 44.566925c24.61364 0 44.566925 -19.953293 44.566925 -44.566925c0 -24.613632 -19.953285 -44.566925 -44.566925 -44.566925l0 0c-24.613632 0 -44.56693 19.953293 -44.56693 44.566925z" fill-rule="nonzero"></path><path stroke="#000000" stroke-width="4.0" stroke-linejoin="round" stroke-linecap="butt" d="m10.149607 194.96326l0 0c0 -49.22728 39.906586 -89.13386 89.13386 -89.13386l0 0c23.63977 0 46.31131 9.3908615 63.02716 26.106697c16.715836 16.71585 26.106705 39.38739 26.106705 63.02716l0 0c0 49.227264 -39.906586 89.13385 -89.133865 89.13385l0 0c-49.22727 0 -89.13386 -39.906586 -89.13386 -89.13385zm44.566925 0l0 0c0 24.613632 19.953297 44.566925 44.56693 44.566925c24.61364 0 44.566925 -19.953293 44.566925 -44.566925c0 -24.613632 -19.953285 -44.566925 -44.566925 -44.566925l0 0c-24.613632 0 -44.56693 19.953293 -44.56693 44.566925z" fill-rule="nonzero"></path><path fill="#000000" fill-opacity="0.0" d="m309.1942 194.9626l0 0c0 -49.22728 39.906586 -89.13386 89.13388 -89.13386l0 0c23.63977 0 46.31131 9.3908615 63.02713 26.106697c16.71585 16.71585 26.10672 39.38739 26.10672 63.02716l0 0c0 49.227264 -39.906586 89.133865 -89.13385 89.133865l0 0c-49.227295 0 -89.13388 -39.9066 -89.13388 -89.133865z" fill-rule="nonzero"></path><path stroke="#000000" stroke-width="4.0" stroke-linejoin="round" stroke-linecap="butt" d="m309.1942 194.9626l0 0c0 -49.22728 39.906586 -89.13386 89.13388 -89.13386l0 0c23.63977 0 46.31131 9.3908615 63.02713 26.106697c16.71585 16.71585 26.10672 39.38739 26.10672 63.02716l0 0c0 49.227264 -39.906586 89.133865 -89.13385 89.133865l0 0c-49.227295 0 -89.13388 -39.9066 -89.13388 -89.133865z" fill-rule="nonzero"></path><path fill="#000000" fill-opacity="0.0" d="m491.7244 140.56955l81.82681 0l0 54.393707l-81.82681 0z" fill-rule="nonzero"></path><path fill="#000000" d="m516.8963 185.40706q-1.953125 1.65625 -3.765625 2.34375q-1.7969055 0.6875 -3.8750305 0.6875q-3.40625 0 -5.25 -1.671875q-1.828125 -1.671875 -1.828125 -4.265625q0 -1.53125 0.6875 -2.78125q0.6875 -1.265625 1.8125 -2.015625q1.125 -0.765625 2.53125 -1.15625q1.03125 -0.28125 3.125 -0.53125q4.2656555 -0.515625 6.2656555 -1.21875q0.03125 -0.71875 0.03125 -0.90625q0 -2.15625 -1.0 -3.03125q-1.34375 -1.1875 -4.0000305 -1.1875q-2.484375 0 -3.671875 0.875q-1.171875 0.859375 -1.75 3.0625l-3.4375 -0.46875q0.46875 -2.203125 1.546875 -3.5625q1.078125 -1.359375 3.109375 -2.09375q2.03125 -0.734375 4.7031555 -0.734375q2.65625 0 4.3125 0.625q1.671875 0.625 2.453125 1.578125q0.78125 0.953125 1.09375 2.390625q0.171875 0.90625 0.171875 3.25l0 4.6875q0 4.890625 0.21875 6.203125q0.234375 1.296875 0.890625 2.484375l-3.671875 0q-0.546875 -1.09375 -0.703125 -2.5625zm-0.296875 -7.84375q-1.90625 0.78125 -5.7344055 1.328125q-2.171875 0.3125 -3.078125 0.703125q-0.890625 0.390625 -1.375 1.140625q-0.484375 0.75 -0.484375 1.671875q0 1.40625 1.0625 2.34375q1.0625 0.9375 3.109375 0.9375q2.0312805 0 3.6094055 -0.890625q1.59375 -0.890625 2.328125 -2.4375q0.5625 -1.1875 0.5625 -3.515625l0 -1.28125zm9.933594 10.40625l0 -4.0l4.0 0l0 4.0q0 2.203125 -0.78125 3.5625q-0.78125 1.359375 -2.484375 2.109375l-0.96875 -1.515625q1.109375 -0.484375 1.625 -1.4375q0.53125 -0.9375 0.59375 -2.71875l-1.984375 0zm13.425781 0l-3.25 0l0 -28.640625l3.515625 0l0 10.21875q2.21875 -2.796875 5.671875 -2.796875q1.921875 0 3.625 0.78125q1.71875 0.765625 2.8125 2.171875q1.109375 1.390625 1.734375 3.359375q0.625 1.96875 0.625 4.21875q0 5.328125 -2.640625 8.25q-2.640625 2.90625 -6.328125 2.90625q-3.671875 0 -5.765625 -3.0625l0 2.59375zm-0.03125 -10.53125q0 3.734375 1.015625 5.390625q1.65625 2.71875 4.484375 2.71875q2.3125 0 3.984375 -2.0q1.6875 -2.0 1.6875 -5.96875q0 -4.0625 -1.609375 -6.0q-1.609375 -1.9375 -3.90625 -1.9375q-2.296875 0 -3.984375 2.015625q-1.671875 2.0 -1.671875 5.78125z" fill-rule="nonzero"></path><path fill="#000000" fill-opacity="0.0" d="m679.8714 105.041336c0 -33.50361 -145.1496 -67.105644 -290.29922 -67.00722c-145.1496 0.098423004 -290.2992 33.89731 -290.2992 67.794624" fill-rule="nonzero"></path><path stroke="#000000" stroke-width="4.0" stroke-linejoin="round" stroke-linecap="butt" d="m679.8714 105.041336c0 -33.50361 -145.1496 -67.105644 -290.29922 -67.00722c-72.5748 0.04921341 -145.1496 8.5235405 -199.5807 21.222729c-27.215546 6.349598 -49.895172 13.755405 -65.77091 21.692394c-1.9844742 0.99212646 -3.8626251 1.9925461 -5.6300507 3.0002518c-0.88370514 0.5038452 -1.7397232 1.0095139 -2.5675125 1.5168762c-0.41388702 0.25366974 -0.8207245 0.50777435 -1.2204208 0.7622833c-0.19985199 0.1272583 -0.39792633 0.25461578 -0.59420013 0.38206482l-0.30007172 0.19680023" fill-rule="evenodd"></path><path fill="#000000" stroke="#000000" stroke-width="4.0" stroke-linecap="butt" d="m108.671974 82.77857l-5.8330994 18.415642l16.305756 -10.35775z" fill-rule="evenodd"></path><path fill="#000000" fill-opacity="0.0" d="m344.44882 -16.359581l81.82678 0l0 54.393703l-81.82678 0z" fill-rule="nonzero"></path><path fill="#000000" d="m369.6207 28.477917q-1.953125 1.65625 -3.765625 2.34375q-1.796875 0.6875 -3.875 0.6875q-3.40625 0 -5.25 -1.671875q-1.828125 -1.671875 -1.828125 -4.265625q0 -1.53125 0.6875 -2.78125q0.6875 -1.265625 1.8125 -2.015625q1.125 -0.765625 2.53125 -1.15625q1.03125 -0.28125 3.125 -0.53125q4.265625 -0.515625 6.265625 -1.21875q0.03125 -0.71875 0.03125 -0.90625q0 -2.156249 -1.0 -3.031249q-1.34375 -1.1875 -4.0 -1.1875q-2.484375 0 -3.671875 0.875q-1.171875 0.859375 -1.75 3.062499l-3.4375 -0.46875q0.46875 -2.203124 1.546875 -3.562499q1.078125 -1.359375 3.109375 -2.09375q2.03125 -0.734375 4.703125 -0.734375q2.65625 0 4.3125 0.625q1.671875 0.625 2.453125 1.578125q0.78125 0.953125 1.09375 2.390625q0.171875 0.90625 0.171875 3.249999l0 4.6875q0 4.890625 0.21875 6.203125q0.234375 1.296875 0.890625 2.484375l-3.671875 0q-0.546875 -1.09375 -0.703125 -2.5625zm-0.296875 -7.84375q-1.90625 0.78125 -5.734375 1.328125q-2.171875 0.3125 -3.078125 0.703125q-0.890625 0.390625 -1.375 1.140625q-0.484375 0.75 -0.484375 1.671875q0 1.40625 1.0625 2.34375q1.0625 0.9375 3.109375 0.9375q2.03125 0 3.609375 -0.890625q1.59375 -0.890625 2.328125 -2.4375q0.5625 -1.1875 0.5625 -3.515625l0 -1.28125zm9.933594 10.40625l0 -4.0l4.0 0l0 4.0q0 2.203125 -0.78125 3.5625q-0.78125 1.359375 -2.484375 2.109375l-0.96875 -1.515625q1.109375 -0.484375 1.625 -1.4375q0.53125 -0.9375 0.59375 -2.71875l-1.984375 0zm13.425781 0l-3.25 0l0 -28.640625l3.515625 0l0 10.21875q2.21875 -2.796875 5.671875 -2.796875q1.921875 0 3.625 0.78125q1.71875 0.765625 2.8125 2.171875q1.109375 1.390625 1.734375 3.359374q0.625 1.96875 0.625 4.21875q0 5.328125 -2.640625 8.25q-2.640625 2.90625 -6.328125 2.90625q-3.671875 0 -5.765625 -3.0625l0 2.59375zm-0.03125 -10.53125q0 3.734375 1.015625 5.390625q1.65625 2.71875 4.484375 2.71875q2.3125 0 3.984375 -2.0q1.6875 -2.0 1.6875 -5.96875q0 -4.0625 -1.609375 -5.999999q-1.609375 -1.9375 -3.90625 -1.9375q-2.296875 0 -3.984375 2.015625q-1.671875 1.999999 -1.671875 5.781249z" fill-rule="nonzero"></path></g></svg>

