<?xml version="1.0" standalone="yes"?>

<svg version="1.1" viewBox="0.0 0.0 960.0 720.0" fill="none" stroke="none" stroke-linecap="square" stroke-miterlimit="10" xmlns="http://www.w3.org/2000/svg" xmlns:xlink="http://www.w3.org/1999/xlink"><clipPath id="p12.0"><path d="m0 0l960.0 0l0 720.0l-960.0 0l0 -720.0z" clip-rule="nonzero"></path></clipPath><g clip-path="url(#p12.0)"><path fill="#ffffff" d="m0 0l960.0 0l0 720.0l-960.0 0z" fill-rule="nonzero"></path><path fill="#000000" fill-opacity="0.0" d="m981.8898 90.09449l293.98425 0l0 62.173225l-293.98425 0z" fill-rule="nonzero"></path><path fill="#c0c0c0" d="m28.333334 160.0l346.83328 0l0 61.33333l-346.83328 0z" fill-rule="nonzero"></path><path fill="#000000" d="m59.974827 204.95999l0 -27.140625l-10.140625 0l0 -3.640625l24.390629 0l0 3.640625l-10.1875 0l0 27.140625l-4.062504 0zm16.321766 -11.15625q0 -6.1875 3.453125 -9.171875q2.875 -2.46875 7.015625 -2.46875q4.59375 0 7.5 3.015625q2.921875 3.0 2.921875 8.3125q0 4.3125 -1.296875 6.78125q-1.28125 2.46875 -3.75 3.828125q-2.46875 1.359375 -5.375 1.359375q-4.6875 0 -7.578125 -3.0q-2.890625 -3.0 -2.890625 -8.65625zm3.890625 0q0 4.296875 1.859375 6.421875q1.875 2.125 4.71875 2.125q2.8125 0 4.671875 -2.140625q1.875 -2.140625 1.875 -6.53125q0 -4.125 -1.890625 -6.25q-1.875 -2.140625 -4.65625 -2.140625q-2.84375 0 -4.71875 2.125q-1.859375 2.109375 -1.859375 6.390625zm29.504623 7.78125l0.53125 3.328125q-1.59375 0.34375 -2.84375 0.34375q-2.0625 0 -3.203125 -0.65625q-1.125 -0.65625 -1.59375 -1.703125q-0.453125 -1.0625 -0.453125 -4.46875l0 -12.828125l-2.78125 0l0 -2.9375l2.78125 0l0 -5.515625l3.75 -2.28125l0 7.796875l3.8125 0l0 2.9375l-3.8125 0l0 13.046875q0 1.609375 0.203125 2.078125q0.203125 0.453125 0.65625 0.734375q0.453125 0.265625 1.28125 0.265625q0.640625 0 1.671875 -0.140625zm18.148148 0.625q-2.109375 1.78125 -4.046875 2.515625q-1.9375 0.734375 -4.171875 0.734375q-3.671875 0 -5.65625 -1.796875q-1.96875 -1.796875 -1.96875 -4.578125q0 -1.640625 0.75 -2.984375q0.75 -1.359375 1.953125 -2.171875q1.203125 -0.828125 2.71875 -1.25q1.109375 -0.296875 3.359375 -0.5625q4.578125 -0.546875 6.734375 -1.3125q0.03125 -0.765625 0.03125 -0.984375q0 -2.3125 -1.078125 -3.25q-1.4375 -1.28125 -4.296875 -1.28125q-2.671875 0 -3.9375 0.9375q-1.265625 0.921875 -1.875 3.296875l-3.703125 -0.5q0.5 -2.375 1.65625 -3.828125q1.15625 -1.46875 3.34375 -2.25q2.1875 -0.78125 5.0625 -0.78125q2.859375 0 4.640625 0.671875q1.7812424 0.671875 2.6093674 1.6875q0.84375 1.015625 1.1875 2.5625q0.1875 0.96875 0.1875 3.5l0 5.03125q0 5.265625 0.234375 6.671875q0.25 1.390625 0.96875 2.671875l-3.953125 0q-0.5937424 -1.171875 -0.7499924 -2.75zm-0.328125 -8.4375q-2.046875 0.84375 -6.171875 1.421875q-2.328125 0.34375 -3.296875 0.765625q-0.953125 0.40625 -1.484375 1.21875q-0.53125 0.8125 -0.53125 1.796875q0 1.515625 1.140625 2.53125q1.15625 1.0 3.359375 1.0q2.1875 0 3.875 -0.953125q1.703125 -0.96875 2.515625 -2.625q0.59375 -1.28125 0.59375 -3.78125l0 -1.375zm9.410866 11.1875l0 -30.78125l3.78125 0l0 30.78125l-3.78125 0zm29.445602 -18.09375l-20.328125 0l0 -3.53125l20.328125 0l0 3.53125zm0 9.34375l-20.328125 0l0 -3.53125l20.328125 0l0 3.53125zm5.0199585 17.296875l0 -30.84375l3.453125 0l0 2.890625q1.21875 -1.6875 2.75 -2.53125q1.53125 -0.859375 3.71875 -0.859375q2.84375 0 5.03125 1.46875q2.1875 1.46875 3.296875 4.140625q1.109375 2.671875 1.109375 5.875q0 3.421875 -1.234375 6.15625q-1.21875 2.734375 -3.5625 4.203125q-2.34375 1.453125 -4.921875 1.453125q-1.890625 0 -3.390625 -0.796875q-1.5 -0.796875 -2.46875 -2.015625l0 10.859375l-3.78125 0zm3.421875 -19.5625q0 4.296875 1.75 6.359375q1.75 2.046875 4.21875 2.046875q2.515625 0 4.3125 -2.125q1.796875 -2.125 1.796875 -6.609375q0 -4.25 -1.75 -6.375q-1.75 -2.125 -4.1875 -2.125q-2.421875 0 -4.28125 2.265625q-1.859375 2.25 -1.859375 6.5625zm20.270248 11.015625l0 -22.296875l3.390625 0l0 3.375q1.3125 -2.375 2.40625 -3.125q1.109375 -0.75 2.421875 -0.75q1.921875 0 3.890625 1.21875l-1.296875 3.5q-1.390625 -0.8125 -2.78125 -0.8125q-1.234375 0 -2.21875 0.75q-0.984375 0.734375 -1.40625 2.0625q-0.625 2.015625 -0.625 4.40625l0 11.671875l-3.78125 0zm14.2673645 -26.4375l0 -4.34375l3.78125 0l0 4.34375l-3.78125 0zm0 26.4375l0 -22.296875l3.78125 0l0 22.296875l-3.78125 0zm24.008102 -8.171875l3.703125 0.484375q-0.59375 3.84375 -3.109375 6.015625q-2.515625 2.171875 -6.15625 2.171875q-4.578125 0 -7.359375 -2.984375q-2.78125 -3.0 -2.78125 -8.578125q0 -3.609375 1.1875 -6.3125q1.203125 -2.71875 3.640625 -4.0625q2.453125 -1.359375 5.328125 -1.359375q3.625 0 5.9375 1.84375q2.3125 1.828125 2.96875 5.203125l-3.6875 0.5625q-0.515625 -2.234375 -1.859375 -3.359375q-1.328125 -1.140625 -3.21875 -1.140625q-2.84375 0 -4.640625 2.046875q-1.78125 2.046875 -1.78125 6.46875q0 4.5 1.71875 6.53125q1.71875 2.03125 4.5 2.03125q2.21875 0 3.703125 -1.359375q1.5 -1.359375 1.90625 -4.203125zm22.03125 0.984375l3.9062653 0.484375q-0.921875 3.421875 -3.4218903 5.3125q-2.5 1.890625 -6.375 1.890625q-4.890625 0 -7.765625 -3.0q-2.859375 -3.015625 -2.859375 -8.453125q0 -5.640625 2.890625 -8.734375q2.90625 -3.109375 7.515625 -3.109375q4.484375 0 7.3125153 3.046875q2.828125 3.03125 2.828125 8.5625q0 0.328125 -0.015625 1.0l-16.625015 0q0.203125 3.671875 2.0625 5.625q1.875 1.953125 4.671875 1.953125q2.078125 0 3.546875 -1.078125q1.46875 -1.09375 2.328125 -3.5zm-12.40625 -6.109375l12.453125 0q-0.25 -2.8125 -1.421875 -4.21875q-1.8125 -2.171875 -4.6875 -2.171875q-2.609375 0 -4.390625 1.75q-1.765625 1.734375 -1.953125 4.640625zm28.801498 8.328125l0 -8.453125l-8.375 0l0 -3.515625l8.375 0l0 -8.390625l3.578125 0l0 8.390625l8.375 0l0 3.515625l-8.375 0l0 8.453125l-3.578125 0zm25.238708 1.59375l0.53125 3.328125q-1.59375 0.34375 -2.84375 0.34375q-2.0625 0 -3.203125 -0.65625q-1.125 -0.65625 -1.59375 -1.703125q-0.453125 -1.0625 -0.453125 -4.46875l0 -12.828125l-2.78125 0l0 -2.9375l2.78125 0l0 -5.515625l3.75 -2.28125l0 7.796875l3.8125 0l0 2.9375l-3.8125 0l0 13.046875q0 1.609375 0.203125 2.078125q0.203125 0.453125 0.65625 0.734375q0.453125 0.265625 1.28125 0.265625q0.640625 0 1.671875 -0.140625zm18.148163 0.625q-2.109375 1.78125 -4.046875 2.515625q-1.9375 0.734375 -4.171875 0.734375q-3.671875 0 -5.65625 -1.796875q-1.96875 -1.796875 -1.96875 -4.578125q0 -1.640625 0.75 -2.984375q0.75 -1.359375 1.953125 -2.171875q1.203125 -0.828125 2.71875 -1.25q1.109375 -0.296875 3.359375 -0.5625q4.578125 -0.546875 6.734375 -1.3125q0.03125 -0.765625 0.03125 -0.984375q0 -2.3125 -1.078125 -3.25q-1.4375 -1.28125 -4.296875 -1.28125q-2.671875 0 -3.9375 0.9375q-1.265625 0.921875 -1.875 3.296875l-3.703125 -0.5q0.5 -2.375 1.65625 -3.828125q1.15625 -1.46875 3.34375 -2.25q2.1875 -0.78125 5.0625 -0.78125q2.859375 0 4.640625 0.671875q1.78125 0.671875 2.609375 1.6875q0.84375 1.015625 1.1875 2.5625q0.1875 0.96875 0.1875 3.5l0 5.03125q0 5.265625 0.234375 6.671875q0.25 1.390625 0.96875 2.671875l-3.953125 0q-0.59375 -1.171875 -0.75 -2.75zm-0.328125 -8.4375q-2.046875 0.84375 -6.171875 1.421875q-2.328125 0.34375 -3.296875 0.765625q-0.953125 0.40625 -1.484375 1.21875q-0.53125 0.8125 -0.53125 1.796875q0 1.515625 1.140625 2.53125q1.15625 1.0 3.359375 1.0q2.1875 0 3.875 -0.953125q1.703125 -0.96875 2.515625 -2.625q0.59375 -1.28125 0.59375 -3.78125l0 -1.375zm6.973358 11.1875l8.15625 -11.59375l-7.546875 -10.703125l4.71875 0l3.4375 5.234375q0.953125 1.484375 1.546875 2.484375q0.921875 -1.375 1.703125 -2.453125l3.75 -5.265625l4.515625 0l-7.703125 10.5l8.296875 11.796875l-4.640625 0l-4.578125 -6.921875l-1.21875 -1.875l-5.859375 8.796875l-4.578125 0zm24.84375 -18.0l0 -4.296875l4.296875 0l0 4.296875l-4.296875 0zm0 18.0l0 -4.296875l4.296875 0l0 4.296875q0 2.375 -0.84375 3.828125q-0.828125 1.46875 -2.65625 2.265625l-1.0625 -1.625q1.203125 -0.515625 1.765625 -1.546875q0.578125 -1.015625 0.640625 -2.921875l-2.140625 0z" fill-rule="nonzero"></path><path stroke="#000000" stroke-width="3.0" stroke-linecap="butt" d="m24.333334 270.5013l0 52.997375" fill-rule="nonzero"></path><path stroke="#000000" stroke-width="1.3333333333333333" stroke-linecap="butt" d="m115.16535 270.5013l0 52.997375" fill-rule="nonzero"></path><path stroke="#000000" stroke-width="1.3333333333333333" stroke-linecap="butt" d="m149.16536 270.5013l0 52.997375" fill-rule="nonzero"></path><path stroke="#000000" stroke-width="1.3333333333333333" stroke-linecap="butt" d="m239.83202 270.5013l0 52.997375" fill-rule="nonzero"></path><path stroke="#000000" stroke-width="1.3333333333333333" stroke-linecap="butt" d="m273.99738 270.5013l0 52.997375" fill-rule="nonzero"></path><path stroke="#000000" stroke-width="1.3333333333333333" stroke-linecap="butt" d="m341.99738 270.5013l0 52.997375" fill-rule="nonzero"></path><path stroke="#000000" stroke-width="3.0" stroke-linecap="butt" d="m375.99738 270.5013l0 52.997375" fill-rule="nonzero"></path><path stroke="#000000" stroke-width="3.0" stroke-linecap="butt" d="m22.834646 272.0l354.6614 0" fill-rule="nonzero"></path><path stroke="#000000" stroke-width="3.0" stroke-linecap="butt" d="m22.834646 322.0l354.6614 0" fill-rule="nonzero"></path><path fill="#000000" d="m39.262882 307.16l0 -17.25l-6.15625 0l0 -3.515625l16.5 0l0 3.515625l-6.15625 0l0 17.25l-4.1875 0zm12.289795 -7.734375q0 -1.984375 0.96875 -3.828125q0.984375 -1.859375 2.78125 -2.828125q1.796875 -0.984375 4.0 -0.984375q3.40625 0 5.593754 2.21875q2.1875 2.203125 2.1875 5.59375q0 3.40625 -2.203125 5.65625q-2.2031288 2.25 -5.546879 2.25q-2.0625 0 -3.953125 -0.9375q-1.875 -0.9375 -2.859375 -2.734375q-0.96875 -1.8125 -0.96875 -4.40625zm4.078125 0.21875q0 2.234375 1.0625 3.421875q1.0625 1.1875 2.625 1.1875q1.5625 0 2.609375 -1.1875q1.0625 -1.1875 1.0625 -3.453125q0 -2.203125 -1.0625 -3.390625q-1.046875 -1.203125 -2.609375 -1.203125q-1.5625 0 -2.625 1.203125q-1.0625 1.1875 -1.0625 3.421875zm21.664799 -7.515625l0 3.171875l-2.71875 0l0 6.046875q0 1.84375 0.078125 2.15625q0.078125 0.296875 0.34375 0.5q0.28125 0.203125 0.671875 0.203125q0.5625 0 1.609375 -0.390625l0.328125 3.09375q-1.375 0.59375 -3.140625 0.59375q-1.078125 0 -1.9375 -0.359375q-0.859375 -0.359375 -1.265625 -0.9375q-0.40625 -0.578125 -0.5625 -1.546875q-0.125 -0.703125 -0.125 -2.8125l0 -6.546875l-1.828125 0l0 -3.171875l1.828125 0l0 -3.0l4.0 -2.3125l0 5.3125l2.71875 0zm5.8446198 4.578125l-3.625 -0.65625q0.609375 -2.171875 2.09375 -3.21875q1.5 -1.046875 4.421875 -1.046875q2.671875 0 3.96875 0.625q1.296875 0.625 1.828125 1.609375q0.53125 0.96875 0.53125 3.546875l-0.03125 4.65625q0 1.984375 0.1875 2.921875q0.1875 0.9375 0.71875 2.015625l-3.9375 0q-0.15625 -0.390625 -0.390625 -1.171875q-0.09375 -0.359375 -0.140625 -0.46875q-1.015625 0.984375 -2.1875 1.484375q-1.15625 0.5 -2.46875 0.5q-2.328125 0 -3.671875 -1.265625q-1.328125 -1.265625 -1.328125 -3.1875q0 -1.265625 0.609375 -2.265625q0.609375 -1.0 1.703125 -1.53125q1.109375 -0.53125 3.171875 -0.9375q2.78125 -0.515625 3.859375 -0.96875l0 -0.390625q0 -1.15625 -0.5625 -1.640625q-0.5625 -0.484375 -2.140625 -0.484375q-1.0625 0 -1.65625 0.421875q-0.59375 0.40625 -0.953125 1.453125zm5.3125 3.234375q-0.765625 0.25 -2.421875 0.609375q-1.65625 0.34375 -2.15625 0.6875q-0.78125 0.5625 -0.78125 1.40625q0 0.828125 0.625 1.4375q0.625 0.609375 1.578125 0.609375q1.078125 0 2.0625 -0.703125q0.71875 -0.53125 0.9375 -1.3125q0.15625 -0.515625 0.15625 -1.9375l0 -0.796875zm8.014038 7.21875l0 -20.765625l3.984375 0l0 20.765625l-3.984375 0z" fill-rule="nonzero"></path><path fill="#000000" d="m124.51678 295.5975l0 -3.640625l14.515633 0l0 3.640625l-14.515633 0zm0 6.296875l0 -3.671875l14.515633 0l0 3.671875l-14.515633 0z" fill-rule="nonzero"></path><path fill="#000000" d="m159.28241 292.12875l3.703125 0l0 2.203125q0.734375 -1.140625 1.953125 -1.84375q1.234375 -0.703125 2.734375 -0.703125q2.625 0 4.453125 2.0625q1.828125 2.046875 1.828125 5.703125q0 3.765625 -1.84375 5.859375q-1.84375 2.09375 -4.453125 2.09375q-1.25 0 -2.265625 -0.5q-1.015625 -0.5 -2.125 -1.703125l0 7.578125l-3.984375 0l0 -20.75zm3.9375 7.25q0 2.546875 1.0 3.765625q1.015625 1.203125 2.453125 1.203125q1.390625 0 2.3125 -1.109375q0.921875 -1.125 0.921875 -3.65625q0 -2.359375 -0.953125 -3.5q-0.953125 -1.15625 -2.34375 -1.15625q-1.46875 0 -2.4375 1.125q-0.953125 1.125 -0.953125 3.328125zm17.89917 7.78125l-3.984375 0l0 -15.03125l3.703125 0l0 2.125q0.953125 -1.515625 1.703125 -1.984375q0.765625 -0.484375 1.71875 -0.484375q1.359375 0 2.625 0.75l-1.234375 3.46875q-1.0 -0.65625 -1.875 -0.65625q-0.828125 0 -1.40625 0.46875q-0.578125 0.453125 -0.921875 1.65625q-0.328125 1.203125 -0.328125 5.046875l0 4.640625zm7.6008453 -17.078125l0 -3.6875l3.984375 0l0 3.6875l-3.984375 0zm0 17.078125l0 -15.03125l3.984375 0l0 15.03125l-3.984375 0zm21.257675 -10.59375l-3.921875 0.703125q-0.1875 -1.171875 -0.890625 -1.765625q-0.703125 -0.59375 -1.828125 -0.59375q-1.484375 0 -2.375 1.03125q-0.875 1.015625 -0.875 3.4375q0 2.671875 0.890625 3.78125q0.90625 1.09375 2.421875 1.09375q1.140625 0 1.859375 -0.640625q0.71875 -0.640625 1.015625 -2.21875l3.90625 0.671875q-0.609375 2.6875 -2.34375 4.0625q-1.71875 1.375 -4.625 1.375q-3.296875 0 -5.265625 -2.078125q-1.953125 -2.09375 -1.953125 -5.765625q0 -3.734375 1.96875 -5.796875q1.96875 -2.078125 5.328125 -2.078125q2.75 0 4.359375 1.1875q1.625 1.171875 2.328125 3.59375zm11.920288 5.8125l3.953125 0.65625q-0.765625 2.1875 -2.421875 3.328125q-1.640625 1.140625 -4.109375 1.140625q-3.921875 0 -5.8125 -2.5625q-1.484375 -2.0625 -1.484375 -5.1875q0 -3.734375 1.953125 -5.84375q1.953125 -2.125 4.9375 -2.125q3.359375 0 5.296875 2.21875q1.9375 2.203125 1.859375 6.78125l-9.96875 0q0.046875 1.765625 0.953125 2.75q0.921875 0.984375 2.296875 0.984375q0.9375 0 1.578125 -0.5q0.640625 -0.515625 0.96875 -1.640625zm0.21875 -4.03125q-0.046875 -1.71875 -0.890625 -2.609375q-0.84375 -0.90625 -2.0625 -0.90625q-1.3125 0 -2.15625 0.9375q-0.84375 0.953125 -0.84375 2.578125l5.953125 0z" fill-rule="nonzero"></path><path fill="#000000" d="m254.62094 304.17563l0 -5.40625l-5.4375 0l0 -3.71875l5.4375 0l0 -5.390625l3.625 0l0 5.390625l5.453125 0l0 3.71875l-5.453125 0l0 5.40625l-3.625 0z" fill-rule="nonzero"></path><path fill="#000000" d="m291.13004 292.12875l0 3.171875l-2.71875 0l0 6.046875q0 1.84375 0.078125 2.15625q0.078125 0.296875 0.34375 0.5q0.28125 0.203125 0.671875 0.203125q0.5625 0 1.609375 -0.390625l0.328125 3.09375q-1.375 0.59375 -3.140625 0.59375q-1.078125 0 -1.9375 -0.359375q-0.859375 -0.359375 -1.265625 -0.9375q-0.40625 -0.578125 -0.5625 -1.546875q-0.125 -0.703125 -0.125 -2.8125l0 -6.546875l-1.828125 0l0 -3.171875l1.828125 0l0 -3.0l4.0 -2.3125l0 5.3125l2.71875 0zm5.844635 4.578125l-3.625 -0.65625q0.609375 -2.171875 2.09375 -3.21875q1.5 -1.046875 4.421875 -1.046875q2.671875 0 3.96875 0.625q1.296875 0.625 1.828125 1.609375q0.53125 0.96875 0.53125 3.546875l-0.03125 4.65625q0 1.984375 0.1875 2.921875q0.1875 0.9375 0.71875 2.015625l-3.9375 0q-0.15625 -0.390625 -0.390625 -1.171875q-0.09375 -0.359375 -0.140625 -0.46875q-1.015625 0.984375 -2.1875 1.484375q-1.15625 0.5 -2.46875 0.5q-2.328125 0 -3.671875 -1.265625q-1.328125 -1.265625 -1.328125 -3.1875q0 -1.265625 0.609375 -2.265625q0.609375 -1.0 1.703125 -1.53125q1.109375 -0.53125 3.171875 -0.9375q2.78125 -0.515625 3.859375 -0.96875l0 -0.390625q0 -1.15625 -0.5625 -1.640625q-0.5625 -0.484375 -2.140625 -0.484375q-1.0625 0 -1.65625 0.421875q-0.59375 0.40625 -0.953125 1.453125zm5.3125 3.234375q-0.765625 0.25 -2.421875 0.609375q-1.65625 0.34375 -2.15625 0.6875q-0.78125 0.5625 -0.78125 1.40625q0 0.828125 0.625 1.4375q0.625 0.609375 1.578125 0.609375q1.078125 0 2.0625 -0.703125q0.71875 -0.53125 0.9375 -1.3125q0.15625 -0.515625 0.15625 -1.9375l0 -0.796875zm6.107788 7.21875l5.421875 -7.75l-5.203125 -7.28125l4.859375 0l2.671875 4.125l2.796875 -4.125l4.671875 0l-5.09375 7.109375l5.5625 7.921875l-4.890625 0l-3.046875 -4.65625l-3.09375 4.65625l-4.65625 0z" fill-rule="nonzero"></path><path fill="#000000" d="m352.88004 296.0975l0 -3.96875l3.984375 0l0 3.96875l-3.984375 0zm0 7.078125l3.984375 0l0 2.84375q0 1.734375 -0.296875 2.734375q-0.296875 1.0 -1.140625 1.78125q-0.828125 0.796875 -2.09375 1.25l-0.78125 -1.640625q1.203125 -0.390625 1.703125 -1.109375q0.515625 -0.703125 0.546875 -1.875l-1.921875 0l0 -3.984375z" fill-rule="nonzero"></path><path fill="#fc0128" d="m544.0 160.0l192.0 0l0 80.0l-192.0 0z" fill-rule="nonzero"></path><path stroke="#000000" stroke-width="2.0" stroke-miterlimit="8.0" stroke-linecap="butt" d="m544.0 160.0l192.0 0l0 80.0l-192.0 0z" fill-rule="nonzero"></path><path fill="#000000" d="m555.7207 208.54001l0 -17.1875l2.265625 0l0 15.15625l8.46875 0l0 2.03125l-10.734375 0zm21.691406 -4.015625l2.171875 0.28125q-0.515625 1.90625 -1.90625 2.96875q-1.390625 1.046875 -3.5625 1.046875q-2.734375 0 -4.34375 -1.671875q-1.59375 -1.6875 -1.59375 -4.734375q0 -3.140625 1.609375 -4.875q1.625 -1.734375 4.203125 -1.734375q2.5 0 4.078125 1.703125q1.59375 1.703125 1.59375 4.78125q0 0.1875 -0.015625 0.5625l-9.28125 0q0.109375 2.046875 1.15625 3.140625q1.046875 1.09375 2.609375 1.09375q1.15625 0 1.96875 -0.609375q0.828125 -0.609375 1.3125 -1.953125zm-6.9375 -3.40625l6.953125 0q-0.140625 -1.5625 -0.796875 -2.359375q-1.0 -1.21875 -2.609375 -1.21875q-1.453125 0 -2.453125 0.984375q-0.984375 0.96875 -1.09375 2.59375zm10.347656 7.421875l4.546875 -6.46875l-4.203125 -5.984375l2.640625 0l1.90625 2.921875q0.546875 0.828125 0.875 1.390625q0.515625 -0.765625 0.9375 -1.359375l2.109375 -2.953125l2.515625 0l-4.296875 5.859375l4.625 6.59375l-2.59375 0l-2.546875 -3.875l-0.6875 -1.03125l-3.265625 4.90625l-2.5625 0zm13.421875 -14.75l0 -2.4375l2.109375 0l0 2.4375l-2.109375 0zm0 14.75l0 -12.453125l2.109375 0l0 12.453125l-2.109375 0zm13.441406 -4.5625l2.078125 0.265625q-0.34375 2.15625 -1.75 3.375q-1.390625 1.203125 -3.4375 1.203125q-2.546875 0 -4.109375 -1.671875q-1.546875 -1.671875 -1.546875 -4.78125q0 -2.015625 0.671875 -3.53125q0.671875 -1.515625 2.03125 -2.265625q1.359375 -0.765625 2.96875 -0.765625q2.03125 0 3.3125 1.03125q1.296875 1.03125 1.65625 2.90625l-2.046875 0.328125q-0.296875 -1.265625 -1.046875 -1.890625q-0.734375 -0.640625 -1.796875 -0.640625q-1.59375 0 -2.59375 1.15625q-0.984375 1.140625 -0.984375 3.609375q0 2.5 0.953125 3.640625q0.96875 1.140625 2.515625 1.140625q1.234375 0 2.0625 -0.765625q0.84375 -0.765625 1.0625 -2.34375zm12.0 3.03125q-1.171875 0.984375 -2.265625 1.40625q-1.078125 0.40625 -2.3125 0.40625q-2.046875 0 -3.15625 -1.0q-1.09375 -1.0 -1.09375 -2.5625q0 -0.921875 0.40625 -1.671875q0.421875 -0.75 1.09375 -1.203125q0.671875 -0.46875 1.515625 -0.703125q0.625 -0.15625 1.875 -0.3125q2.5625 -0.3125 3.765625 -0.734375q0.015625 -0.421875 0.015625 -0.546875q0 -1.28125 -0.609375 -1.8125q-0.796875 -0.71875 -2.390625 -0.71875q-1.5 0 -2.203125 0.53125q-0.703125 0.515625 -1.046875 1.84375l-2.0625 -0.28125q0.28125 -1.328125 0.921875 -2.140625q0.640625 -0.8125 1.859375 -1.25q1.21875 -0.453125 2.828125 -0.453125q1.59375 0 2.59375 0.375q1.0 0.375 1.46875 0.953125q0.46875 0.5625 0.65625 1.4375q0.09375 0.53125 0.09375 1.9375l0 2.8125q0 2.9375 0.140625 3.71875q0.140625 0.78125 0.53125 1.5l-2.203125 0q-0.328125 -0.65625 -0.421875 -1.53125zm-0.171875 -4.71875q-1.15625 0.46875 -3.453125 0.796875q-1.296875 0.1875 -1.84375 0.421875q-0.53125 0.234375 -0.828125 0.6875q-0.28125 0.453125 -0.28125 1.0q0 0.84375 0.625 1.40625q0.640625 0.5625 1.875 0.5625q1.21875 0 2.171875 -0.53125q0.953125 -0.53125 1.390625 -1.453125q0.34375 -0.71875 0.34375 -2.109375l0 -0.78125zm5.3476562 6.25l0 -17.1875l2.109375 0l0 17.1875l-2.109375 0zm20.171875 -1.53125q-1.171875 0.984375 -2.265625 1.40625q-1.078125 0.40625 -2.3125 0.40625q-2.046875 0 -3.15625 -1.0q-1.09375 -1.0 -1.09375 -2.5625q0 -0.921875 0.40625 -1.671875q0.421875 -0.75 1.09375 -1.203125q0.671875 -0.46875 1.515625 -0.703125q0.625 -0.15625 1.875 -0.3125q2.5625 -0.3125 3.765625 -0.734375q0.015625 -0.421875 0.015625 -0.546875q0 -1.28125 -0.609375 -1.8125q-0.796875 -0.71875 -2.390625 -0.71875q-1.5 0 -2.203125 0.53125q-0.703125 0.515625 -1.046875 1.84375l-2.0625 -0.28125q0.28125 -1.328125 0.921875 -2.140625q0.640625 -0.8125 1.859375 -1.25q1.21875 -0.453125 2.828125 -0.453125q1.59375 0 2.59375 0.375q1.0 0.375 1.46875 0.953125q0.46875 0.5625 0.65625 1.4375q0.09375 0.53125 0.09375 1.9375l0 2.8125q0 2.9375 0.140625 3.71875q0.140625 0.78125 0.53125 1.5l-2.203125 0q-0.328125 -0.65625 -0.421875 -1.53125zm-0.171875 -4.71875q-1.15625 0.46875 -3.453125 0.796875q-1.296875 0.1875 -1.84375 0.421875q-0.53125 0.234375 -0.828125 0.6875q-0.28125 0.453125 -0.28125 1.0q0 0.84375 0.625 1.40625q0.640625 0.5625 1.875 0.5625q1.21875 0 2.171875 -0.53125q0.953125 -0.53125 1.390625 -1.453125q0.34375 -0.71875 0.34375 -2.109375l0 -0.78125zm5.3945312 6.25l0 -12.453125l1.90625 0l0 1.78125q1.375 -2.0625 3.953125 -2.0625q1.125 0 2.0625 0.40625q0.953125 0.40625 1.421875 1.0625q0.46875 0.65625 0.65625 1.5625q0.125 0.578125 0.125 2.046875l0 7.65625l-2.109375 0l0 -7.578125q0 -1.28125 -0.25 -1.921875q-0.25 -0.640625 -0.875 -1.015625q-0.625 -0.390625 -1.46875 -0.390625q-1.34375 0 -2.328125 0.859375q-0.984375 0.859375 -0.984375 3.25l0 6.796875l-2.109375 0zm21.472656 -1.53125q-1.171875 0.984375 -2.265625 1.40625q-1.078125 0.40625 -2.3125 0.40625q-2.046875 0 -3.15625 -1.0q-1.09375 -1.0 -1.09375 -2.5625q0 -0.921875 0.40625 -1.671875q0.421875 -0.75 1.09375 -1.203125q0.671875 -0.46875 1.515625 -0.703125q0.625 -0.15625 1.875 -0.3125q2.5625 -0.3125 3.765625 -0.734375q0.015625 -0.421875 0.015625 -0.546875q0 -1.28125 -0.609375 -1.8125q-0.796875 -0.71875 -2.390625 -0.71875q-1.5 0 -2.203125 0.53125q-0.703125 0.515625 -1.046875 1.84375l-2.0625 -0.28125q0.28125 -1.328125 0.921875 -2.140625q0.640625 -0.8125 1.859375 -1.25q1.21875 -0.453125 2.828125 -0.453125q1.59375 0 2.59375 0.375q1.0 0.375 1.46875 0.953125q0.46875 0.5625 0.65625 1.4375q0.09375 0.53125 0.09375 1.9375l0 2.8125q0 2.9375 0.140625 3.71875q0.140625 0.78125 0.53125 1.5l-2.203125 0q-0.328125 -0.65625 -0.421875 -1.53125zm-0.171875 -4.71875q-1.15625 0.46875 -3.453125 0.796875q-1.296875 0.1875 -1.84375 0.421875q-0.53125 0.234375 -0.828125 0.6875q-0.28125 0.453125 -0.28125 1.0q0 0.84375 0.625 1.40625q0.640625 0.5625 1.875 0.5625q1.21875 0 2.171875 -0.53125q0.953125 -0.53125 1.390625 -1.453125q0.34375 -0.71875 0.34375 -2.109375l0 -0.78125zm5.3476562 6.25l0 -17.1875l2.109375 0l0 17.1875l-2.109375 0zm5.2851562 4.7968597l-0.234375 -1.9843597q0.703125 0.1875 1.21875 0.1875q0.703125 0 1.125 -0.234375q0.421875 -0.234375 0.6875 -0.65625q0.203125 -0.3125 0.640625 -1.5625q0.0625 -0.1875 0.1875 -0.515625l-4.71875 -12.484375l2.265625 0l2.59375 7.21875q0.5 1.359375 0.90625 2.875q0.359375 -1.453125 0.859375 -2.828125l2.671875 -7.265625l2.109375 0l-4.734375 12.671875q-0.765625 2.046875 -1.1875 2.8125q-0.5625 1.046875 -1.296875 1.53125q-0.71875 0.48435974 -1.734375 0.48435974q-0.609375 0 -1.359375 -0.25zm10.984375 -4.7968597l0 -1.71875l7.921875 -9.09375q-1.34375 0.078125 -2.375 0.078125l-5.078125 0l0 -1.71875l10.171875 0l0 1.40625l-6.734375 7.890625l-1.296875 1.4375q1.40625 -0.09375 2.65625 -0.09375l5.75 0l0 1.8125l-11.015625 0zm21.640625 -4.015625l2.171875 0.28125q-0.515625 1.90625 -1.90625 2.96875q-1.390625 1.046875 -3.5625 1.046875q-2.734375 0 -4.34375 -1.671875q-1.59375 -1.6875 -1.59375 -4.734375q0 -3.140625 1.609375 -4.875q1.625 -1.734375 4.203125 -1.734375q2.5 0 4.078125 1.703125q1.59375 1.703125 1.59375 4.78125q0 0.1875 -0.015625 0.5625l-9.28125 0q0.109375 2.046875 1.15625 3.140625q1.046875 1.09375 2.609375 1.09375q1.15625 0 1.96875 -0.609375q0.828125 -0.609375 1.3125 -1.953125zm-6.9375 -3.40625l6.953125 0q-0.140625 -1.5625 -0.796875 -2.359375q-1.0 -1.21875 -2.609375 -1.21875q-1.453125 0 -2.453125 0.984375q-0.984375 0.96875 -1.09375 2.59375zm11.738281 7.421875l0 -12.453125l1.890625 0l0 1.890625q0.734375 -1.328125 1.34375 -1.75q0.625 -0.421875 1.359375 -0.421875q1.0625 0 2.171875 0.6875l-0.734375 1.953125q-0.765625 -0.453125 -1.546875 -0.453125q-0.6875 0 -1.25 0.421875q-0.546875 0.40625 -0.78125 1.140625q-0.34375 1.125 -0.34375 2.46875l0 6.515625l-2.109375 0z" fill-rule="nonzero"></path><path fill="#fc0128" d="m536.0 360.0l192.0 0l0 80.0l-192.0 0z" fill-rule="nonzero"></path><path stroke="#000000" stroke-width="2.0" stroke-miterlimit="8.0" stroke-linecap="butt" d="m536.0 360.0l192.0 0l0 80.0l-192.0 0z" fill-rule="nonzero"></path><path fill="#000000" d="m598.5156 408.54l0 -17.1875l6.46875 0q1.71875 0 2.625 0.171875q1.265625 0.203125 2.109375 0.796875q0.859375 0.59375 1.375 1.671875q0.53125 1.0625 0.53125 2.328125q0 2.203125 -1.40625 3.71875q-1.390625 1.515625 -5.03125 1.515625l-4.40625 0l0 6.984375l-2.265625 0zm2.265625 -9.015625l4.4375 0q2.203125 0 3.125 -0.8125q0.9375 -0.828125 0.9375 -2.3125q0 -1.078125 -0.546875 -1.84375q-0.546875 -0.765625 -1.4375 -1.015625q-0.578125 -0.15625 -2.125 -0.15625l-4.390625 0l0 6.140625zm21.585938 7.484375q-1.171875 0.984375 -2.265625 1.40625q-1.078125 0.40625 -2.3125 0.40625q-2.046875 0 -3.15625 -1.0q-1.09375 -1.0 -1.09375 -2.5625q0 -0.921875 0.40625 -1.671875q0.421875 -0.75 1.09375 -1.203125q0.671875 -0.46875 1.515625 -0.703125q0.625 -0.15625 1.875 -0.3125q2.5625 -0.3125 3.765625 -0.734375q0.015625 -0.421875 0.015625 -0.546875q0 -1.28125 -0.609375 -1.8125q-0.796875 -0.71875 -2.390625 -0.71875q-1.5 0 -2.203125 0.53125q-0.703125 0.515625 -1.046875 1.84375l-2.0625 -0.28125q0.28125 -1.328125 0.921875 -2.140625q0.640625 -0.8125 1.859375 -1.25q1.21875 -0.453125 2.828125 -0.453125q1.59375 0 2.59375 0.375q1.0 0.375 1.46875 0.953125q0.46875 0.5625 0.65625 1.4375q0.09375 0.53125 0.09375 1.9375l0 2.8125q0 2.9375 0.140625 3.71875q0.140625 0.78125 0.53125 1.5l-2.203125 0q-0.328125 -0.65625 -0.421875 -1.53125zm-0.171875 -4.71875q-1.15625 0.46875 -3.453125 0.796875q-1.296875 0.1875 -1.84375 0.421875q-0.53125 0.234375 -0.828125 0.6875q-0.28125 0.453125 -0.28125 1.0q0 0.84375 0.625 1.40625q0.640625 0.5625 1.875 0.5625q1.21875 0 2.171875 -0.53125q0.953125 -0.53125 1.390625 -1.453125q0.34375 -0.71875 0.34375 -2.109375l0 -0.78125zm5.3789062 6.25l0 -12.453125l1.890625 0l0 1.890625q0.734375 -1.328125 1.34375 -1.75q0.625 -0.421875 1.359375 -0.421875q1.0625 0 2.171875 0.6875l-0.734375 1.953125q-0.765625 -0.453125 -1.546875 -0.453125q-0.6875 0 -1.25 0.421875q-0.546875 0.40625 -0.78125 1.140625q-0.34375 1.125 -0.34375 2.46875l0 6.515625l-2.109375 0zm7.1640625 -3.71875l2.09375 -0.328125q0.171875 1.25 0.96875 1.921875q0.8125 0.671875 2.25 0.671875q1.453125 0 2.15625 -0.59375q0.703125 -0.59375 0.703125 -1.390625q0 -0.71875 -0.625 -1.125q-0.421875 -0.28125 -2.15625 -0.71875q-2.3125 -0.578125 -3.21875 -1.0q-0.890625 -0.4375 -1.359375 -1.1875q-0.453125 -0.765625 -0.453125 -1.671875q0 -0.828125 0.375 -1.53125q0.390625 -0.71875 1.046875 -1.1875q0.484375 -0.359375 1.328125 -0.609375q0.859375 -0.265625 1.828125 -0.265625q1.46875 0 2.578125 0.421875q1.109375 0.421875 1.625 1.15625q0.53125 0.71875 0.734375 1.921875l-2.0625 0.28125q-0.140625 -0.96875 -0.8125 -1.5q-0.671875 -0.546875 -1.90625 -0.546875q-1.453125 0 -2.078125 0.484375q-0.625 0.484375 -0.625 1.125q0 0.40625 0.265625 0.734375q0.25 0.34375 0.8125 0.5625q0.3125 0.125 1.859375 0.546875q2.234375 0.59375 3.109375 0.984375q0.890625 0.375 1.390625 1.109375q0.515625 0.71875 0.515625 1.796875q0 1.046875 -0.625 1.984375q-0.609375 0.9375 -1.765625 1.453125q-1.15625 0.5 -2.625 0.5q-2.421875 0 -3.703125 -1.0q-1.265625 -1.015625 -1.625 -3.0zm21.375 -0.296875l2.171875 0.28125q-0.515625 1.90625 -1.90625 2.96875q-1.390625 1.046875 -3.5625 1.046875q-2.734375 0 -4.34375 -1.671875q-1.59375 -1.6875 -1.59375 -4.734375q0 -3.140625 1.609375 -4.875q1.625 -1.734375 4.203125 -1.734375q2.5 0 4.078125 1.703125q1.59375 1.703125 1.59375 4.78125q0 0.1875 -0.015625 0.5625l-9.28125 0q0.109375 2.046875 1.15625 3.140625q1.046875 1.09375 2.609375 1.09375q1.15625 0 1.96875 -0.609375q0.828125 -0.609375 1.3125 -1.953125zm-6.9375 -3.40625l6.953125 0q-0.140625 -1.5625 -0.796875 -2.359375q-1.0 -1.21875 -2.609375 -1.21875q-1.453125 0 -2.453125 0.984375q-0.984375 0.96875 -1.09375 2.59375zm11.738281 7.421875l0 -12.453125l1.890625 0l0 1.890625q0.734375 -1.328125 1.34375 -1.75q0.625 -0.421875 1.359375 -0.421875q1.0625 0 2.171875 0.6875l-0.734375 1.953125q-0.765625 -0.453125 -1.546875 -0.453125q-0.6875 0 -1.25 0.421875q-0.546875 0.40625 -0.78125 1.140625q-0.34375 1.125 -0.34375 2.46875l0 6.515625l-2.109375 0z" fill-rule="nonzero"></path><path fill="#000000" fill-opacity="0.0" d="m288.0 568.0l80.0 0l0 32.0l-80.0 0z" fill-rule="nonzero"></path><path fill="#000000" d="m298.29688 580.0606l2.421875 0l0 1.453125q0.46875 -0.734375 1.28125 -1.203125q0.8125 -0.46875 1.796875 -0.46875q1.703125 0 2.90625 1.34375q1.203125 1.34375 1.203125 3.75q0 2.46875 -1.21875 3.84375q-1.203125 1.359375 -2.921875 1.359375q-0.8125 0 -1.484375 -0.3125q-0.65625 -0.328125 -1.390625 -1.125l0 4.96875l-2.59375 0l0 -13.609375zm2.578125 4.765625q0 1.65625 0.65625 2.453125q0.65625 0.796875 1.59375 0.796875q0.921875 0 1.515625 -0.71875q0.609375 -0.734375 0.609375 -2.40625q0 -1.546875 -0.625 -2.296875q-0.625 -0.75 -1.53125 -0.75q-0.96875 0 -1.59375 0.734375q-0.625 0.734375 -0.625 2.1875zm11.380371 5.09375l-2.609375 0l0 -9.859375l2.421875 0l0 1.40625q0.625 -0.984375 1.109375 -1.296875q0.5 -0.328125 1.140625 -0.328125q0.890625 0 1.71875 0.5l-0.8125 2.265625q-0.65625 -0.421875 -1.21875 -0.421875q-0.546875 0 -0.9375 0.296875q-0.375 0.296875 -0.59375 1.09375q-0.21875 0.78125 -0.21875 3.296875l0 3.046875zm4.760254 -11.1875l0 -2.40625l2.609375 0l0 2.40625l-2.609375 0zm0 11.1875l0 -9.859375l2.609375 0l0 9.859375l-2.609375 0zm13.777039 -6.9375l-2.5625 0.46875q-0.140625 -0.78125 -0.59375 -1.171875q-0.453125 -0.390625 -1.1875 -0.390625q-0.984375 0 -1.5625 0.671875q-0.578125 0.671875 -0.578125 2.25q0 1.765625 0.578125 2.484375q0.59375 0.71875 1.59375 0.71875q0.75 0 1.21875 -0.421875q0.46875 -0.421875 0.671875 -1.453125l2.546875 0.4375q-0.390625 1.765625 -1.53125 2.671875q-1.125 0.890625 -3.03125 0.890625q-2.15625 0 -3.453125 -1.359375q-1.28125 -1.359375 -1.28125 -3.78125q0 -2.4375 1.296875 -3.796875q1.296875 -1.359375 3.484375 -1.359375q1.796875 0 2.859375 0.78125q1.0625 0.765625 1.53125 2.359375zm7.4851074 3.796875l2.609375 0.4375q-0.5 1.4375 -1.59375 2.1875q-1.078125 0.734375 -2.703125 0.734375q-2.5625 0 -3.796875 -1.671875q-0.96875 -1.34375 -0.96875 -3.40625q0 -2.4375 1.265625 -3.828125q1.28125 -1.390625 3.25 -1.390625q2.1875 0 3.453125 1.453125q1.28125 1.453125 1.234375 4.453125l-6.53125 0q0.015625 1.15625 0.625 1.8125q0.609375 0.640625 1.5 0.640625q0.609375 0 1.03125 -0.328125q0.421875 -0.34375 0.625 -1.09375zm0.15625 -2.625q-0.03125 -1.140625 -0.59375 -1.71875q-0.546875 -0.59375 -1.34375 -0.59375q-0.859375 0 -1.40625 0.625q-0.5625 0.609375 -0.546875 1.6875l3.890625 0z" fill-rule="nonzero"></path><path fill="#000000" fill-opacity="0.0" d="m296.0 504.0l176.0 0l0 32.0l-176.0 0z" fill-rule="nonzero"></path><path fill="#000000" d="m306.35938 514.7325l0 -2.40625l2.609375 0l0 2.40625l-2.609375 0zm0 11.1875l0 -9.859375l2.609375 0l0 9.859375l-2.609375 0zm14.230164 0l-2.421875 0l0 -1.453125q-0.609375 0.84375 -1.4375 1.265625q-0.8125 0.40625 -1.640625 0.40625q-1.703125 0 -2.921875 -1.359375q-1.203125 -1.375 -1.203125 -3.828125q0 -2.5 1.171875 -3.796875q1.1875 -1.3125 2.984375 -1.3125q1.65625 0 2.859375 1.375l0 -4.890625l2.609375 0l0 13.59375zm-6.96875 -5.140625q0 1.578125 0.4375 2.28125q0.640625 1.015625 1.765625 1.015625q0.90625 0 1.53125 -0.765625q0.625 -0.765625 0.625 -2.28125q0 -1.703125 -0.609375 -2.4375q-0.609375 -0.75 -1.5625 -0.75q-0.9375 0 -1.5625 0.734375q-0.625 0.734375 -0.625 2.203125zm43.40207 3.1875l0 -3.546875l-3.5625 0l0 -2.4375l3.5625 0l0 -3.53125l2.375 0l0 3.53125l3.578125 0l0 2.4375l-3.578125 0l0 3.546875l-2.375 0zm49.377014 -9.234375l0 -2.40625l2.609375 0l0 2.40625l-2.609375 0zm0 11.1875l0 -9.859375l2.609375 0l0 9.859375l-2.609375 0zm14.230194 0l-2.421875 0l0 -1.453125q-0.609375 0.84375 -1.4375 1.265625q-0.8125 0.40625 -1.640625 0.40625q-1.703125 0 -2.921875 -1.359375q-1.203125 -1.375 -1.203125 -3.828125q0 -2.5 1.171875 -3.796875q1.1875 -1.3125 2.984375 -1.3125q1.65625 0 2.859375 1.375l0 -4.890625l2.609375 0l0 13.59375zm-6.96875 -5.140625q0 1.578125 0.4375 2.28125q0.640625 1.015625 1.765625 1.015625q0.90625 0 1.53125 -0.765625q0.625 -0.765625 0.625 -2.28125q0 -1.703125 -0.609375 -2.4375q-0.609375 -0.75 -1.5625 -0.75q-0.9375 0 -1.5625 0.734375q-0.625 0.734375 -0.625 2.203125z" fill-rule="nonzero"></path><path fill="#000000" fill-opacity="0.0" d="m320.0 448.0l104.0 0l0 24.0l-104.0 0z" fill-rule="nonzero"></path><path fill="#000000" d="m351.10822 469.91998l0 -13.59375l10.09375 0l0 2.296875l-7.34375 0l0 3.015625l6.828125 0l0 2.28125l-6.828125 0l0 3.703125l7.609375 0l0 2.296875l-10.359375 0zm11.177948 0l3.5625 -5.078125l-3.40625 -4.78125l3.171875 0l1.75 2.71875l1.828125 -2.71875l3.0625 0l-3.328125 4.671875l3.640625 5.1875l-3.203125 0l-2.0 -3.046875l-2.03125 3.046875l-3.046875 0zm11.563202 -9.859375l2.421875 0l0 1.453125q0.46875 -0.734375 1.28125 -1.203125q0.8125 -0.46875 1.796875 -0.46875q1.703125 0 2.90625 1.34375q1.203125 1.34375 1.203125 3.75q0 2.46875 -1.21875 3.84375q-1.203125 1.359375 -2.921875 1.359375q-0.8125 0 -1.484375 -0.3125q-0.65625 -0.328125 -1.390625 -1.125l0 4.96875l-2.59375 0l0 -13.609375zm2.578125 4.765625q0 1.65625 0.65625 2.453125q0.65625 0.796875 1.59375 0.796875q0.921875 0 1.515625 -0.71875q0.609375 -0.734375 0.609375 -2.40625q0 -1.546875 -0.625 -2.296875q-0.625 -0.75 -1.53125 -0.75q-0.96875 0 -1.59375 0.734375q-0.625 0.734375 -0.625 2.1875zm11.380371 5.09375l-2.609375 0l0 -9.859375l2.421875 0l0 1.40625q0.625 -0.984375 1.109375 -1.296875q0.5 -0.328125 1.140625 -0.328125q0.890625 0 1.71875 0.5l-0.8125 2.265625q-0.65625 -0.421875 -1.21875 -0.421875q-0.546875 0 -0.9375 0.296875q-0.375 0.296875 -0.59375 1.09375q-0.21875 0.78125 -0.21875 3.296875l0 3.046875z" fill-rule="nonzero"></path><path fill="#000000" fill-opacity="0.0" d="m200.0 376.0l160.0 0l0 24.0l-160.0 0z" fill-rule="nonzero"></path><path fill="#000000" d="m233.04572 391.07623l-2.359375 -0.4375q0.390625 -1.421875 1.359375 -2.109375q0.984375 -0.6875 2.90625 -0.6875q1.734375 0 2.59375 0.421875q0.859375 0.40625 1.203125 1.046875q0.34375 0.625 0.34375 2.328125l-0.03125 3.046875q0 1.296875 0.125 1.921875q0.125 0.609375 0.46875 1.3125l-2.578125 0q-0.09375 -0.265625 -0.25 -0.765625q-0.0625 -0.234375 -0.09375 -0.3125q-0.65625 0.65625 -1.421875 0.984375q-0.765625 0.3125 -1.625 0.3125q-1.515625 0 -2.40625 -0.8125q-0.875 -0.828125 -0.875 -2.09375q0 -0.84375 0.390625 -1.484375q0.40625 -0.65625 1.125 -1.0q0.71875 -0.359375 2.078125 -0.625q1.828125 -0.328125 2.53125 -0.625l0 -0.265625q0 -0.75 -0.375 -1.0625q-0.359375 -0.328125 -1.390625 -0.328125q-0.703125 0 -1.09375 0.28125q-0.390625 0.265625 -0.625 0.953125zm3.484375 2.109375q-0.5 0.171875 -1.59375 0.40625q-1.078125 0.234375 -1.40625 0.453125q-0.515625 0.359375 -0.515625 0.921875q0 0.546875 0.40625 0.953125q0.40625 0.390625 1.046875 0.390625q0.703125 0 1.34375 -0.46875q0.46875 -0.359375 0.625 -0.859375q0.09375 -0.34375 0.09375 -1.28125l0 -0.515625zm4.031967 1.921875l2.609375 -0.390625q0.171875 0.75 0.671875 1.15625q0.515625 0.390625 1.4375 0.390625q1.0 0 1.515625 -0.375q0.34375 -0.265625 0.34375 -0.703125q0 -0.296875 -0.1875 -0.484375q-0.1875 -0.1875 -0.875 -0.34375q-3.140625 -0.703125 -4.0 -1.265625q-1.15625 -0.796875 -1.15625 -2.21875q0 -1.28125 1.0 -2.15625q1.015625 -0.875 3.140625 -0.875q2.03125 0 3.0 0.65625q0.984375 0.65625 1.359375 1.953125l-2.453125 0.453125q-0.15625 -0.578125 -0.609375 -0.875q-0.4375 -0.3125 -1.25 -0.3125q-1.03125 0 -1.46875 0.296875q-0.296875 0.203125 -0.296875 0.515625q0 0.28125 0.25 0.484375q0.359375 0.25 2.4375 0.734375q2.078125 0.46875 2.90625 1.15625q0.828125 0.6875 0.828125 1.9375q0 1.359375 -1.140625 2.328125q-1.125 0.96875 -3.34375 0.96875q-2.015625 0 -3.1875 -0.8125q-1.171875 -0.8125 -1.53125 -2.21875zm10.375717 0l2.609375 -0.390625q0.171875 0.75 0.671875 1.15625q0.515625 0.390625 1.4375 0.390625q1.0 0 1.515625 -0.375q0.34375 -0.265625 0.34375 -0.703125q0 -0.296875 -0.1875 -0.484375q-0.1875 -0.1875 -0.875 -0.34375q-3.140625 -0.703125 -4.0 -1.265625q-1.15625 -0.796875 -1.15625 -2.21875q0 -1.28125 1.0 -2.15625q1.015625 -0.875 3.140625 -0.875q2.03125 0 3.0 0.65625q0.984375 0.65625 1.359375 1.953125l-2.453125 0.453125q-0.15625 -0.578125 -0.609375 -0.875q-0.4375 -0.3125 -1.25 -0.3125q-1.03125 0 -1.46875 0.296875q-0.296875 0.203125 -0.296875 0.515625q0 0.28125 0.25 0.484375q0.359375 0.25 2.4375 0.734375q2.078125 0.46875 2.90625 1.15625q0.828125 0.6875 0.828125 1.9375q0 1.359375 -1.140625 2.328125q-1.125 0.96875 -3.34375 0.96875q-2.015625 0 -3.1875 -0.8125q-1.171875 -0.8125 -1.53125 -2.21875zm11.281952 -8.375l0 -2.40625l2.609375 0l0 2.40625l-2.609375 0zm0 11.1875l0 -9.859375l2.609375 0l0 9.859375l-2.609375 0zm4.948944 0.65625l2.96875 0.359375q0.078125 0.515625 0.34375 0.703125q0.375 0.28125 1.171875 0.28125q1.03125 0 1.53125 -0.296875q0.34375 -0.203125 0.515625 -0.65625q0.125 -0.328125 0.125 -1.203125l0 -1.4375q-1.171875 1.59375 -2.953125 1.59375q-1.984375 0 -3.140625 -1.671875q-0.90625 -1.328125 -0.90625 -3.3125q0 -2.46875 1.1875 -3.78125q1.1875 -1.3125 2.96875 -1.3125q1.828125 0 3.015625 1.609375l0 -1.390625l2.4375 0l0 8.84375q0 1.75 -0.296875 2.609375q-0.28125 0.859375 -0.796875 1.34375q-0.515625 0.5 -1.390625 0.78125q-0.859375 0.28125 -2.1875 0.28125q-2.515625 0 -3.5625 -0.859375q-1.046875 -0.859375 -1.046875 -2.171875q0 -0.140625 0.015625 -0.3125zm2.328125 -5.78125q0 1.5625 0.609375 2.296875q0.609375 0.71875 1.5 0.71875q0.953125 0 1.609375 -0.734375q0.65625 -0.75 0.65625 -2.21875q0 -1.53125 -0.640625 -2.265625q-0.625 -0.75 -1.578125 -0.75q-0.9375 0 -1.546875 0.734375q-0.609375 0.71875 -0.609375 2.21875zm18.270966 5.125l-2.609375 0l0 -5.03125q0 -1.59375 -0.171875 -2.0625q-0.15625 -0.46875 -0.53125 -0.71875q-0.375 -0.265625 -0.90625 -0.265625q-0.6875 0 -1.234375 0.375q-0.53125 0.359375 -0.734375 0.984375q-0.1875 0.609375 -0.1875 2.25l0 4.46875l-2.609375 0l0 -9.859375l2.421875 0l0 1.453125q1.296875 -1.671875 3.25 -1.671875q0.859375 0 1.578125 0.3125q0.71875 0.3125 1.078125 0.796875q0.359375 0.484375 0.5 1.09375q0.15625 0.609375 0.15625 1.75l0 6.125zm2.239746 -9.859375l2.40625 0l0 1.359375q1.28125 -1.578125 3.0625 -1.578125q0.953125 0 1.640625 0.390625q0.703125 0.390625 1.140625 1.1875q0.65625 -0.796875 1.40625 -1.1875q0.75 -0.390625 1.609375 -0.390625q1.078125 0 1.828125 0.453125q0.75 0.4375 1.125 1.28125q0.265625 0.640625 0.265625 2.046875l0 6.296875l-2.609375 0l0 -5.625q0 -1.46875 -0.265625 -1.90625q-0.359375 -0.546875 -1.109375 -0.546875q-0.546875 0 -1.03125 0.34375q-0.484375 0.328125 -0.703125 0.96875q-0.203125 0.640625 -0.203125 2.03125l0 4.734375l-2.609375 0l0 -5.40625q0 -1.4375 -0.140625 -1.84375q-0.140625 -0.421875 -0.4375 -0.625q-0.28125 -0.203125 -0.78125 -0.203125q-0.609375 0 -1.09375 0.328125q-0.484375 0.3125 -0.6875 0.9375q-0.203125 0.609375 -0.203125 2.03125l0 4.78125l-2.609375 0l0 -9.859375zm22.479004 6.71875l2.609375 0.4375q-0.5 1.4375 -1.59375 2.1875q-1.078125 0.734375 -2.703125 0.734375q-2.5625 0 -3.796875 -1.671875q-0.96875 -1.34375 -0.96875 -3.40625q0 -2.4375 1.265625 -3.828125q1.28125 -1.390625 3.25 -1.390625q2.1875 0 3.453125 1.453125q1.28125 1.453125 1.234375 4.453125l-6.53125 0q0.015625 1.15625 0.625 1.8125q0.609375 0.640625 1.5 0.640625q0.609375 0 1.03125 -0.328125q0.421875 -0.34375 0.625 -1.09375zm0.15625 -2.625q-0.03125 -1.140625 -0.59375 -1.71875q-0.546875 -0.59375 -1.34375 -0.59375q-0.859375 0 -1.40625 0.625q-0.5625 0.609375 -0.546875 1.6875l3.890625 0zm13.485107 5.765625l-2.609375 0l0 -5.03125q0 -1.59375 -0.171875 -2.0625q-0.15625 -0.46875 -0.53125 -0.71875q-0.375 -0.265625 -0.90625 -0.265625q-0.6875 0 -1.234375 0.375q-0.53125 0.359375 -0.734375 0.984375q-0.1875 0.609375 -0.1875 2.25l0 4.46875l-2.609375 0l0 -9.859375l2.421875 0l0 1.453125q1.296875 -1.671875 3.25 -1.671875q0.859375 0 1.578125 0.3125q0.71875 0.3125 1.078125 0.796875q0.359375 0.484375 0.5 1.09375q0.15625 0.609375 0.15625 1.75l0 6.125zm6.942871 -9.859375l0 2.078125l-1.78125 0l0 3.984375q0 1.203125 0.046875 1.40625q0.0625 0.1875 0.234375 0.328125q0.1875 0.125 0.453125 0.125q0.359375 0 1.046875 -0.25l0.21875 2.015625q-0.90625 0.390625 -2.0625 0.390625q-0.703125 0 -1.265625 -0.234375q-0.5625 -0.234375 -0.828125 -0.609375q-0.265625 -0.375 -0.375 -1.015625q-0.078125 -0.453125 -0.078125 -1.84375l0 -4.296875l-1.203125 0l0 -2.078125l1.203125 0l0 -1.953125l2.609375 -1.515625l0 3.46875l1.78125 0z" fill-rule="nonzero"></path><path fill="#000000" fill-opacity="0.0" d="m320.0 536.0l0 32.0" fill-rule="nonzero"></path><path stroke="#000000" stroke-width="2.0" stroke-miterlimit="8.0" stroke-linecap="butt" d="m320.0 536.0l0 32.0" fill-rule="nonzero"></path><path fill="#000000" fill-opacity="0.0" d="m432.0 536.0l0 32.0" fill-rule="nonzero"></path><path stroke="#000000" stroke-width="2.0" stroke-miterlimit="8.0" stroke-linecap="butt" d="m432.0 536.0l0 32.0" fill-rule="nonzero"></path><path fill="#000000" fill-opacity="0.0" d="m200.0 440.0l0 16.0" fill-rule="nonzero"></path><path stroke="#000000" stroke-width="2.0" stroke-miterlimit="8.0" stroke-linecap="butt" d="m200.0 440.0l0 16.0" fill-rule="nonzero"></path><path fill="#000000" fill-opacity="0.0" d="m368.0 504.0l0 -32.0" fill-rule="nonzero"></path><path stroke="#000000" stroke-width="2.0" stroke-miterlimit="8.0" stroke-linecap="butt" d="m368.0 504.0l0 -32.0" fill-rule="nonzero"></path><path fill="#000000" fill-opacity="0.0" d="m320.0 504.0l0 -16.0" fill-rule="nonzero"></path><path stroke="#000000" stroke-width="2.0" stroke-miterlimit="8.0" stroke-linecap="butt" d="m320.0 504.0l0 -16.0" fill-rule="nonzero"></path><path fill="#000000" fill-opacity="0.0" d="m320.0 488.0l112.0 0" fill-rule="nonzero"></path><path stroke="#000000" stroke-width="2.0" stroke-miterlimit="8.0" stroke-linecap="butt" d="m320.0 488.0l112.0 0" fill-rule="nonzero"></path><path fill="#000000" fill-opacity="0.0" d="m432.0 488.0l0 16.0" fill-rule="nonzero"></path><path stroke="#000000" stroke-width="2.0" stroke-miterlimit="8.0" stroke-linecap="butt" d="m432.0 488.0l0 16.0" fill-rule="nonzero"></path><path fill="#000000" fill-opacity="0.0" d="m200.0 432.0l0 8.0" fill-rule="nonzero"></path><path stroke="#000000" stroke-width="2.0" stroke-miterlimit="8.0" stroke-linecap="butt" d="m200.0 432.0l0 8.0" fill-rule="nonzero"></path><path fill="#000000" fill-opacity="0.0" d="m200.0 432.0l168.0 0" fill-rule="nonzero"></path><path stroke="#000000" stroke-width="2.0" stroke-miterlimit="8.0" stroke-linecap="butt" d="m200.0 432.0l168.0 0" fill-rule="nonzero"></path><path fill="#000000" fill-opacity="0.0" d="m368.0 432.0l0 16.0" fill-rule="nonzero"></path><path stroke="#000000" stroke-width="2.0" stroke-miterlimit="8.0" stroke-linecap="butt" d="m368.0 432.0l0 16.0" fill-rule="nonzero"></path><path fill="#000000" fill-opacity="0.0" d="m272.0 440.0l0 -32.0" fill-rule="nonzero"></path><path stroke="#000000" stroke-width="2.0" stroke-miterlimit="8.0" stroke-linecap="butt" d="m272.0 440.0l0 -32.0" fill-rule="nonzero"></path><path fill="#000000" fill-opacity="0.0" d="m248.0 448.0l48.0 0l0 24.0l-48.0 0z" fill-rule="nonzero"></path><path fill="#000000" d="m268.14786 462.34186l0 -2.390625l9.515625 0l0 2.390625l-9.515625 0zm0 4.125l0 -2.40625l9.515625 0l0 2.40625l-9.515625 0z" fill-rule="nonzero"></path><path fill="#000000" fill-opacity="0.0" d="m181.66667 460.83328l48.0 0l0 24.0l-48.0 0z" fill-rule="nonzero"></path><path fill="#000000" d="m192.02605 471.5658l0 -2.40625l2.609375 0l0 2.40625l-2.609375 0zm0 11.1875l0 -9.859375l2.609375 0l0 9.859375l-2.609375 0zm14.230179 0l-2.421875 0l0 -1.453125q-0.609375 0.84375 -1.4375 1.265625q-0.8125 0.40625 -1.640625 0.40625q-1.703125 0 -2.921875 -1.359375q-1.203125 -1.375 -1.203125 -3.828125q0 -2.5 1.171875 -3.796875q1.1875 -1.3125 2.984375 -1.3125q1.65625 0 2.859375 1.375l0 -4.890625l2.609375 0l0 13.59375zm-6.96875 -5.140625q0 1.578125 0.4375 2.28125q0.640625 1.015625 1.765625 1.015625q0.90625 0 1.53125 -0.765625q0.625 -0.765625 0.625 -2.28125q0 -1.703125 -0.609375 -2.4375q-0.609375 -0.75 -1.5625 -0.75q-0.9375 0 -1.5625 0.734375q-0.625 0.734375 -0.625 2.203125z" fill-rule="nonzero"></path><path fill="#000000" fill-opacity="0.0" d="m408.0 568.0l48.0 0l0 32.0l-48.0 0z" fill-rule="nonzero"></path><path fill="#000000" d="m422.875 580.0606l0 2.078125l-1.78125 0l0 3.984375q0 1.203125 0.046875 1.40625q0.0625 0.1875 0.234375 0.328125q0.1875 0.125 0.453125 0.125q0.359375 0 1.046875 -0.25l0.21875 2.015625q-0.90625 0.390625 -2.0625 0.390625q-0.703125 0 -1.265625 -0.234375q-0.5625 -0.234375 -0.828125 -0.609375q-0.265625 -0.375 -0.375 -1.015625q-0.078125 -0.453125 -0.078125 -1.84375l0 -4.296875l-1.203125 0l0 -2.078125l1.203125 0l0 -1.953125l2.609375 -1.515625l0 3.46875l1.78125 0zm3.650177 3.015625l-2.359375 -0.4375q0.390625 -1.421875 1.359375 -2.109375q0.984375 -0.6875 2.90625 -0.6875q1.734375 0 2.59375 0.421875q0.859375 0.40625 1.203125 1.046875q0.34375 0.625 0.34375 2.328125l-0.03125 3.046875q0 1.296875 0.125 1.921875q0.125 0.609375 0.46875 1.3125l-2.578125 0q-0.09375 -0.265625 -0.25 -0.765625q-0.0625 -0.234375 -0.09375 -0.3125q-0.65625 0.65625 -1.421875 0.984375q-0.765625 0.3125 -1.625 0.3125q-1.515625 0 -2.40625 -0.8125q-0.875 -0.828125 -0.875 -2.09375q0 -0.84375 0.390625 -1.484375q0.40625 -0.65625 1.125 -1.0q0.71875 -0.359375 2.078125 -0.625q1.828125 -0.328125 2.53125 -0.625l0 -0.265625q0 -0.75 -0.375 -1.0625q-0.359375 -0.328125 -1.390625 -0.328125q-0.703125 0 -1.09375 0.28125q-0.390625 0.265625 -0.625 0.953125zm3.484375 2.109375q-0.5 0.171875 -1.59375 0.40625q-1.078125 0.234375 -1.40625 0.453125q-0.515625 0.359375 -0.515625 0.921875q0 0.546875 0.40625 0.953125q0.40625 0.390625 1.046875 0.390625q0.703125 0 1.34375 -0.46875q0.46875 -0.359375 0.625 -0.859375q0.09375 -0.34375 0.09375 -1.28125l0 -0.515625zm3.688202 4.734375l3.5625 -5.078125l-3.40625 -4.78125l3.171875 0l1.75 2.71875l1.828125 -2.71875l3.0625 0l-3.328125 4.671875l3.640625 5.1875l-3.203125 0l-2.0 -3.046875l-2.03125 3.046875l-3.046875 0z" fill-rule="nonzero"></path><path fill="#000000" fill-opacity="0.0" d="m375.16663 182.66667l160.83331 1.3333282" fill-rule="nonzero"></path><path stroke="#000000" stroke-width="2.0" stroke-miterlimit="8.0" stroke-linecap="butt" d="m375.16663 182.66667l148.83368 1.2338562" fill-rule="evenodd"></path><path fill="#000000" stroke="#000000" stroke-width="2.0" stroke-linecap="butt" d="m523.97296 187.20387l9.1032715 -3.2281036l-9.048523 -3.378601z" fill-rule="evenodd"></path><path fill="#000000" fill-opacity="0.0" d="m544.0 200.0l-160.0 72.0" fill-rule="nonzero"></path><path stroke="#000000" stroke-width="2.0" stroke-miterlimit="8.0" stroke-linecap="butt" d="m544.0 200.0l-149.05692 67.07562" fill-rule="evenodd"></path><path fill="#000000" stroke="#000000" stroke-width="2.0" stroke-linecap="butt" d="m393.58743 264.0631l-6.9211426 6.7370605l9.632385 -0.71203613z" fill-rule="evenodd"></path><path fill="#000000" fill-opacity="0.0" d="m384.0 280.0l144.0 104.0" fill-rule="nonzero"></path><path stroke="#000000" stroke-width="2.0" stroke-miterlimit="8.0" stroke-linecap="butt" d="m384.0 280.0l134.27185 96.97412" fill-rule="evenodd"></path><path fill="#000000" stroke="#000000" stroke-width="2.0" stroke-linecap="butt" d="m516.3377 379.65216l9.292053 2.6359863l-5.423767 -7.992096z" fill-rule="evenodd"></path><path fill="#000000" fill-opacity="0.0" d="m528.0 384.0l-96.0 40.0" fill-rule="nonzero"></path><path stroke="#000000" stroke-width="2.0" stroke-miterlimit="8.0" stroke-linecap="butt" d="m528.0 384.0l-84.923065 35.384583" fill-rule="evenodd"></path><path fill="#000000" stroke="#000000" stroke-width="2.0" stroke-linecap="butt" d="m441.80637 416.33527l-7.107483 6.5401917l9.64859 -0.4414978z" fill-rule="evenodd"></path></g></svg>

