<?xml version="1.0" standalone="yes"?>

<svg version="1.1" viewBox="0.0 0.0 827.2545931758531 192.1233595800525" fill="none" stroke="none" stroke-linecap="square" stroke-miterlimit="10" xmlns="http://www.w3.org/2000/svg" xmlns:xlink="http://www.w3.org/1999/xlink"><clipPath id="p.0"><path d="m0 0l827.2546 0l0 192.12335l-827.2546 0l0 -192.12335z" clip-rule="nonzero"></path></clipPath><g clip-path="url(#p.0)"><path fill="#000000" fill-opacity="0.0" d="m0 0l827.2546 0l0 192.12335l-827.2546 0z" fill-rule="evenodd"></path><path fill="#000000" fill-opacity="0.0" d="m326.4252 66.84032l0 0c0 -11.675037 9.464478 -21.13953 21.139526 -21.13953l147.04376 0c5.6065674 0 10.98349 2.2271957 14.9479065 6.1916275c3.9644165 3.964428 6.1916504 9.341351 6.1916504 14.947903l0 84.55559c0 11.675034 -9.464508 21.139526 -21.139557 21.139526l-147.04376 0c-11.675049 0 -21.139526 -9.464493 -21.139526 -21.139526z" fill-rule="evenodd"></path><path stroke="#000000" stroke-width="1.0" stroke-linejoin="round" stroke-linecap="butt" d="m326.4252 66.84032l0 0c0 -11.675037 9.464478 -21.13953 21.139526 -21.13953l147.04376 0c5.6065674 0 10.98349 2.2271957 14.9479065 6.1916275c3.9644165 3.964428 6.1916504 9.341351 6.1916504 14.947903l0 84.55559c0 11.675034 -9.464508 21.139526 -21.139557 21.139526l-147.04376 0c-11.675049 0 -21.139526 -9.464493 -21.139526 -21.139526z" fill-rule="evenodd"></path><path fill="#000000" d="m393.96942 143.7781l0 -68.71875l30.46875 0q9.1875 0 13.96875 1.859375q4.78125 1.84375 7.640625 6.53125q2.859375 4.6875 2.859375 10.359375q0 7.3125 -4.734375 12.328125q-4.734375 5.015625 -14.625 6.375q3.609375 1.734375 5.484375 3.421875q3.984375 3.65625 7.546875 9.140625l11.953125 18.703125l-11.4375 0l-9.09375 -14.296875q-3.984375 -6.1875 -6.5625 -9.46875q-2.578125 -3.28125 -4.625 -4.59375q-2.03125 -1.3125 -4.140625 -1.828125q-1.546875 -0.328125 -5.0625 -0.328125l-10.546875 0l0 30.515625l-9.09375 0zm9.09375 -38.390625l19.546875 0q6.234375 0 9.75 -1.28125q3.515625 -1.296875 5.34375 -4.125q1.828125 -2.84375 1.828125 -6.171875q0 -4.875 -3.546875 -8.015625q-3.53125 -3.140625 -11.171875 -3.140625l-21.75 0l0 22.734375z" fill-rule="nonzero"></path><path fill="#000000" fill-opacity="0.0" d="m60.619423 68.08399l145.48032 0l0 38.23622l-145.48032 0z" fill-rule="evenodd"></path><path fill="#000000" d="m71.1038 115.72649l4.171875 -0.65625q0.34375 2.515625 1.953125 3.859375q1.609375 1.328125 4.484375 1.328125q2.90625 0 4.3125 -1.1875q1.40625 -1.1875 1.40625 -2.78125q0 -1.421875 -1.234375 -2.25q-0.875 -0.5625 -4.3125 -1.421875q-4.640625 -1.171875 -6.4375 -2.03125q-1.796875 -0.859375 -2.71875 -2.359375q-0.921875 -1.515625 -0.921875 -3.34375q0 -1.671875 0.75 -3.078125q0.765625 -1.421875 2.078125 -2.359375q0.984375 -0.734375 2.6875 -1.234375q1.703125 -0.5 3.640625 -0.5q2.9375 0 5.140625 0.84375q2.21875 0.84375 3.265625 2.28125q1.0625 1.4375 1.46875 3.859375l-4.125 0.5625q-0.28125 -1.921875 -1.640625 -3.0q-1.34375 -1.078125 -3.796875 -1.078125q-2.90625 0 -4.15625 0.96875q-1.234375 0.953125 -1.234375 2.234375q0 0.828125 0.515625 1.484375q0.515625 0.671875 1.609375 1.125q0.640625 0.234375 3.734375 1.078125q4.46875 1.1875 6.234375 1.953125q1.78125 0.765625 2.78125 2.21875q1.015625 1.453125 1.015625 3.609375q0 2.109375 -1.234375 3.96875q-1.234375 1.859375 -3.5625 2.890625q-2.3125 1.015625 -5.234375 1.015625q-4.859375 0 -7.40625 -2.015625q-2.53125 -2.015625 -3.234375 -5.984375zm34.890625 3.65625l0.609375 3.734375q-1.78125 0.375 -3.1875 0.375q-2.296875 0 -3.5625 -0.71875q-1.265625 -0.734375 -1.78125 -1.921875q-0.515625 -1.1875 -0.515625 -4.984375l0 -14.3125l-3.09375 0l0 -3.28125l3.09375 0l0 -6.171875l4.203125 -2.53125l0 8.703125l4.234375 0l0 3.28125l-4.234375 0l0 14.546875q0 1.8125 0.21875 2.328125q0.21875 0.515625 0.71875 0.828125q0.515625 0.296875 1.453125 0.296875q0.703125 0 1.84375 -0.171875zm4.0859375 3.78125l0 -24.890625l3.796875 0l0 3.765625q1.453125 -2.640625 2.671875 -3.484375q1.234375 -0.84375 2.71875 -0.84375q2.125 0 4.328125 1.359375l-1.453125 3.90625q-1.546875 -0.90625 -3.09375 -0.90625q-1.375 0 -2.484375 0.828125q-1.09375 0.828125 -1.5625 2.3125q-0.703125 2.25 -0.703125 4.921875l0 13.03125l-4.21875 0zm16.046875 -29.515625l0 -4.84375l4.2187424 0l0 4.84375l-4.2187424 0zm0 29.515625l0 -24.890625l4.2187424 0l0 24.890625l-4.2187424 0zm10.64843 0l0 -24.890625l3.796875 0l0 3.53125q2.734375 -4.09375 7.921875 -4.09375q2.25 0 4.125 0.8125q1.890625 0.796875 2.828125 2.109375q0.9375 1.3125 1.3125 3.125q0.234375 1.171875 0.234375 4.09375l0 15.3125l-4.21875 0l0 -15.140625q0 -2.578125 -0.5 -3.859375q-0.484375 -1.28125 -1.734375 -2.03125q-1.25 -0.765625 -2.9375 -0.765625q-2.703125 0 -4.65625 1.71875q-1.953125 1.703125 -1.953125 6.484375l0 13.59375l-4.21875 0zm25.914062 2.0625l4.109375 0.609375q0.25 1.90625 1.421875 2.765625q1.578125 1.171875 4.296875 1.171875q2.921875 0 4.515625 -1.171875q1.59375 -1.171875 2.15625 -3.28125q0.328125 -1.28125 0.3125 -5.421875q-2.765625 3.265625 -6.890625 3.265625q-5.140625 0 -7.953125 -3.703125q-2.8125 -3.703125 -2.8125 -8.890625q0 -3.5625 1.28125 -6.5625q1.296875 -3.015625 3.75 -4.65625q2.453125 -1.640625 5.75 -1.640625q4.40625 0 7.265625 3.5625l0 -3.0l3.890625 0l0 21.515625q0 5.8125 -1.1875 8.234375q-1.171875 2.4375 -3.75 3.84375q-2.5625 1.40625 -6.3125 1.40625q-4.453125 0 -7.203125 -2.015625q-2.734375 -2.0 -2.640625 -6.03125zm3.5 -14.953125q0 4.890625 1.9375 7.140625q1.953125 2.25 4.875 2.25q2.90625 0 4.875 -2.234375q1.96875 -2.234375 1.96875 -7.015625q0 -4.578125 -2.03125 -6.890625q-2.015625 -2.328125 -4.875 -2.328125q-2.8125 0 -4.78125 2.296875q-1.96875 2.28125 -1.96875 6.78125z" fill-rule="nonzero"></path><path fill="#000000" fill-opacity="0.0" d="m205.16536 108.173225l121.25984 0.94488525" fill-rule="evenodd"></path><path stroke="#000000" stroke-width="8.0" stroke-linejoin="round" stroke-linecap="butt" d="m205.16536 108.173225l73.26131 0.57086945" fill-rule="evenodd"></path><path fill="#000000" stroke="#000000" stroke-width="8.0" stroke-linecap="butt" d="m278.3237 121.95756l36.406647 -12.9305725l-36.200714 -13.4963455z" fill-rule="evenodd"></path><path fill="#000000" fill-opacity="0.0" d="m515.74805 109.11811l115.6535 0" fill-rule="evenodd"></path><path stroke="#000000" stroke-width="8.0" stroke-linejoin="round" stroke-linecap="butt" d="m515.74805 109.11811l67.6535 0" fill-rule="evenodd"></path><path fill="#000000" stroke="#000000" stroke-width="8.0" stroke-linecap="butt" d="m583.40155 122.33197l36.30481 -13.21386l-36.30481 -13.21386z" fill-rule="evenodd"></path><path fill="#000000" fill-opacity="0.0" d="m636.0735 70.89501l169.7323 0l0 38.23622l-169.7323 0z" fill-rule="evenodd"></path><path fill="#000000" d="m648.05786 135.56877l-0.46875 -3.9687653q1.375 0.375 2.40625 0.375q1.40625 0 2.25 -0.46875q0.84375 -0.46875 1.390625 -1.3125q0.390625 -0.625 1.28125 -3.1406174q0.125 -0.34375 0.375 -1.03125l-9.4375 -24.9375l4.546875 0l5.171875 14.40625q1.015625 2.75 1.8125 5.765625q0.71875 -2.90625 1.734375 -5.671875l5.3125 -14.5l4.21875 0l-9.46875 25.3125q-1.515625 4.1093674 -2.359375 5.6562424q-1.125 2.078125 -2.578125 3.0468903q-1.453125 0.984375 -3.46875 0.984375q-1.21875 0 -2.71875 -0.515625zm41.21875 -17.609383l4.359375 0.53125q-1.03125 3.828125 -3.828125 5.9375q-2.78125 2.109375 -7.109375 2.109375q-5.46875 0 -8.671875 -3.359375q-3.1875 -3.375 -3.1875 -9.4375q0 -6.28125 3.234375 -9.75q3.234375 -3.46875 8.390625 -3.46875q4.984375 0 8.140625 3.40625q3.171875 3.390625 3.171875 9.546875q0 0.375 -0.015625 1.125l-18.5625 0q0.234375 4.109375 2.3125 6.296875q2.09375 2.171875 5.203125 2.171875q2.328125 0 3.96875 -1.21875q1.640625 -1.21875 2.59375 -3.890625zm-13.84375 -6.828125l13.890625 0q-0.28125 -3.140625 -1.59375 -4.703125q-2.015625 -2.4375 -5.21875 -2.4375q-2.90625 0 -4.890625 1.953125q-1.984375 1.9375 -2.1875 5.1875zm21.820312 7.40625l4.171875 -0.65625q0.34375 2.515625 1.953125 3.859375q1.609375 1.328125 4.484375 1.328125q2.90625 0 4.3125 -1.1875q1.40625 -1.1875 1.40625 -2.78125q0 -1.421875 -1.234375 -2.25q-0.875 -0.5625 -4.3125 -1.421875q-4.640625 -1.171875 -6.4375 -2.03125q-1.796875 -0.859375 -2.71875 -2.359375q-0.921875 -1.515625 -0.921875 -3.34375q0 -1.671875 0.75 -3.078125q0.765625 -1.421875 2.078125 -2.359375q0.984375 -0.734375 2.6875 -1.234375q1.703125 -0.5 3.640625 -0.5q2.9375 0 5.140625 0.84375q2.21875 0.84375 3.265625 2.28125q1.0625 1.4375 1.46875 3.859375l-4.125 0.5625q-0.28125 -1.921875 -1.640625 -3.0q-1.34375 -1.078125 -3.796875 -1.078125q-2.90625 0 -4.15625 0.96875q-1.234375 0.953125 -1.234375 2.234375q0 0.828125 0.515625 1.484375q0.515625 0.671875 1.609375 1.125q0.640625 0.234375 3.734375 1.078125q4.46875 1.1875 6.234375 1.953125q1.78125 0.765625 2.78125 2.21875q1.015625 1.453125 1.015625 3.609375q0 2.109375 -1.234375 3.96875q-1.234375 1.859375 -3.5625 2.890625q-2.3125 1.015625 -5.234375 1.015625q-4.859375 0 -7.40625 -2.015625q-2.53125 -2.015625 -3.234375 -5.984375zm22.515625 8.03125l9.96875 -35.546875l3.375 0l-9.9375 35.546875l-3.40625 0zm16.507812 -0.59375l0 -24.890625l3.796875 0l0 3.53125q2.734375 -4.09375 7.921875 -4.09375q2.25 0 4.125 0.8125q1.890625 0.796875 2.828125 2.109375q0.9375 1.3125 1.3125 3.125q0.234375 1.171875 0.234375 4.09375l0 15.3125l-4.21875 0l0 -15.140625q0 -2.578125 -0.5 -3.859375q-0.484375 -1.28125 -1.734375 -2.03125q-1.25 -0.765625 -2.9375 -0.765625q-2.703125 0 -4.65625 1.71875q-1.953125 1.703125 -1.953125 6.484375l0 13.59375l-4.21875 0zm25.117188 -12.453125q0 -6.90625 3.84375 -10.234375q3.21875 -2.765625 7.828125 -2.765625q5.140625 0 8.390625 3.359375q3.265625 3.359375 3.265625 9.296875q0 4.796875 -1.453125 7.5625q-1.4375 2.75 -4.1875 4.28125q-2.75 1.515625 -6.015625 1.515625q-5.21875 0 -8.453125 -3.34375q-3.21875 -3.359375 -3.21875 -9.671875zm4.34375 0q0 4.78125 2.078125 7.171875q2.09375 2.375 5.25 2.375q3.140625 0 5.21875 -2.390625q2.09375 -2.390625 2.09375 -7.296875q0 -4.609375 -2.09375 -6.984375q-2.09375 -2.390625 -5.21875 -2.390625q-3.15625 0 -5.25 2.375q-2.078125 2.359375 -2.078125 7.140625z" fill-rule="nonzero"></path></g></svg>

