
                <svg id="trend-chart" width="660" height="400" title="Stack Overflow Trends Chart" version="1.1" xmlns="http://www.w3.org/2000/svg"><g></g><g class="chart-area" transform="translate(100, 20)"><g transform="translate(0,300)" fill="none" font-size="10" font-family="sans-serif" text-anchor="middle"><path class="domain" stroke="#000" d="M0.5,6V0.5H410.5V6"></path><g class="tick" opacity="1" transform="translate(19.27121723996724,0)"><line stroke="#000" y2="6" x1="0.5" x2="0.5"></line><text fill="#000" y="9" x="0.5" dy="0.71em" style="font-size: 12px;">2009</text></g><g class="tick" opacity="1" transform="translate(65.23251945126945,0)"><line stroke="#000" y2="6" x1="0.5" x2="0.5"></line><text fill="#000" y="9" x="0.5" dy="0.71em" style="font-size: 12px;">2010</text></g><g class="tick" opacity="1" transform="translate(111.19382166257166,0)"><line stroke="#000" y2="6" x1="0.5" x2="0.5"></line><text fill="#000" y="9" x="0.5" dy="0.71em" style="font-size: 12px;">2011</text></g><g class="tick" opacity="1" transform="translate(157.15512387387386,0)"><line stroke="#000" y2="6" x1="0.5" x2="0.5"></line><text fill="#000" y="9" x="0.5" dy="0.71em" style="font-size: 12px;">2012</text></g><g class="tick" opacity="1" transform="translate(203.24234746109747,0)"><line stroke="#000" y2="6" x1="0.5" x2="0.5"></line><text fill="#000" y="9" x="0.5" dy="0.71em" style="font-size: 12px;">2013</text></g><g class="tick" opacity="1" transform="translate(249.20364967239968,0)"><line stroke="#000" y2="6" x1="0.5" x2="0.5"></line><text fill="#000" y="9" x="0.5" dy="0.71em" style="font-size: 12px;">2014</text></g><g class="tick" opacity="1" transform="translate(295.16495188370186,0)"><line stroke="#000" y2="6" x1="0.5" x2="0.5"></line><text fill="#000" y="9" x="0.5" dy="0.71em" style="font-size: 12px;">2015</text></g><g class="tick" opacity="1" transform="translate(341.1262540950041,0)"><line stroke="#000" y2="6" x1="0.5" x2="0.5"></line><text fill="#000" y="9" x="0.5" dy="0.71em" style="font-size: 12px;">2016</text></g><g class="tick" opacity="1" transform="translate(387.2134776822277,0)"><line stroke="#000" y2="6" x1="0.5" x2="0.5"></line><text fill="#000" y="9" x="0.5" dy="0.71em" style="font-size: 12px;">2017</text></g></g><g class="grid-lines" transform="translate(0,300)" fill="none" font-size="10" font-family="sans-serif" text-anchor="middle"><path class="domain" stroke="#000" d="M0.5,-300V0.5H410.5V-300"></path><g class="tick" opacity="1" transform="translate(19.27121723996724,0)"><line stroke="#000" y2="-300" x1="0.5" x2="0.5" style="stroke: #ccc; fill: none;"></line></g><g class="tick" opacity="1" transform="translate(65.23251945126945,0)"><line stroke="#000" y2="-300" x1="0.5" x2="0.5" style="stroke: #ccc; fill: none;"></line></g><g class="tick" opacity="1" transform="translate(111.19382166257166,0)"><line stroke="#000" y2="-300" x1="0.5" x2="0.5" style="stroke: #ccc; fill: none;"></line></g><g class="tick" opacity="1" transform="translate(157.15512387387386,0)"><line stroke="#000" y2="-300" x1="0.5" x2="0.5" style="stroke: #ccc; fill: none;"></line></g><g class="tick" opacity="1" transform="translate(203.24234746109747,0)"><line stroke="#000" y2="-300" x1="0.5" x2="0.5" style="stroke: #ccc; fill: none;"></line></g><g class="tick" opacity="1" transform="translate(249.20364967239968,0)"><line stroke="#000" y2="-300" x1="0.5" x2="0.5" style="stroke: #ccc; fill: none;"></line></g><g class="tick" opacity="1" transform="translate(295.16495188370186,0)"><line stroke="#000" y2="-300" x1="0.5" x2="0.5" style="stroke: #ccc; fill: none;"></line></g><g class="tick" opacity="1" transform="translate(341.1262540950041,0)"><line stroke="#000" y2="-300" x1="0.5" x2="0.5" style="stroke: #ccc; fill: none;"></line></g><g class="tick" opacity="1" transform="translate(387.2134776822277,0)"><line stroke="#000" y2="-300" x1="0.5" x2="0.5" style="stroke: #ccc; fill: none;"></line></g></g><text x="205" y="360" class="axis-label x-axis-label" style="text-anchor: middle; font-weight: bold;">Year</text><g fill="none" font-size="10" font-family="sans-serif" text-anchor="end"><path class="domain" stroke="#000" d="M-6,300.5H0.5V0.5H-6"></path><g class="tick" opacity="1" transform="translate(0,300)"><line stroke="#000" x2="-6" y1="0.5" y2="0.5"></line><text fill="#000" x="-9" y="0.5" dy="0.32em" style="font-size: 12px;">0.00%</text></g><g class="tick" opacity="1" transform="translate(0,262.5)"><line stroke="#000" x2="-6" y1="0.5" y2="0.5"></line><text fill="#000" x="-9" y="0.5" dy="0.32em" style="font-size: 12px;">2.00%</text></g><g class="tick" opacity="1" transform="translate(0,225)"><line stroke="#000" x2="-6" y1="0.5" y2="0.5"></line><text fill="#000" x="-9" y="0.5" dy="0.32em" style="font-size: 12px;">4.00%</text></g><g class="tick" opacity="1" transform="translate(0,187.5)"><line stroke="#000" x2="-6" y1="0.5" y2="0.5"></line><text fill="#000" x="-9" y="0.5" dy="0.32em" style="font-size: 12px;">6.00%</text></g><g class="tick" opacity="1" transform="translate(0,150)"><line stroke="#000" x2="-6" y1="0.5" y2="0.5"></line><text fill="#000" x="-9" y="0.5" dy="0.32em" style="font-size: 12px;">8.00%</text></g><g class="tick" opacity="1" transform="translate(0,112.5)"><line stroke="#000" x2="-6" y1="0.5" y2="0.5"></line><text fill="#000" x="-9" y="0.5" dy="0.32em" style="font-size: 12px;">10.00%</text></g><g class="tick" opacity="1" transform="translate(0,75)"><line stroke="#000" x2="-6" y1="0.5" y2="0.5"></line><text fill="#000" x="-9" y="0.5" dy="0.32em" style="font-size: 12px;">12.00%</text></g><g class="tick" opacity="1" transform="translate(0,37.49999999999994)"><line stroke="#000" x2="-6" y1="0.5" y2="0.5"></line><text fill="#000" x="-9" y="0.5" dy="0.32em" style="font-size: 12px;">14.00%</text></g><g class="tick" opacity="1" transform="translate(0,0)"><line stroke="#000" x2="-6" y1="0.5" y2="0.5"></line><text fill="#000" x="-9" y="0.5" dy="0.32em" style="font-size: 12px;">16.00%</text></g></g><g class="grid-lines" fill="none" font-size="10" font-family="sans-serif" text-anchor="end"><path class="domain" stroke="#000" d="M410,300.5H0.5V0.5H410"></path><g class="tick" opacity="1" transform="translate(0,300)"><line stroke="#000" x2="410" y1="0.5" y2="0.5" style="stroke: #ccc; fill: none;"></line></g><g class="tick" opacity="1" transform="translate(0,262.5)"><line stroke="#000" x2="410" y1="0.5" y2="0.5" style="stroke: #ccc; fill: none;"></line></g><g class="tick" opacity="1" transform="translate(0,225)"><line stroke="#000" x2="410" y1="0.5" y2="0.5" style="stroke: #ccc; fill: none;"></line></g><g class="tick" opacity="1" transform="translate(0,187.5)"><line stroke="#000" x2="410" y1="0.5" y2="0.5" style="stroke: #ccc; fill: none;"></line></g><g class="tick" opacity="1" transform="translate(0,150)"><line stroke="#000" x2="410" y1="0.5" y2="0.5" style="stroke: #ccc; fill: none;"></line></g><g class="tick" opacity="1" transform="translate(0,112.5)"><line stroke="#000" x2="410" y1="0.5" y2="0.5" style="stroke: #ccc; fill: none;"></line></g><g class="tick" opacity="1" transform="translate(0,75)"><line stroke="#000" x2="410" y1="0.5" y2="0.5" style="stroke: #ccc; fill: none;"></line></g><g class="tick" opacity="1" transform="translate(0,37.49999999999994)"><line stroke="#000" x2="410" y1="0.5" y2="0.5" style="stroke: #ccc; fill: none;"></line></g><g class="tick" opacity="1" transform="translate(0,0)"><line stroke="#000" x2="410" y1="0.5" y2="0.5" style="stroke: #ccc; fill: none;"></line></g></g><g class="lines"><path class="line" d="M3.9035626535626538,152.0349375L7.681203931203931,155.02518750000002L11.584766584766585,160.2L15.367654586404585,171.8131875L19.27121723996724,165.14231250000003L23.174779893529895,172.62187500000002L26.70057841932842,169.3141875L30.598894348894348,166.60875000000001L34.37653562653563,168.841125L38.28009828009828,161.2273125L42.05773955773956,169.71506250000002L45.96130221130221,175.573125L49.86486486486487,172.6258125L53.64250614250615,171.5690625L57.546068796068795,166.6070625L61.328956797706795,167.769375L65.23251945126945,145.65825L69.1360821048321,151.174125L72.66188063063062,141.61781249999999L76.56019656019656,155.3934375L80.33783783783784,150.39618750000002L84.2414004914005,156.98175L88.01904176904176,161.86499999999998L91.92260442260442,162.199125L95.82616707616708,156.4453125L99.60380835380836,153.1344375L103.50737100737102,150.55162500000003L107.29025900900902,148.18893749999998L111.19382166257166,147.38681250000002L115.09738431613431,145.863375L118.62318284193283,143.7226875L122.52149877149877,146.71912500000002L126.29914004914005,141.1873125L130.20270270270268,151.60125000000002L133.98034398034397,149.4165L137.88390663390663,149.39306249999998L141.7874692874693,148.5500625L145.5651105651106,143.5291875L149.46867321867322,135.910875L153.25156122031123,135.3553125L157.15512387387386,137.911125L161.05868652743652,135.74175000000002L164.71040642915642,128.0356875L168.60872235872236,126.8585625L172.38636363636365,131.974875L176.28992628992629,142.4019375L180.06756756756758,140.1388125L183.9711302211302,139.5076875L187.87469287469287,136.91006249999998L191.65233415233416,132.83700000000002L195.5558968058968,129.49237499999998L199.3387848075348,129.45806249999998L203.24234746109747,138.56512500000002L207.14591011466013,133.821L210.67170864045866,130.223625L214.5700245700246,124.44300000000001L218.34766584766584,129.6345L222.25122850122852,136.48331249999998L226.02886977886976,140.94018749999998L229.93243243243245,136.217625L233.8359950859951,117.78843749999999L237.61363636363637,111.30000000000001L241.51719901719903,102.65437499999999L245.30008701883702,103.925625L249.20364967239968,116.84118749999999L253.10721232596234,109.68L256.63301085176084,103.75125L260.5313267813268,100.884375L264.3089680589681,110.93249999999998L268.21253071253074,118.391625L271.99017199017203,118.21687499999999L275.89373464373466,121.91756249999997L279.7972972972973,113.13206249999999L283.5749385749386,107.85749999999999L287.4785012285012,101.17500000000001L291.26138923013923,104.270625L295.16495188370186,114.9495L299.06851453726455,115.219875L302.59431306306305,106.81312499999999L306.492628992629,106.61812499999999L310.27027027027026,114.37143749999998L314.17383292383295,123.58012500000001L317.95147420147424,122.3840625L321.8550368550369,125.0319375L325.7585995085995,122.9525625L329.5362407862408,115.43006249999999L333.4398034398034,114.5570625L337.22269144144144,121.660125L341.1262540950041,129.3283125L345.02981674856676,123.8895L348.68153665028666,116.82862499999999L352.57985257985257,115.74824999999998L356.35749385749386,132.61724999999998L360.2610565110565,139.3749375L364.0386977886978,142.867875L367.9422604422604,145.3539375L371.8458230958231,143.80087500000002L375.62346437346434,140.622L379.52702702702703,136.7034375L383.30991502866505,144.0260625L387.2134776822277,149.571L391.1170403357903,148.93875L394.64283886158887,142.8255L398.5411547911548,137.49693750000003L402.3187960687961,139.56168749999998L406.2223587223587,150.25125L410,154.22193750000002" data-legend="java" style="stroke: rgb(31, 119, 180); fill: none;"></path><path class="line" d="M3.9035626535626538,257.3923125L7.681203931203931,261.5578125L11.584766584766585,262.8069375L15.367654586404585,271.5309375L19.27121723996724,262.365375L23.174779893529895,264.9553125L26.70057841932842,260.6499375L30.598894348894348,260.2333125L34.37653562653563,265.66949999999997L38.28009828009828,267.005625L42.05773955773956,268.996125L45.96130221130221,269.854875L49.86486486486487,267.7498125L53.64250614250615,260.5220625L57.546068796068795,253.1323125L61.328956797706795,257.949L65.23251945126945,259.2795L69.1360821048321,257.0885625L72.66188063063062,260.14725L76.56019656019656,256.1776875L80.33783783783784,258.004125L84.2414004914005,261.54112499999997L88.01904176904176,260.758875L91.92260442260442,259.96425L95.82616707616708,258.057L99.60380835380836,257.9225625L103.50737100737102,255.5049375L107.29025900900902,260.9795625L111.19382166257166,266.0859375L115.09738431613431,263.394L118.62318284193283,261.4876875L122.52149877149877,260.7185625L126.29914004914005,266.1825L130.20270270270268,266.9874375L133.98034398034397,269.5396875L137.88390663390663,268.5463125L141.7874692874693,265.3535625L145.5651105651106,261.00487499999997L149.46867321867322,262.6280625L153.25156122031123,264.18075L157.15512387387386,264.5625L161.05868652743652,264.167625L164.71040642915642,262.335L168.60872235872236,261.9001875L172.38636363636365,265.918125L176.28992628992629,267.3075L180.06756756756758,269.0724375L183.9711302211302,269.5513125L187.87469287469287,264.4550625L191.65233415233416,261.1231875L195.5558968058968,260.2220625L199.3387848075348,264.8150625L203.24234746109747,265.9820625L207.14591011466013,262.8991875L210.67170864045866,263.4009375L214.5700245700246,261.9440625L218.34766584766584,264.4715625L222.25122850122852,265.5864375L226.02886977886976,268.405875L229.93243243243245,267.282375L233.8359950859951,262.0430625L237.61363636363637,257.4285L241.51719901719903,255.0751875L245.30008701883702,260.787375L249.20364967239968,263.4440625L253.10721232596234,260.8704375L256.63301085176084,259.2811875L260.5313267813268,261.83625L264.3089680589681,265.7645625L268.21253071253074,268.5001875L271.99017199017203,270.3159375L275.89373464373466,269.7429375L279.7972972972973,263.9191875L283.5749385749386,259.27725L287.4785012285012,259.1844375L291.26138923013923,262.3633125L295.16495188370186,264.1599375L299.06851453726455,262.90443750000003L302.59431306306305,261.764625L306.492628992629,261.420375L310.27027027027026,264.897L314.17383292383295,268.78781250000003L317.95147420147424,273.2745L321.8550368550369,273.70725L325.7585995085995,267.820875L329.5362407862408,263.3578125L333.4398034398034,262.229625L337.22269144144144,266.6803125L341.1262540950041,268.7341875L345.02981674856676,267.8173125L348.68153665028666,268.1540625L352.57985257985257,268.281375L356.35749385749386,273.323625L360.2610565110565,276.825375L364.0386977886978,275.3499375L367.9422604422604,278.244375L371.8458230958231,275.2644375L375.62346437346434,268.814625L379.52702702702703,268.408125L383.30991502866505,270.51L387.2134776822277,273.5038125L391.1170403357903,273.66975L394.64283886158887,275.089125L398.5411547911548,272.904375L402.3187960687961,275.5370625L406.2223587223587,278.0068125L410,280.7735625" data-legend="c" style="stroke: rgb(255, 127, 14); fill: none;"></path><path class="line" d="M3.9035626535626538,201.0984375L7.681203931203931,197.61318749999998L11.584766584766585,193.0515L15.367654586404585,203.0225625L19.27121723996724,200.2215L23.174779893529895,210.4995L26.70057841932842,204.15168749999998L30.598894348894348,211.303125L34.37653562653563,211.9156875L38.28009828009828,217.6119375L42.05773955773956,216.106875L45.96130221130221,220.14075000000003L49.86486486486487,217.4394375L53.64250614250615,213.546375L57.546068796068795,215.205375L61.328956797706795,218.29931249999998L65.23251945126945,217.28006249999999L69.1360821048321,205.413L72.66188063063062,213.303375L76.56019656019656,207.46968750000002L80.33783783783784,213.7996875L84.2414004914005,205.95974999999999L88.01904176904176,217.8976875L91.92260442260442,222.80475L95.82616707616708,216.7479375L99.60380835380836,214.4540625L103.50737100737102,210.2143125L107.29025900900902,216.202875L111.19382166257166,218.63400000000001L115.09738431613431,222.9650625L118.62318284193283,223.1761875L122.52149877149877,219.22575L126.29914004914005,228.0343125L130.20270270270268,228.6305625L133.98034398034397,229.0963125L137.88390663390663,231.5469375L141.7874692874693,228.61725L145.5651105651106,220.5211875L149.46867321867322,223.6355625L153.25156122031123,222.0309375L157.15512387387386,227.47875L161.05868652743652,223.7023125L164.71040642915642,227.54512499999998L168.60872235872236,223.75762500000002L172.38636363636365,231.331875L176.28992628992629,234.0676875L180.06756756756758,231.27075L183.9711302211302,232.43868750000001L187.87469287469287,231.1636875L191.65233415233416,227.00175000000002L195.5558968058968,221.463L199.3387848075348,222.26775L203.24234746109747,229.229625L207.14591011466013,227.01712500000002L210.67170864045866,223.606875L214.5700245700246,223.03781249999997L218.34766584766584,224.02912500000002L222.25122850122852,227.79843749999998L226.02886977886976,231.2555625L229.93243243243245,232.1060625L233.8359950859951,226.6918125L237.61363636363637,219.714375L241.51719901719903,214.5125625L245.30008701883702,221.40806250000003L249.20364967239968,224.63549999999998L253.10721232596234,224.346375L256.63301085176084,222.8210625L260.5313267813268,222.787125L264.3089680589681,228.7065L268.21253071253074,235.2226875L271.99017199017203,234.349875L275.89373464373466,233.3716875L279.7972972972973,230.68425000000002L283.5749385749386,226.7413125L287.4785012285012,226.883625L291.26138923013923,227.58L295.16495188370186,231.43256250000002L299.06851453726455,228.8394375L302.59431306306305,227.95462500000002L306.492628992629,230.258625L310.27027027027026,231.8499375L314.17383292383295,235.63162499999999L317.95147420147424,236.390625L321.8550368550369,239.8921875L325.7585995085995,238.31475L329.5362407862408,229.90425L333.4398034398034,226.323375L337.22269144144144,229.3404375L341.1262540950041,237.589875L345.02981674856676,235.4593125L348.68153665028666,235.29037499999998L352.57985257985257,234.96131250000002L356.35749385749386,239.98031250000003L360.2610565110565,242.5843125L364.0386977886978,242.6278125L367.9422604422604,250.2811875L371.8458230958231,247.749L375.62346437346434,240.8878125L379.52702702702703,239.69493749999998L383.30991502866505,243.775125L387.2134776822277,244.09425L391.1170403357903,248.709L394.64283886158887,246.2840625L398.5411547911548,242.83556249999998L402.3187960687961,250.3850625L406.2223587223587,254.72775000000001L410,251.3218125" data-legend="c++" style="stroke: rgb(44, 160, 44); fill: none;"></path><path class="line" d="M3.9035626535626538,229.50356250000002L7.681203931203931,235.42725000000002L11.584766584766585,234.29700000000003L15.367654586404585,232.405125L19.27121723996724,226.35675L23.174779893529895,233.583L26.70057841932842,230.68593750000002L30.598894348894348,233.52056249999998L34.37653562653563,228.256875L38.28009828009828,231.72449999999998L42.05773955773956,233.26181250000002L45.96130221130221,235.29806250000001L49.86486486486487,234.20962500000002L53.64250614250615,227.1646875L57.546068796068795,224.530875L61.328956797706795,221.926125L65.23251945126945,219.2604375L69.1360821048321,222.56925L72.66188063063062,226.22081250000002L76.56019656019656,232.60087500000003L80.33783783783784,227.9053125L84.2414004914005,226.2345L88.01904176904176,220.39218749999998L91.92260442260442,227.1628125L95.82616707616708,231.6046875L99.60380835380836,222.13350000000003L103.50737100737102,230.314125L107.29025900900902,233.63081250000002L111.19382166257166,232.541625L115.09738431613431,232.54443750000002L118.62318284193283,231.064875L122.52149877149877,235.3190625L126.29914004914005,234.9335625L130.20270270270268,235.1810625L133.98034398034397,232.44225L137.88390663390663,233.81324999999998L141.7874692874693,236.4185625L145.5651105651106,233.7736875L149.46867321867322,234.2023125L153.25156122031123,235.36575L157.15512387387386,232.939125L161.05868652743652,233.0859375L164.71040642915642,230.51606249999998L168.60872235872236,229.50093750000002L172.38636363636365,229.9419375L176.28992628992629,225.5926875L180.06756756756758,225.5056875L183.9711302211302,223.4625L187.87469287469287,226.37793750000003L191.65233415233416,224.3055L195.5558968058968,220.13325L199.3387848075348,221.42700000000002L203.24234746109747,223.0888125L207.14591011466013,219.241875L210.67170864045866,219.15506249999999L214.5700245700246,214.88437499999998L218.34766584766584,213.34425L222.25122850122852,211.47000000000003L226.02886977886976,210.18225L229.93243243243245,213.88162499999999L233.8359950859951,211.1120625L237.61363636363637,204.88350000000003L241.51719901719903,200.40525L245.30008701883702,205.4079375L249.20364967239968,203.77949999999998L253.10721232596234,202.7518125L256.63301085176084,198.54674999999997L260.5313267813268,197.6679375L264.3089680589681,202.98056250000002L268.21253071253074,198.952875L271.99017199017203,196.5549375L275.89373464373466,197.13487500000002L279.7972972972973,202.2256875L283.5749385749386,197.39325L287.4785012285012,193.6708125L291.26138923013923,192.33675L295.16495188370186,191.994L299.06851453726455,187.88493749999998L302.59431306306305,186.84918750000003L306.492628992629,188.31318750000003L310.27027027027026,188.1463125L314.17383292383295,183.6991875L317.95147420147424,183.174375L321.8550368550369,185.35256249999998L325.7585995085995,185.80425000000002L329.5362407862408,175.870875L333.4398034398034,172.144875L337.22269144144144,175.2609375L341.1262540950041,173.712L345.02981674856676,169.877625L348.68153665028666,170.8078125L352.57985257985257,171.3654375L356.35749385749386,172.0280625L360.2610565110565,170.3803125L364.0386977886978,165.6140625L367.9422604422604,170.73075000000003L371.8458230958231,172.480875L375.62346437346434,163.926375L379.52702702702703,156.296625L383.30991502866505,157.59243750000002L387.2134776822277,156.88218750000001L391.1170403357903,149.26049999999998L394.64283886158887,149.1860625L398.5411547911548,144.885L402.3187960687961,146.6300625L406.2223587223587,140.7710625L410,134.5674375" data-legend="python" style="stroke: rgb(214, 39, 40); fill: none;"></path><path class="line" d="M3.9035626535626538,87.09187499999999L7.681203931203931,49.498125000000016L11.584766584766585,49.344375000000014L15.367654586404585,56.72062500000001L19.27121723996724,23.896875000000023L23.174779893529895,26.671875L26.70057841932842,14.621249999999975L30.598894348894348,12.037500000000023L34.37653562653563,44.70750000000001L38.28009828009828,45.78L42.05773955773956,48.605625L45.96130221130221,47.81062499999999L49.86486486486487,55.123125000000016L53.64250614250615,58.28812500000001L57.546068796068795,74.36249999999998L61.328956797706795,79.15875L65.23251945126945,87.94125000000003L69.1360821048321,87.924375L72.66188063063062,84.69562499999998L76.56019656019656,85.21875L80.33783783783784,87.45562500000005L84.2414004914005,94.69874999999999L88.01904176904176,95.36812499999999L91.92260442260442,96.16125L95.82616707616708,105.32250000000002L99.60380835380836,103.261875L103.50737100737102,104.75812499999998L107.29025900900902,109.965L111.19382166257166,114.25818749999999L115.09738431613431,115.68056250000001L118.62318284193283,116.23987500000001L122.52149877149877,119.93531249999998L126.29914004914005,114.2323125L130.20270270270268,116.91843749999998L133.98034398034397,122.557875L137.88390663390663,125.83706249999997L141.7874692874693,130.9475625L145.5651105651106,131.1661875L149.46867321867322,131.3533125L153.25156122031123,133.12106250000002L157.15512387387386,133.05206249999998L161.05868652743652,139.0569375L164.71040642915642,138.92043750000002L168.60872235872236,139.966125L172.38636363636365,140.17856250000003L176.28992628992629,139.3993125L180.06756756756758,139.0813125L183.9711302211302,143.30081249999998L187.87469287469287,141.8626875L191.65233415233416,142.34775L195.5558968058968,146.7905625L199.3387848075348,150.05381249999996L203.24234746109747,149.74612499999998L207.14591011466013,148.88625L210.67170864045866,148.009875L214.5700245700246,149.80668749999998L218.34766584766584,150.20193749999999L222.25122850122852,150.54693749999998L226.02886977886976,151.16062499999998L229.93243243243245,149.2119375L233.8359950859951,145.89862499999998L237.61363636363637,147.481125L241.51719901719903,146.766L245.30008701883702,147.27675000000002L249.20364967239968,149.55225L253.10721232596234,151.08318749999998L256.63301085176084,155.570625L260.5313267813268,154.11675L264.3089680589681,153.946875L268.21253071253074,157.170375L271.99017199017203,156.82800000000003L275.89373464373466,158.333625L279.7972972972973,162.4606875L283.5749385749386,165.4291875L287.4785012285012,167.973L291.26138923013923,167.45775L295.16495188370186,168.560625L299.06851453726455,170.04018750000003L302.59431306306305,170.55787500000002L306.492628992629,171.852375L310.27027027027026,166.4379375L314.17383292383295,166.2515625L317.95147420147424,165.68625L321.8550368550369,164.47631250000003L325.7585995085995,165.39037499999998L329.5362407862408,172.72125L333.4398034398034,170.8779375L337.22269144144144,169.22025L341.1262540950041,173.712L345.02981674856676,174.5765625L348.68153665028666,174.6875625L352.57985257985257,170.7230625L356.35749385749386,167.8155L360.2610565110565,168.3954375L364.0386977886978,173.78925L367.9422604422604,171.2385L371.8458230958231,182.914125L375.62346437346434,181.75706250000002L379.52702702702703,180.67818750000004L383.30991502866505,181.343625L387.2134776822277,181.7383125L391.1170403357903,181.96875L394.64283886158887,184.209L398.5411547911548,187.9408125L402.3187960687961,184.115625L406.2223587223587,186.8505L410,187.6951875" data-legend="c#" style="stroke: rgb(148, 103, 189); fill: none;"></path><path class="line" d="M3.9035626535626538,217.366875L7.681203931203931,209.04525L11.584766584766585,216.4963125L15.367654586404585,204.3928125L19.27121723996724,208.120125L23.174779893529895,200.21699999999998L26.70057841932842,208.8448125L30.598894348894348,208.709625L34.37653562653563,197.223L38.28009828009828,198.337875L42.05773955773956,200.26293750000002L45.96130221130221,194.6330625L49.86486486486487,201.735L53.64250614250615,196.0516875L57.546068796068795,192.7089375L61.328956797706795,186.8345625L65.23251945126945,191.9484375L69.1360821048321,190.7784375L72.66188063063062,193.962375L76.56019656019656,188.33437500000002L80.33783783783784,185.12568750000003L84.2414004914005,184.65637500000003L88.01904176904176,181.72893750000003L91.92260442260442,183.29193750000002L95.82616707616708,178.4585625L99.60380835380836,179.94L103.50737100737102,178.8980625L107.29025900900902,167.712375L111.19382166257166,173.60775L115.09738431613431,174.66825L118.62318284193283,175.69762500000002L122.52149877149877,166.04268750000003L126.29914004914005,165.0230625L130.20270270270268,156.314625L133.98034398034397,150.91575L137.88390663390663,145.839L141.7874692874693,151.1265L145.5651105651106,153.1145625L149.46867321867322,152.3855625L153.25156122031123,151.19025L157.15512387387386,146.901L161.05868652743652,150.76443749999999L164.71040642915642,151.9820625L168.60872235872236,146.51999999999998L172.38636363636365,141.268875L176.28992628992629,140.8305L180.06756756756758,139.197375L183.9711302211302,136.97475L187.87469287469287,143.50425L191.65233415233416,146.72325L195.5558968058968,145.57275L199.3387848075348,139.4101875L203.24234746109747,137.64974999999998L207.14591011466013,134.86237500000001L210.67170864045866,136.80168749999999L214.5700245700246,134.0634375L218.34766584766584,132.9871875L222.25122850122852,129.6999375L226.02886977886976,123.69187499999998L229.93243243243245,116.82862499999999L233.8359950859951,101.578125L237.61363636363637,101.50687500000001L241.51719901719903,105.54750000000001L245.30008701883702,97.9125L249.20364967239968,92.96625L253.10721232596234,91.423125L256.63301085176084,97.89749999999998L260.5313267813268,95.75062500000001L264.3089680589681,92.07750000000001L268.21253071253074,91.258125L271.99017199017203,89.71124999999998L275.89373464373466,90.59812499999998L279.7972972972973,97.97625000000002L283.5749385749386,97.31812500000001L287.4785012285012,99.99937499999999L291.26138923013923,97.04249999999999L295.16495188370186,93.28312499999998L299.06851453726455,94.738125L302.59431306306305,99.76875000000004L306.492628992629,95.80687499999999L310.27027027027026,78.98250000000002L314.17383292383295,77.139375L317.95147420147424,72.65437500000002L321.8550368550369,73.509375L325.7585995085995,76.81125L329.5362407862408,83.04000000000002L333.4398034398034,78.49687500000002L337.22269144144144,73.56937500000001L341.1262540950041,69.45000000000002L345.02981674856676,79.138125L348.68153665028666,78.56062499999999L352.57985257985257,79.486875L356.35749385749386,75.178125L360.2610565110565,77.176875L364.0386977886978,67.6875L367.9422604422604,71.360625L371.8458230958231,83.75625000000005L375.62346437346434,89.116875L379.52702702702703,87.79500000000002L383.30991502866505,79.65562500000001L387.2134776822277,80.454375L391.1170403357903,82.48500000000001L394.64283886158887,87.00937499999998L398.5411547911548,85.5675L402.3187960687961,84.44437500000001L406.2223587223587,82.888125L410,85.145625" data-legend="javascript" style="stroke: rgb(140, 86, 75); fill: none;"></path><path class="line" d="M3.9035626535626538,296.3848125L7.681203931203931,297.99L11.584766584766585,297.5398125L15.367654586404585,297.1074375L19.27121723996724,297.4445625L23.174779893529895,296.013L26.70057841932842,297.924375L30.598894348894348,295.764L34.37653562653563,296.5599375L38.28009828009828,296.798625L42.05773955773956,298.176375L45.96130221130221,297.285375L49.86486486486487,296.4665625L53.64250614250615,296.225625L57.546068796068795,296.010375L61.328956797706795,296.9124375L65.23251945126945,295.8331875L69.1360821048321,297.1475625L72.66188063063062,295.670625L76.56019656019656,295.4105625L80.33783783783784,296.0818125L84.2414004914005,296.9805L88.01904176904176,297.0189375L91.92260442260442,297.5015625L95.82616707616708,296.467125L99.60380835380836,296.435625L103.50737100737102,295.624875L107.29025900900902,296.710875L111.19382166257166,296.904375L115.09738431613431,296.7106875L118.62318284193283,296.4391875L122.52149877149877,296.962125L126.29914004914005,297.0825L130.20270270270268,297.42075L133.98034398034397,297.403875L137.88390663390663,297.2874375L141.7874692874693,297.2075625L145.5651105651106,296.151375L149.46867321867322,296.3878125L153.25156122031123,295.957125L157.15512387387386,297.3253125L161.05868652743652,296.5515L164.71040642915642,296.4129375L168.60872235872236,296.076375L172.38636363636365,296.86575L176.28992628992629,297.1378125L180.06756756756758,297.4078125L183.9711302211302,297.5319375L187.87469287469287,296.82825L191.65233415233416,296.102625L195.5558968058968,296.209875L199.3387848075348,296.33925L203.24234746109747,296.4778125L207.14591011466013,296.1538125L210.67170864045866,296.103375L214.5700245700246,296.38575L218.34766584766584,296.6911875L222.25122850122852,296.5216875L226.02886977886976,296.8905L229.93243243243245,297.6815625L233.8359950859951,296.728875L237.61363636363637,296.1579375L241.51719901719903,295.6378125L245.30008701883702,296.038875L249.20364967239968,296.698875L253.10721232596234,296.3115L256.63301085176084,295.9794375L260.5313267813268,296.5246875L264.3089680589681,296.482125L268.21253071253074,296.9289375L271.99017199017203,297.768375L275.89373464373466,297.9395625L279.7972972972973,296.8123125L283.5749385749386,295.8376875L287.4785012285012,295.7263125L291.26138923013923,296.109L295.16495188370186,296.313375L299.06851453726455,296.032125L302.59431306306305,296.2123125L306.492628992629,295.6865625L310.27027027027026,296.3128125L314.17383292383295,297.3721875L317.95147420147424,297.538125L321.8550368550369,297.8030625L325.7585995085995,297.2960625L329.5362407862408,295.7188125L333.4398034398034,295.849125L337.22269144144144,296.1928125L341.1262540950041,297.4393125L345.02981674856676,296.5755L348.68153665028666,295.94775L352.57985257985257,296.1271875L356.35749385749386,296.81175L360.2610565110565,297.1318125L364.0386977886978,297.930375L367.9422604422604,297.519L371.8458230958231,296.7226875L375.62346437346434,296.055L379.52702702702703,296.0521875L383.30991502866505,296.6979375L387.2134776822277,297.1141875L391.1170403357903,297.05925L394.64283886158887,296.8198125L398.5411547911548,296.9735625L402.3187960687961,296.8614375L406.2223587223587,297.783L410,297.9635625" data-legend="assembly" style="stroke: rgb(227, 119, 194); fill: none;"></path><path class="line" d="M3.9035626535626538,236.73393750000002L7.681203931203931,221.73375L11.584766584766585,226.62675000000002L15.367654586404585,227.07675L19.27121723996724,225.4275L23.174779893529895,218.89350000000002L26.70057841932842,218.140875L30.598894348894348,215.9713125L34.37653562653563,214.78256249999998L38.28009828009828,196.508625L42.05773955773956,183.6781875L45.96130221130221,175.573125L49.86486486486487,172.28924999999998L53.64250614250615,178.4548125L57.546068796068795,169.68356250000002L61.328956797706795,160.711875L65.23251945126945,157.375125L69.1360821048321,168.4545L72.66188063063062,166.2819375L76.56019656019656,164.1654375L80.33783783783784,157.057125L84.2414004914005,163.1870625L88.01904176904176,158.70131250000003L91.92260442260442,149.27025L95.82616707616708,156.9586875L99.60380835380836,167.6529375L103.50737100737102,162.61668749999998L107.29025900900902,155.21831250000002L111.19382166257166,149.9743125L115.09738431613431,149.26406250000002L118.62318284193283,149.74874999999997L122.52149877149877,150.68006250000002L126.29914004914005,149.609625L130.20270270270268,149.0775L133.98034398034397,139.049625L137.88390663390663,144.65437500000002L141.7874692874693,152.0994375L145.5651105651106,151.42631250000002L149.46867321867322,151.1195625L153.25156122031123,149.89575000000002L157.15512387387386,150.24075L161.05868652743652,150.6163125L164.71040642915642,147.9705L168.60872235872236,149.2636875L172.38636363636365,148.5594375L176.28992628992629,149.26312499999997L180.06756756756758,145.762125L183.9711302211302,143.028L187.87469287469287,145.0485L191.65233415233416,153.378375L195.5558968058968,151.239375L199.3387848075348,146.9353125L203.24234746109747,147.4520625L207.14591011466013,146.602125L210.67170864045866,147.21375L214.5700245700246,153.12318750000003L218.34766584766584,152.4444375L222.25122850122852,149.7148125L226.02886977886976,148.4551875L229.93243243243245,142.79568749999999L233.8359950859951,138.9125625L237.61363636363637,144.03712499999997L241.51719901719903,141.77887500000003L245.30008701883702,136.64681249999998L249.20364967239968,133.0850625L253.10721232596234,134.83612499999998L256.63301085176084,134.6115L260.5313267813268,129.62868749999998L264.3089680589681,142.9051875L268.21253071253074,149.779125L271.99017199017203,148.93425000000002L275.89373464373466,148.62506249999998L279.7972972972973,149.4114375L283.5749385749386,152.4444375L287.4785012285012,153.42656250000002L291.26138923013923,150.34912500000002L295.16495188370186,146.13150000000002L299.06851453726455,150.0045L302.59431306306305,152.56575L306.492628992629,152.14181250000001L310.27027027027026,152.924625L314.17383292383295,156.8536875L317.95147420147424,152.4174375L321.8550368550369,152.4485625L325.7585995085995,157.13400000000001L329.5362407862408,160.15293749999998L333.4398034398034,159.856875L337.22269144144144,150.64068749999998L341.1262540950041,149.511L345.02981674856676,151.68468750000002L348.68153665028666,159.3868125L352.57985257985257,161.86950000000002L356.35749385749386,157.158375L360.2610565110565,161.13037500000002L364.0386977886978,163.01643750000002L367.9422604422604,169.03500000000003L371.8458230958231,172.31175L375.62346437346434,172.6220625L379.52702702702703,176.584125L383.30991502866505,171.57675L387.2134776822277,169.47975L391.1170403357903,170.609625L394.64283886158887,172.5585L398.5411547911548,173.37825L402.3187960687961,173.695875L406.2223587223587,179.4631875L410,179.27549999999997" data-legend="php" style="stroke: rgb(127, 127, 127); fill: none;"></path><path class="line" d="M3.9035626535626538,282.6988125L7.681203931203931,283.668375L11.584766584766585,285.96225L15.367654586404585,279.4475625L19.27121723996724,282.6928125L23.174779893529895,282.7925625L26.70057841932842,287.1841875L30.598894348894348,285.99525L34.37653562653563,285.880875L38.28009828009828,283.7968125L42.05773955773956,285.2390625L45.96130221130221,285.7475625L49.86486486486487,285.9781875L53.64250614250615,285.6166875L57.546068796068795,284.3775L61.328956797706795,287.15925L65.23251945126945,287.4579375L69.1360821048321,285.57225L72.66188063063062,286.053375L76.56019656019656,286.379625L80.33783783783784,289.7415L84.2414004914005,286.22925L88.01904176904176,286.6155L91.92260442260442,283.9625625L95.82616707616708,286.0794375L99.60380835380836,285.539625L103.50737100737102,287.5903125L107.29025900900902,286.6306875L111.19382166257166,288.7955625L115.09738431613431,289.087125L118.62318284193283,288.91575L122.52149877149877,289.2519375L126.29914004914005,289.3025625L130.20270270270268,289.42275L133.98034398034397,287.8963125L137.88390663390663,289.35525L141.7874692874693,290.9555625L145.5651105651106,289.8155625L149.46867321867322,289.6696875L153.25156122031123,290.335875L157.15512387387386,290.9626875L161.05868652743652,290.8531875L164.71040642915642,291.6073125L168.60872235872236,291.4134375L172.38636363636365,291.0605625L176.28992628992629,289.5046875L180.06756756756758,291.3976875L183.9711302211302,289.97175L187.87469287469287,290.6235L191.65233415233416,291.4453125L195.5558968058968,292.034625L199.3387848075348,292.3936875L203.24234746109747,292.1908125L207.14591011466013,290.970375L210.67170864045866,290.8764375L214.5700245700246,290.773125L218.34766584766584,289.798875L222.25122850122852,290.1429375L226.02886977886976,289.7589375L229.93243243243245,290.7691875L233.8359950859951,292.138125L237.61363636363637,291.579375L241.51719901719903,291.2338125L245.30008701883702,291.2565L249.20364967239968,291.9024375L253.10721232596234,292.027875L256.63301085176084,291.7029375L260.5313267813268,292.0509375L264.3089680589681,291.4905L268.21253071253074,292.0689375L271.99017199017203,292.178625L275.89373464373466,292.1390625L279.7972972972973,292.2898125L283.5749385749386,293.0311875L287.4785012285012,292.65L291.26138923013923,293.1613125L295.16495188370186,293.2779375L299.06851453726455,293.7429375L302.59431306306305,293.53575L306.492628992629,294.2551875L310.27027027027026,294.652125L314.17383292383295,294.19725L317.95147420147424,294.4275L321.8550368550369,294.2394375L325.7585995085995,294.96375L329.5362407862408,294.9215625L333.4398034398034,295.076625L337.22269144144144,294.8101875L341.1262540950041,295.3036875L345.02981674856676,294.9995625L348.68153665028666,295.5751875L352.57985257985257,295.2706875L356.35749385749386,295.111125L360.2610565110565,295.48425L364.0386977886978,295.395L367.9422604422604,295.3635L371.8458230958231,295.4079375L375.62346437346434,296.036625L379.52702702702703,296.353875L383.30991502866505,296.4095625L387.2134776822277,296.766L391.1170403357903,296.066625L394.64283886158887,296.5025625L398.5411547911548,296.5018125L402.3187960687961,296.793375L406.2223587223587,296.8873125L410,296.91975" data-legend="perl" style="stroke: rgb(188, 189, 34); fill: none;"></path><path class="line" d="M3.9035626535626538,262.4278125L7.681203931203931,268.34175L11.584766584766585,276.844875L15.367654586404585,275.48925L19.27121723996724,275.6071875L23.174779893529895,269.88675L26.70057841932842,270.21675L30.598894348894348,268.9648125L34.37653562653563,271.04475L38.28009828009828,271.579125L42.05773955773956,271.33275L45.96130221130221,272.5696875L49.86486486486487,273.13425L53.64250614250615,274.8035625L57.546068796068795,268.32225L61.328956797706795,271.8189375L65.23251945126945,271.5328125L69.1360821048321,271.351125L72.66188063063062,275.300625L76.56019656019656,272.0188125L80.33783783783784,272.2520625L84.2414004914005,271.5954375L88.01904176904176,272.1358125L91.92260442260442,271.004625L95.82616707616708,271.5549375L99.60380835380836,273.1655625L103.50737100737102,275.206875L107.29025900900902,272.8635L111.19382166257166,272.11575L115.09738431613431,272.0844375L118.62318284193283,269.8329375L122.52149877149877,271.5050625L126.29914004914005,271.173375L130.20270270270268,270.9215625L133.98034398034397,270.783L137.88390663390663,267.705L141.7874692874693,271.85775L145.5651105651106,270.5176875L149.46867321867322,270.4603125L153.25156122031123,269.71331250000003L157.15512387387386,269.48475L161.05868652743652,269.569875L164.71040642915642,269.68725L168.60872235872236,271.666875L172.38636363636365,272.77275L176.28992628992629,273.3268125L180.06756756756758,273.1738125L183.9711302211302,272.92875L187.87469287469287,272.6630625L191.65233415233416,272.1170625L195.5558968058968,273.4565625L199.3387848075348,274.008L203.24234746109747,273.026625L207.14591011466013,273.207L210.67170864045866,272.82825L214.5700245700246,273.4565625L218.34766584766584,274.0681875L222.25122850122852,274.161L226.02886977886976,274.5215625L229.93243243243245,273.0624375L233.8359950859951,273.298125L237.61363636363637,272.13L241.51719901719903,273.0555L245.30008701883702,272.6488125L249.20364967239968,272.978625L253.10721232596234,274.34625L256.63301085176084,273.8476875L260.5313267813268,274.005L264.3089680589681,272.11575L268.21253071253074,273.5064375L271.99017199017203,273.4051875L275.89373464373466,272.16168749999997L279.7972972972973,274.7623125L283.5749385749386,275.0791875L287.4785012285012,276.6643125L291.26138923013923,274.4608125L295.16495188370186,273.0013125L299.06851453726455,275.2224375L302.59431306306305,276.0751875L306.492628992629,275.647125L310.27027027027026,275.059125L314.17383292383295,274.659L317.95147420147424,275.6049375L321.8550368550369,276.3699375L325.7585995085995,277.563375L329.5362407862408,278.28825L333.4398034398034,279.657375L337.22269144144144,278.3150625L341.1262540950041,278.1170625L345.02981674856676,277.9935L348.68153665028666,279.28425L352.57985257985257,279.267L356.35749385749386,279.36225L360.2610565110565,278.909625L364.0386977886978,280.1101875L367.9422604422604,281.0034375L371.8458230958231,280.3824375L375.62346437346434,281.86725L379.52702702702703,282.37181250000003L383.30991502866505,282.3159375L387.2134776822277,282.024375L391.1170403357903,283.6689375L394.64283886158887,284.463375L398.5411547911548,285.4018125L402.3187960687961,285.8038125L406.2223587223587,286.485L410,285.5994375" data-legend="ruby" style="stroke: rgb(23, 190, 207); fill: none;"></path><path class="line" d="M3.9035626535626538,299.871L7.681203931203931,300L11.584766584766585,299.8554375L15.367654586404585,300L19.27121723996724,300L23.174779893529895,300L26.70057841932842,300L30.598894348894348,299.827125L34.37653562653563,299.928375L38.28009828009828,299.7388125L42.05773955773956,300L45.96130221130221,299.8869375L49.86486486486487,299.77575L53.64250614250615,300L57.546068796068795,299.8558125L61.328956797706795,299.9510625L65.23251945126945,299.95875L69.1360821048321,299.95875L72.66188063063062,299.9645625L76.56019656019656,299.9630625L80.33783783783784,299.8933125L84.2414004914005,300L88.01904176904176,299.8785L91.92260442260442,299.913L95.82616707616708,299.9094375L99.60380835380836,299.9420625L103.50737100737102,299.8940625L107.29025900900902,299.9735625L111.19382166257166,299.953875L115.09738431613431,299.9555625L118.62318284193283,300L122.52149877149877,299.923125L126.29914004914005,300L130.20270270270268,299.9445L133.98034398034397,299.8355625L137.88390663390663,299.88L141.7874692874693,299.946L145.5651105651106,299.89125L149.46867321867322,299.949375L153.25156122031123,299.982375L157.15512387387386,299.9368125L161.05868652743652,299.8965L164.71040642915642,299.94525L168.60872235872236,299.900625L172.38636363636365,299.9319375L176.28992628992629,299.986125L180.06756756756758,299.9484375L183.9711302211302,299.9480625L187.87469287469287,299.958375L191.65233415233416,299.975625L195.5558968058968,299.97525L199.3387848075348,299.9865L203.24234746109747,299.9653125L207.14591011466013,299.9645625L210.67170864045866,299.9686875L214.5700245700246,299.9469375L218.34766584766584,300L222.25122850122852,299.9885625L226.02886977886976,299.979375L229.93243243243245,299.9893125L233.8359950859951,299.9113125L237.61363636363637,299.9304375L241.51719901719903,299.9791875L245.30008701883702,299.9446875L249.20364967239968,299.9611875L253.10721232596234,299.93175L256.63301085176084,299.96475L260.5313267813268,299.971875L264.3089680589681,299.9274375L268.21253071253074,272.85393750000003L271.99017199017203,283.0036875L275.89373464373466,280.862625L279.7972972972973,278.9206875L283.5749385749386,273.6811875L287.4785012285012,271.698375L291.26138923013923,270.42825L295.16495188370186,266.0475L299.06851453726455,264.496125L302.59431306306305,264.9339375L306.492628992629,260.724L310.27027027027026,262.247625L314.17383292383295,257.4556875L317.95147420147424,251.2663125L321.8550368550369,248.275125L325.7585995085995,252.691125L329.5362407862408,257.37375L333.4398034398034,255.26681250000001L337.22269144144144,253.1525625L341.1262540950041,251.011125L345.02981674856676,253.428375L348.68153665028666,253.4985L352.57985257985257,255.201L356.35749385749386,256.7630625L360.2610565110565,251.9833125L364.0386977886978,248.3505L367.9422604422604,250.903875L371.8458230958231,248.5003125L375.62346437346434,252.164625L379.52702702702703,255.888375L383.30991502866505,256.92375L387.2134776822277,256.554375L391.1170403357903,258.58856249999997L394.64283886158887,259.6635L398.5411547911548,261.466125L402.3187960687961,261.5023125L406.2223587223587,258.7363125L410,257.919" data-legend="swift" style="stroke: rgb(31, 119, 180); fill: none;"></path><path class="line" d="M3.9035626535626538,299.2254375L7.681203931203931,300L11.584766584766585,299.8554375L15.367654586404585,299.8479375L19.27121723996724,299.07075L23.174779893529895,299.05575L26.70057841932842,299.6390625L30.598894348894348,298.96275L34.37653562653563,299.85675L38.28009828009828,299.673375L42.05773955773956,297.0935625L45.96130221130221,297.3418125L49.86486486486487,292.2039375L53.64250614250615,296.276625L57.546068796068795,295.481625L61.328956797706795,296.0791875L65.23251945126945,296.0806875L69.1360821048321,294.956625L72.66188063063062,295.0318125L76.56019656019656,294.0781875L80.33783783783784,295.048875L84.2414004914005,294.0935625L88.01904176904176,292.8515625L91.92260442260442,291.7779375L95.82616707616708,292.8736875L99.60380835380836,293.7695625L103.50737100737102,293.5299375L107.29025900900902,294.058125L111.19382166257166,294.201375L115.09738431613431,292.8433125L118.62318284193283,292.27575L122.52149877149877,290.8093125L126.29914004914005,292.1465625L130.20270270270268,291.7423125L133.98034398034397,291.699375L137.88390663390663,289.921875L141.7874692874693,288.9556875L145.5651105651106,288.69L149.46867321867322,289.7203125L153.25156122031123,289.077L157.15512387387386,289.0633125L161.05868652743652,287.9375625L164.71040642915642,287.7736875L168.60872235872236,287.8876875L172.38636363636365,287.9671875L176.28992628992629,286.319625L180.06756756756758,285.465L183.9711302211302,285.7629375L187.87469287469287,285.2116875L191.65233415233416,284.3488125L195.5558968058968,283.24875L199.3387848075348,283.431375L203.24234746109747,282.3770625L207.14591011466013,280.0235625L210.67170864045866,280.485375L214.5700245700246,280.302375L218.34766584766584,280.2571875L222.25122850122852,279.37275L226.02886977886976,279.445125L229.93243243243245,279.1768125L233.8359950859951,280.882875L237.61363636363637,278.9581875L241.51719901719903,277.1055L245.30008701883702,278.762625L249.20364967239968,277.0081875L253.10721232596234,274.36575L256.63301085176084,274.9850625L260.5313267813268,274.0614375L264.3089680589681,272.966625L268.21253071253074,272.8764375L271.99017199017203,272.5580625L275.89373464373466,272.0945625L279.7972972972973,273.63712499999997L283.5749385749386,270.3555L287.4785012285012,270.006375L291.26138923013923,272.020125L295.16495188370186,269.9439375L299.06851453726455,267.4501875L302.59431306306305,265.252875L306.492628992629,267.697125L310.27027027027026,265.94475L314.17383292383295,266.2381875L317.95147420147424,262.3644375L321.8550368550369,264.403125L325.7585995085995,265.3955625L329.5362407862408,263.45625L333.4398034398034,263.3420625L337.22269144144144,265.9359375L341.1262540950041,263.916375L345.02981674856676,264.6650625L348.68153665028666,262.9205625L352.57985257985257,261.1314375L356.35749385749386,262.98525L360.2610565110565,261.342375L364.0386977886978,260.9240625L367.9422604422604,262.332375L371.8458230958231,265.9580625L375.62346437346434,262.105125L379.52702702702703,263.8115625L383.30991502866505,265.2485625L387.2134776822277,264.616875L391.1170403357903,262.4668125L394.64283886158887,258.8465625L398.5411547911548,257.5228125L402.3187960687961,258.6699375L406.2223587223587,255.3751875L410,255.00975" data-legend="r" style="stroke: rgb(255, 127, 14); fill: none;"></path><path class="line" d="M3.9035626535626538,298.579875L7.681203931203931,298.4925L11.584766584766585,298.697625L15.367654586404585,299.0866875L19.27121723996724,298.9546875L23.174779893529895,298.1115L26.70057841932842,299.3683125L30.598894348894348,299.3085L34.37653562653563,298.71L38.28009828009828,298.432125L42.05773955773956,299.0311875L45.96130221130221,298.19025L49.86486486486487,298.4296875L53.64250614250615,299.184L57.546068796068795,298.606125L61.328956797706795,298.774875L65.23251945126945,299.05125L69.1360821048321,299.090625L72.66188063063062,298.935375L76.56019656019656,298.667625L80.33783783783784,297.68475L84.2414004914005,298.6065L88.01904176904176,298.96575L91.92260442260442,298.8088125L95.82616707616708,298.762125L99.60380835380836,298.8699375L103.50737100737102,298.992375L107.29025900900902,298.514625L111.19382166257166,298.660125L115.09738431613431,298.333125L118.62318284193283,298.7949375L122.52149877149877,298.500375L126.29914004914005,297.963375L130.20270270270268,298.2928125L133.98034398034397,298.4825625L137.88390663390663,298.5579375L141.7874692874693,298.612875L145.5651105651106,298.874625L149.46867321867322,298.9535625L153.25156122031123,298.5283125L157.15512387387386,298.5755625L161.05868652743652,298.475625L164.71040642915642,298.8500625L168.60872235872236,298.43625L172.38636363636365,298.2830625L176.28992628992629,298.3865625L180.06756756756758,298.1428125L183.9711302211302,298.2465L187.87469287469287,298.275L191.65233415233416,298.7745L195.5558968058968,298.88175L199.3387848075348,298.9696875L203.24234746109747,298.563375L207.14591011466013,298.6155L210.67170864045866,298.1985L214.5700245700246,298.118625L218.34766584766584,298.0213125L222.25122850122852,298.197375L226.02886977886976,297.927L229.93243243243245,297.97275L233.8359950859951,298.015125L237.61363636363637,298.0093125L241.51719901719903,297.9283125L245.30008701883702,297.9140625L249.20364967239968,298.22325L253.10721232596234,297.8045625L256.63301085176084,297.9631875L260.5313267813268,297.8431875L264.3089680589681,297.5821875L268.21253071253074,297.7164375L271.99017199017203,297.9853125L275.89373464373466,297.827625L279.7972972972973,298.1248125L283.5749385749386,297.9665625L287.4785012285012,298.3190625L291.26138923013923,298.3258125L295.16495188370186,298.1788125L299.06851453726455,298.092375L302.59431306306305,298.34775L306.492628992629,298.1915625L310.27027027027026,298.34925L314.17383292383295,298.573875L317.95147420147424,298.177125L321.8550368550369,298.3599375L325.7585995085995,298.2868125L329.5362407862408,298.435125L333.4398034398034,298.455L337.22269144144144,298.192125L341.1262540950041,298.107375L345.02981674856676,298.32675L348.68153665028666,298.0738125L352.57985257985257,298.194L356.35749385749386,298.164375L360.2610565110565,298.273125L364.0386977886978,298.00275L367.9422604422604,298.2661875L371.8458230958231,298.347375L375.62346437346434,298.5721875L379.52702702702703,298.3186875L383.30991502866505,298.3888125L387.2134776822277,298.25025L391.1170403357903,298.4653125L394.64283886158887,298.5249375L398.5411547911548,298.17525L402.3187960687961,298.4945625L406.2223587223587,298.64325L410,298.5369375" data-legend="lua" style="stroke: rgb(44, 160, 44); fill: none;"></path><path class="line" d="M3.9035626535626538,291.7366875L7.681203931203931,292.71375L11.584766584766585,294.3560625L15.367654586404585,293.4538125L19.27121723996724,292.9145625L23.174779893529895,291.816L26.70057841932842,291.0650625L30.598894348894348,294.294375L34.37653562653563,292.904625L38.28009828009828,292.813125L42.05773955773956,293.6169375L45.96130221130221,293.6090625L49.86486486486487,293.437875L53.64250614250615,292.19625L57.546068796068795,293.943375L61.328956797706795,294.1678125L65.23251945126945,293.3990625L69.1360821048321,293.7163125L72.66188063063062,292.1218125L76.56019656019656,292.3385625L80.33783783783784,293.4815625L84.2414004914005,293.463L88.01904176904176,294.1291875L91.92260442260442,293.3176875L95.82616707616708,291.81675L99.60380835380836,292.6395L103.50737100737102,291.832875L107.29025900900902,292.1746875L111.19382166257166,292.676625L115.09738431613431,293.2434375L118.62318284193283,293.11575L122.52149877149877,292.6936875L126.29914004914005,292.55025L130.20270270270268,292.7443125L133.98034398034397,292.6318125L137.88390663390663,292.1709375L141.7874692874693,292.72125L145.5651105651106,291.7580625L149.46867321867322,291.2225625L153.25156122031123,290.087625L157.15512387387386,290.45606250000003L161.05868652743652,291.09L164.71040642915642,290.5666875L168.60872235872236,290.7594375L172.38636363636365,290.7335625L176.28992628992629,290.753625L180.06756756756758,291.32025L183.9711302211302,290.764125L187.87469287469287,289.955625L191.65233415233416,290.1950625L195.5558968058968,289.9591875L199.3387848075348,290.6851875L203.24234746109747,290.1748125L207.14591011466013,289.1835L210.67170864045866,289.0119375L214.5700245700246,289.922625L218.34766584766584,289.062375L222.25122850122852,289.5073125L226.02886977886976,289.42725L229.93243243243245,288.235125L233.8359950859951,288.2570625L237.61363636363637,288.0556875L241.51719901719903,286.0801875L245.30008701883702,287.0956875L249.20364967239968,287.0476875L253.10721232596234,286.1925L256.63301085176084,287.311875L260.5313267813268,287.4451875L264.3089680589681,287.23575L268.21253071253074,286.5564375L271.99017199017203,287.1159375L275.89373464373466,287.0326875L279.7972972972973,286.300125L283.5749385749386,286.29525L287.4785012285012,285.9481875L291.26138923013923,287.5606875L295.16495188370186,286.3573125L299.06851453726455,285.6654375L302.59431306306305,285.853875L306.492628992629,286.33425L310.27027027027026,287.51475L314.17383292383295,286.47975L317.95147420147424,287.905875L321.8550368550369,287.9825625L325.7585995085995,288.2450625L329.5362407862408,286.9100625L333.4398034398034,286.9910625L337.22269144144144,287.3124375L341.1262540950041,287.2569375L345.02981674856676,286.2825L348.68153665028666,286.88925L352.57985257985257,285.5045625L356.35749385749386,286.2028125L360.2610565110565,286.6213125L364.0386977886978,286.5159375L367.9422604422604,286.2915L371.8458230958231,287.4350625L375.62346437346434,287.752875L379.52702702702703,287.992125L383.30991502866505,288.0151875L387.2134776822277,288.3095625L391.1170403357903,287.556375L394.64283886158887,286.581L398.5411547911548,286.434375L402.3187960687961,286.986L406.2223587223587,286.759875L410,287.7043125" data-legend="bash" style="stroke: rgb(214, 39, 40); fill: none;"></path></g></g><g transform="translate(20, 150)"><text transform="rotate(-90)" x="-50" y="0" dy="1em" class="axis-label y-axis-label" style="text-anchor: middle; font-weight: bold;">% of Stack Overflow questions that month</text></g><g class="legend" transform="translate(530, 30)" style="font-size: 12px;"><text class="legend-title" style="font-weight: bold;">Tag</text><g class="legend-items" transform="translate(0,20)"><text y="0em" x="1em">c#</text><text y="1em" x="1em">javascript</text><text y="2em" x="1em">java</text><text y="3em" x="1em">php</text><text y="4em" x="1em">python</text><text y="5em" x="1em">c++</text><text y="6em" x="1em">swift</text><text y="7em" x="1em">c</text><text y="8em" x="1em">r</text><text y="9em" x="1em">ruby</text><text y="10em" x="1em">perl</text><text y="11em" x="1em">bash</text><text y="12em" x="1em">assembly</text><text y="13em" x="1em">lua</text><circle cy="-0.25em" cx="0" r="0.4em" style="fill: rgb(148, 103, 189);"></circle><circle cy="0.75em" cx="0" r="0.4em" style="fill: rgb(140, 86, 75);"></circle><circle cy="1.75em" cx="0" r="0.4em" style="fill: rgb(31, 119, 180);"></circle><circle cy="2.75em" cx="0" r="0.4em" style="fill: rgb(127, 127, 127);"></circle><circle cy="3.75em" cx="0" r="0.4em" style="fill: rgb(214, 39, 40);"></circle><circle cy="4.75em" cx="0" r="0.4em" style="fill: rgb(44, 160, 44);"></circle><circle cy="5.75em" cx="0" r="0.4em" style="fill: rgb(31, 119, 180);"></circle><circle cy="6.75em" cx="0" r="0.4em" style="fill: rgb(255, 127, 14);"></circle><circle cy="7.75em" cx="0" r="0.4em" style="fill: rgb(255, 127, 14);"></circle><circle cy="8.75em" cx="0" r="0.4em" style="fill: rgb(23, 190, 207);"></circle><circle cy="9.75em" cx="0" r="0.4em" style="fill: rgb(188, 189, 34);"></circle><circle cy="10.75em" cx="0" r="0.4em" style="fill: rgb(214, 39, 40);"></circle><circle cy="11.75em" cx="0" r="0.4em" style="fill: rgb(227, 119, 194);"></circle><circle cy="12.75em" cx="0" r="0.4em" style="fill: rgb(44, 160, 44);"></circle></g><rect class="legend-box"></rect></g></svg>
            