
                <svg id="trend-chart" width="660" height="400" title="Stack Overflow Trends Chart" version="1.1" xmlns="http://www.w3.org/2000/svg"><g></g><g class="chart-area" transform="translate(100, 20)"><g transform="translate(0,300)" fill="none" font-size="10" font-family="sans-serif" text-anchor="middle"><path class="domain" stroke="#000" d="M0.5,6V0.5H410.5V6"></path><g class="tick" opacity="1" transform="translate(19.27121723996724,0)"><line stroke="#000" y2="6" x1="0.5" x2="0.5"></line><text fill="#000" y="9" x="0.5" dy="0.71em" style="font-size: 12px;">2009</text></g><g class="tick" opacity="1" transform="translate(65.23251945126945,0)"><line stroke="#000" y2="6" x1="0.5" x2="0.5"></line><text fill="#000" y="9" x="0.5" dy="0.71em" style="font-size: 12px;">2010</text></g><g class="tick" opacity="1" transform="translate(111.19382166257166,0)"><line stroke="#000" y2="6" x1="0.5" x2="0.5"></line><text fill="#000" y="9" x="0.5" dy="0.71em" style="font-size: 12px;">2011</text></g><g class="tick" opacity="1" transform="translate(157.15512387387386,0)"><line stroke="#000" y2="6" x1="0.5" x2="0.5"></line><text fill="#000" y="9" x="0.5" dy="0.71em" style="font-size: 12px;">2012</text></g><g class="tick" opacity="1" transform="translate(203.24234746109747,0)"><line stroke="#000" y2="6" x1="0.5" x2="0.5"></line><text fill="#000" y="9" x="0.5" dy="0.71em" style="font-size: 12px;">2013</text></g><g class="tick" opacity="1" transform="translate(249.20364967239968,0)"><line stroke="#000" y2="6" x1="0.5" x2="0.5"></line><text fill="#000" y="9" x="0.5" dy="0.71em" style="font-size: 12px;">2014</text></g><g class="tick" opacity="1" transform="translate(295.16495188370186,0)"><line stroke="#000" y2="6" x1="0.5" x2="0.5"></line><text fill="#000" y="9" x="0.5" dy="0.71em" style="font-size: 12px;">2015</text></g><g class="tick" opacity="1" transform="translate(341.1262540950041,0)"><line stroke="#000" y2="6" x1="0.5" x2="0.5"></line><text fill="#000" y="9" x="0.5" dy="0.71em" style="font-size: 12px;">2016</text></g><g class="tick" opacity="1" transform="translate(387.2134776822277,0)"><line stroke="#000" y2="6" x1="0.5" x2="0.5"></line><text fill="#000" y="9" x="0.5" dy="0.71em" style="font-size: 12px;">2017</text></g></g><g class="grid-lines" transform="translate(0,300)" fill="none" font-size="10" font-family="sans-serif" text-anchor="middle"><path class="domain" stroke="#000" d="M0.5,-300V0.5H410.5V-300"></path><g class="tick" opacity="1" transform="translate(19.27121723996724,0)"><line stroke="#000" y2="-300" x1="0.5" x2="0.5" style="stroke: #ccc; fill: none;"></line></g><g class="tick" opacity="1" transform="translate(65.23251945126945,0)"><line stroke="#000" y2="-300" x1="0.5" x2="0.5" style="stroke: #ccc; fill: none;"></line></g><g class="tick" opacity="1" transform="translate(111.19382166257166,0)"><line stroke="#000" y2="-300" x1="0.5" x2="0.5" style="stroke: #ccc; fill: none;"></line></g><g class="tick" opacity="1" transform="translate(157.15512387387386,0)"><line stroke="#000" y2="-300" x1="0.5" x2="0.5" style="stroke: #ccc; fill: none;"></line></g><g class="tick" opacity="1" transform="translate(203.24234746109747,0)"><line stroke="#000" y2="-300" x1="0.5" x2="0.5" style="stroke: #ccc; fill: none;"></line></g><g class="tick" opacity="1" transform="translate(249.20364967239968,0)"><line stroke="#000" y2="-300" x1="0.5" x2="0.5" style="stroke: #ccc; fill: none;"></line></g><g class="tick" opacity="1" transform="translate(295.16495188370186,0)"><line stroke="#000" y2="-300" x1="0.5" x2="0.5" style="stroke: #ccc; fill: none;"></line></g><g class="tick" opacity="1" transform="translate(341.1262540950041,0)"><line stroke="#000" y2="-300" x1="0.5" x2="0.5" style="stroke: #ccc; fill: none;"></line></g><g class="tick" opacity="1" transform="translate(387.2134776822277,0)"><line stroke="#000" y2="-300" x1="0.5" x2="0.5" style="stroke: #ccc; fill: none;"></line></g></g><text x="205" y="360" class="axis-label x-axis-label" style="text-anchor: middle; font-weight: bold;">Year</text><g fill="none" font-size="10" font-family="sans-serif" text-anchor="end"><path class="domain" stroke="#000" d="M-6,300.5H0.5V0.5H-6"></path><g class="tick" opacity="1" transform="translate(0,300)"><line stroke="#000" x2="-6" y1="0.5" y2="0.5"></line><text fill="#000" x="-9" y="0.5" dy="0.32em" style="font-size: 12px;">0.00%</text></g><g class="tick" opacity="1" transform="translate(0,280)"><line stroke="#000" x2="-6" y1="0.5" y2="0.5"></line><text fill="#000" x="-9" y="0.5" dy="0.32em" style="font-size: 12px;">0.20%</text></g><g class="tick" opacity="1" transform="translate(0,260)"><line stroke="#000" x2="-6" y1="0.5" y2="0.5"></line><text fill="#000" x="-9" y="0.5" dy="0.32em" style="font-size: 12px;">0.40%</text></g><g class="tick" opacity="1" transform="translate(0,240)"><line stroke="#000" x2="-6" y1="0.5" y2="0.5"></line><text fill="#000" x="-9" y="0.5" dy="0.32em" style="font-size: 12px;">0.60%</text></g><g class="tick" opacity="1" transform="translate(0,220)"><line stroke="#000" x2="-6" y1="0.5" y2="0.5"></line><text fill="#000" x="-9" y="0.5" dy="0.32em" style="font-size: 12px;">0.80%</text></g><g class="tick" opacity="1" transform="translate(0,200)"><line stroke="#000" x2="-6" y1="0.5" y2="0.5"></line><text fill="#000" x="-9" y="0.5" dy="0.32em" style="font-size: 12px;">1.00%</text></g><g class="tick" opacity="1" transform="translate(0,180)"><line stroke="#000" x2="-6" y1="0.5" y2="0.5"></line><text fill="#000" x="-9" y="0.5" dy="0.32em" style="font-size: 12px;">1.20%</text></g><g class="tick" opacity="1" transform="translate(0,160)"><line stroke="#000" x2="-6" y1="0.5" y2="0.5"></line><text fill="#000" x="-9" y="0.5" dy="0.32em" style="font-size: 12px;">1.40%</text></g><g class="tick" opacity="1" transform="translate(0,140)"><line stroke="#000" x2="-6" y1="0.5" y2="0.5"></line><text fill="#000" x="-9" y="0.5" dy="0.32em" style="font-size: 12px;">1.60%</text></g><g class="tick" opacity="1" transform="translate(0,120)"><line stroke="#000" x2="-6" y1="0.5" y2="0.5"></line><text fill="#000" x="-9" y="0.5" dy="0.32em" style="font-size: 12px;">1.80%</text></g><g class="tick" opacity="1" transform="translate(0,99.99999999999997)"><line stroke="#000" x2="-6" y1="0.5" y2="0.5"></line><text fill="#000" x="-9" y="0.5" dy="0.32em" style="font-size: 12px;">2.00%</text></g><g class="tick" opacity="1" transform="translate(0,80.00000000000003)"><line stroke="#000" x2="-6" y1="0.5" y2="0.5"></line><text fill="#000" x="-9" y="0.5" dy="0.32em" style="font-size: 12px;">2.20%</text></g><g class="tick" opacity="1" transform="translate(0,60)"><line stroke="#000" x2="-6" y1="0.5" y2="0.5"></line><text fill="#000" x="-9" y="0.5" dy="0.32em" style="font-size: 12px;">2.40%</text></g><g class="tick" opacity="1" transform="translate(0,40)"><line stroke="#000" x2="-6" y1="0.5" y2="0.5"></line><text fill="#000" x="-9" y="0.5" dy="0.32em" style="font-size: 12px;">2.60%</text></g><g class="tick" opacity="1" transform="translate(0,20)"><line stroke="#000" x2="-6" y1="0.5" y2="0.5"></line><text fill="#000" x="-9" y="0.5" dy="0.32em" style="font-size: 12px;">2.80%</text></g><g class="tick" opacity="1" transform="translate(0,0)"><line stroke="#000" x2="-6" y1="0.5" y2="0.5"></line><text fill="#000" x="-9" y="0.5" dy="0.32em" style="font-size: 12px;">3.00%</text></g></g><g class="grid-lines" fill="none" font-size="10" font-family="sans-serif" text-anchor="end"><path class="domain" stroke="#000" d="M410,300.5H0.5V0.5H410"></path><g class="tick" opacity="1" transform="translate(0,300)"><line stroke="#000" x2="410" y1="0.5" y2="0.5" style="stroke: #ccc; fill: none;"></line></g><g class="tick" opacity="1" transform="translate(0,280)"><line stroke="#000" x2="410" y1="0.5" y2="0.5" style="stroke: #ccc; fill: none;"></line></g><g class="tick" opacity="1" transform="translate(0,260)"><line stroke="#000" x2="410" y1="0.5" y2="0.5" style="stroke: #ccc; fill: none;"></line></g><g class="tick" opacity="1" transform="translate(0,240)"><line stroke="#000" x2="410" y1="0.5" y2="0.5" style="stroke: #ccc; fill: none;"></line></g><g class="tick" opacity="1" transform="translate(0,220)"><line stroke="#000" x2="410" y1="0.5" y2="0.5" style="stroke: #ccc; fill: none;"></line></g><g class="tick" opacity="1" transform="translate(0,200)"><line stroke="#000" x2="410" y1="0.5" y2="0.5" style="stroke: #ccc; fill: none;"></line></g><g class="tick" opacity="1" transform="translate(0,180)"><line stroke="#000" x2="410" y1="0.5" y2="0.5" style="stroke: #ccc; fill: none;"></line></g><g class="tick" opacity="1" transform="translate(0,160)"><line stroke="#000" x2="410" y1="0.5" y2="0.5" style="stroke: #ccc; fill: none;"></line></g><g class="tick" opacity="1" transform="translate(0,140)"><line stroke="#000" x2="410" y1="0.5" y2="0.5" style="stroke: #ccc; fill: none;"></line></g><g class="tick" opacity="1" transform="translate(0,120)"><line stroke="#000" x2="410" y1="0.5" y2="0.5" style="stroke: #ccc; fill: none;"></line></g><g class="tick" opacity="1" transform="translate(0,99.99999999999997)"><line stroke="#000" x2="410" y1="0.5" y2="0.5" style="stroke: #ccc; fill: none;"></line></g><g class="tick" opacity="1" transform="translate(0,80.00000000000003)"><line stroke="#000" x2="410" y1="0.5" y2="0.5" style="stroke: #ccc; fill: none;"></line></g><g class="tick" opacity="1" transform="translate(0,60)"><line stroke="#000" x2="410" y1="0.5" y2="0.5" style="stroke: #ccc; fill: none;"></line></g><g class="tick" opacity="1" transform="translate(0,40)"><line stroke="#000" x2="410" y1="0.5" y2="0.5" style="stroke: #ccc; fill: none;"></line></g><g class="tick" opacity="1" transform="translate(0,20)"><line stroke="#000" x2="410" y1="0.5" y2="0.5" style="stroke: #ccc; fill: none;"></line></g><g class="tick" opacity="1" transform="translate(0,0)"><line stroke="#000" x2="410" y1="0.5" y2="0.5" style="stroke: #ccc; fill: none;"></line></g></g><g class="lines"><path class="line" d="M3.9035626535626538,280.719L7.681203931203931,289.28L11.584766584766585,286.879L15.367654586404585,284.573L19.27121723996724,286.371L23.174779893529895,278.736L26.70057841932842,288.93L30.598894348894348,277.408L34.37653562653563,281.653L38.28009828009828,282.926L42.05773955773956,290.274L45.96130221130221,285.522L49.86486486486487,281.155L53.64250614250615,279.87L57.546068796068795,278.722L61.328956797706795,283.533L65.23251945126945,277.777L69.1360821048321,284.787L72.66188063063062,276.91L76.56019656019656,275.523L80.33783783783784,279.103L84.2414004914005,283.896L88.01904176904176,284.101L91.92260442260442,286.675L95.82616707616708,281.158L99.60380835380836,280.99L103.50737100737102,276.666L107.29025900900902,282.45799999999997L111.19382166257166,283.49L115.09738431613431,282.457L118.62318284193283,281.009L122.52149877149877,283.798L126.29914004914005,284.44L130.20270270270268,286.244L133.98034398034397,286.154L137.88390663390663,285.533L141.7874692874693,285.10699999999997L145.5651105651106,279.474L149.46867321867322,280.735L153.25156122031123,278.438L157.15512387387386,285.735L161.05868652743652,281.608L164.71040642915642,280.86899999999997L168.60872235872236,279.074L172.38636363636365,283.284L176.28992628992629,284.735L180.06756756756758,286.175L183.9711302211302,286.837L187.87469287469287,283.084L191.65233415233416,279.214L195.5558968058968,279.786L199.3387848075348,280.476L203.24234746109747,281.215L207.14591011466013,279.48699999999997L210.67170864045866,279.218L214.5700245700246,280.724L218.34766584766584,282.353L222.25122850122852,281.449L226.02886977886976,283.416L229.93243243243245,287.635L233.8359950859951,282.554L237.61363636363637,279.509L241.51719901719903,276.735L245.30008701883702,278.874L249.20364967239968,282.394L253.10721232596234,280.328L256.63301085176084,278.557L260.5313267813268,281.465L264.3089680589681,281.238L268.21253071253074,283.621L271.99017199017203,288.098L275.89373464373466,289.011L279.7972972972973,282.999L283.5749385749386,277.801L287.4785012285012,277.207L291.26138923013923,279.248L295.16495188370186,280.338L299.06851453726455,278.838L302.59431306306305,279.799L306.492628992629,276.995L310.27027027027026,280.335L314.17383292383295,285.985L317.95147420147424,286.87L321.8550368550369,288.283L325.7585995085995,285.579L329.5362407862408,277.167L333.4398034398034,277.862L337.22269144144144,279.695L341.1262540950041,286.343L345.02981674856676,281.736L348.68153665028666,278.388L352.57985257985257,279.345L356.35749385749386,282.996L360.2610565110565,284.703L364.0386977886978,288.962L367.9422604422604,286.76800000000003L371.8458230958231,282.521L375.62346437346434,278.96L379.52702702702703,278.945L383.30991502866505,282.389L387.2134776822277,284.609L391.1170403357903,284.316L394.64283886158887,283.039L398.5411547911548,283.859L402.3187960687961,283.261L406.2223587223587,288.176L410,289.139" data-legend="assembly" style="stroke: rgb(31, 119, 180); fill: none;"></path><path class="line" d="M3.9035626535626538,207.72699999999998L7.681203931203931,212.89800000000002L11.584766584766585,225.132L15.367654586404585,190.387L19.27121723996724,207.695L23.174779893529895,208.22699999999998L26.70057841932842,231.649L30.598894348894348,225.308L34.37653562653563,224.698L38.28009828009828,213.583L42.05773955773956,221.275L45.96130221130221,223.987L49.86486486486487,225.21699999999998L53.64250614250615,223.289L57.546068796068795,216.67999999999998L61.328956797706795,231.516L65.23251945126945,233.10899999999998L69.1360821048321,223.052L72.66188063063062,225.618L76.56019656019656,227.358L80.33783783783784,245.28799999999998L84.2414004914005,226.55599999999998L88.01904176904176,228.61599999999999L91.92260442260442,214.46699999999998L95.82616707616708,225.757L99.60380835380836,222.878L103.50737100737102,233.815L107.29025900900902,228.697L111.19382166257166,240.243L115.09738431613431,241.798L118.62318284193283,240.884L122.52149877149877,242.677L126.29914004914005,242.947L130.20270270270268,243.588L133.98034398034397,235.447L137.88390663390663,243.228L141.7874692874693,251.763L145.5651105651106,245.683L149.46867321867322,244.90499999999997L153.25156122031123,248.458L157.15512387387386,251.801L161.05868652743652,251.217L164.71040642915642,255.23899999999998L168.60872235872236,254.20499999999998L172.38636363636365,252.32299999999998L176.28992628992629,244.02499999999998L180.06756756756758,254.12099999999998L183.9711302211302,246.51600000000002L187.87469287469287,249.992L191.65233415233416,254.375L195.5558968058968,257.51800000000003L199.3387848075348,259.433L203.24234746109747,258.351L207.14591011466013,251.84199999999998L210.67170864045866,251.341L214.5700245700246,250.79L218.34766584766584,245.594L222.25122850122852,247.429L226.02886977886976,245.381L229.93243243243245,250.769L233.8359950859951,258.07L237.61363636363637,255.09L241.51719901719903,253.24699999999999L245.30008701883702,253.368L249.20364967239968,256.813L253.10721232596234,257.48199999999997L256.63301085176084,255.749L260.5313267813268,257.605L264.3089680589681,254.61599999999999L268.21253071253074,257.701L271.99017199017203,258.286L275.89373464373466,258.075L279.7972972972973,258.879L283.5749385749386,262.83299999999997L287.4785012285012,260.8L291.26138923013923,263.527L295.16495188370186,264.149L299.06851453726455,266.629L302.59431306306305,265.524L306.492628992629,269.361L310.27027027027026,271.478L314.17383292383295,269.052L317.95147420147424,270.28L321.8550368550369,269.277L325.7585995085995,273.14L329.5362407862408,272.915L333.4398034398034,273.742L337.22269144144144,272.321L341.1262540950041,274.953L345.02981674856676,273.331L348.68153665028666,276.401L352.57985257985257,274.777L356.35749385749386,273.926L360.2610565110565,275.916L364.0386977886978,275.44L367.9422604422604,275.272L371.8458230958231,275.509L375.62346437346434,278.862L379.52702702702703,280.554L383.30991502866505,280.851L387.2134776822277,282.752L391.1170403357903,279.022L394.64283886158887,281.347L398.5411547911548,281.343L402.3187960687961,282.898L406.2223587223587,283.399L410,283.572" data-legend="perl" style="stroke: rgb(255, 127, 14); fill: none;"></path><path class="line" d="M3.9035626535626538,99.61499999999998L7.681203931203931,131.15599999999998L11.584766584766585,176.506L15.367654586404585,169.276L19.27121723996724,169.905L23.174779893529895,139.39600000000002L26.70057841932842,141.15599999999998L30.598894348894348,134.479L34.37653562653563,145.57199999999997L38.28009828009828,148.422L42.05773955773956,147.10799999999998L45.96130221130221,153.70499999999998L49.86486486486487,156.716L53.64250614250615,165.619L57.546068796068795,131.05199999999996L61.328956797706795,149.70099999999996L65.23251945126945,148.17499999999995L69.1360821048321,147.206L72.66188063063062,168.27L76.56019656019656,150.76700000000002L80.33783783783784,152.011L84.2414004914005,148.509L88.01904176904176,151.391L91.92260442260442,145.358L95.82616707616708,148.293L99.60380835380836,156.88299999999998L103.50737100737102,167.76999999999998L107.29025900900902,155.272L111.19382166257166,151.284L115.09738431613431,151.117L118.62318284193283,139.10899999999995L122.52149877149877,148.027L126.29914004914005,146.258L130.20270270270268,144.915L133.98034398034397,144.176L137.88390663390663,127.75999999999999L141.7874692874693,149.908L145.5651105651106,142.761L149.46867321867322,142.45499999999998L153.25156122031123,138.471L157.15512387387386,137.252L161.05868652743652,137.706L164.71040642915642,138.332L168.60872235872236,148.89L172.38636363636365,154.78799999999998L176.28992628992629,157.743L180.06756756756758,156.927L183.9711302211302,155.62L187.87469287469287,154.203L191.65233415233416,151.291L195.5558968058968,158.43499999999997L199.3387848075348,161.376L203.24234746109747,156.142L207.14591011466013,157.10399999999998L210.67170864045866,155.084L214.5700245700246,158.43499999999997L218.34766584766584,161.697L222.25122850122852,162.192L226.02886977886976,164.115L229.93243243243245,156.333L233.8359950859951,157.59L237.61363636363637,151.36L241.51719901719903,156.296L245.30008701883702,154.12699999999998L249.20364967239968,155.88599999999997L253.10721232596234,163.17999999999998L256.63301085176084,160.521L260.5313267813268,161.35999999999999L264.3089680589681,151.284L268.21253071253074,158.701L271.99017199017203,158.161L275.89373464373466,151.529L279.7972972972973,165.399L283.5749385749386,167.089L287.4785012285012,175.543L291.26138923013923,163.791L295.16495188370186,156.007L299.06851453726455,167.853L302.59431306306305,172.401L306.492628992629,170.118L310.27027027027026,166.982L314.17383292383295,164.848L317.95147420147424,169.893L321.8550368550369,173.973L325.7585995085995,180.338L329.5362407862408,184.204L333.4398034398034,191.506L337.22269144144144,184.34699999999998L341.1262540950041,183.291L345.02981674856676,182.632L348.68153665028666,189.51600000000002L352.57985257985257,189.42399999999998L356.35749385749386,189.93200000000002L360.2610565110565,187.518L364.0386977886978,193.92100000000002L367.9422604422604,198.685L371.8458230958231,195.373L375.62346437346434,203.29199999999997L379.52702702702703,205.983L383.30991502866505,205.685L387.2134776822277,204.13L391.1170403357903,212.901L394.64283886158887,217.13799999999998L398.5411547911548,222.143L402.3187960687961,224.287L406.2223587223587,227.92000000000002L410,223.197" data-legend="ruby" style="stroke: rgb(44, 160, 44); fill: none;"></path><path class="line" d="M3.9035626535626538,299.312L7.681203931203931,300L11.584766584766585,299.229L15.367654586404585,300L19.27121723996724,300L23.174779893529895,300L26.70057841932842,300L30.598894348894348,299.078L34.37653562653563,299.618L38.28009828009828,298.607L42.05773955773956,300L45.96130221130221,299.397L49.86486486486487,298.804L53.64250614250615,300L57.546068796068795,299.231L61.328956797706795,299.739L65.23251945126945,299.78L69.1360821048321,299.78L72.66188063063062,299.811L76.56019656019656,299.803L80.33783783783784,299.431L84.2414004914005,300L88.01904176904176,299.352L91.92260442260442,299.536L95.82616707616708,299.517L99.60380835380836,299.691L103.50737100737102,299.435L107.29025900900902,299.859L111.19382166257166,299.754L115.09738431613431,299.763L118.62318284193283,300L122.52149877149877,299.59L126.29914004914005,300L130.20270270270268,299.704L133.98034398034397,299.123L137.88390663390663,299.36L141.7874692874693,299.712L145.5651105651106,299.42L149.46867321867322,299.73L153.25156122031123,299.906L157.15512387387386,299.663L161.05868652743652,299.448L164.71040642915642,299.708L168.60872235872236,299.47L172.38636363636365,299.637L176.28992628992629,299.926L180.06756756756758,299.725L183.9711302211302,299.723L187.87469287469287,299.778L191.65233415233416,299.87L195.5558968058968,299.868L199.3387848075348,299.928L203.24234746109747,299.815L207.14591011466013,299.811L210.67170864045866,299.833L214.5700245700246,299.717L218.34766584766584,300L222.25122850122852,299.939L226.02886977886976,299.89L229.93243243243245,299.943L233.8359950859951,299.527L237.61363636363637,299.629L241.51719901719903,299.889L245.30008701883702,299.705L249.20364967239968,299.793L253.10721232596234,299.636L256.63301085176084,299.812L260.5313267813268,299.85L264.3089680589681,299.613L268.21253071253074,155.221L271.99017199017203,209.353L275.89373464373466,197.934L279.7972972972973,187.577L283.5749385749386,159.633L287.4785012285012,149.058L291.26138923013923,142.28399999999996L295.16495188370186,118.91999999999999L299.06851453726455,110.64599999999999L302.59431306306305,112.981L306.492628992629,90.52799999999996L310.27027027027026,98.654L314.17383292383295,73.09699999999998L317.95147420147424,40.08699999999999L321.8550368550369,24.134000000000015L325.7585995085995,47.68599999999998L329.5362407862408,72.66L333.4398034398034,61.42300000000003L337.22269144144144,50.14699999999999L341.1262540950041,38.726L345.02981674856676,51.61799999999997L348.68153665028666,51.99199999999999L352.57985257985257,61.072L356.35749385749386,69.40299999999999L360.2610565110565,43.911L364.0386977886978,24.535999999999945L367.9422604422604,38.153999999999996L371.8458230958231,25.33499999999998L375.62346437346434,44.878000000000014L379.52702702702703,64.73799999999997L383.30991502866505,70.25999999999999L387.2134776822277,68.28999999999996L391.1170403357903,79.13899999999998L394.64283886158887,84.87199999999999L398.5411547911548,94.48599999999999L402.3187960687961,94.679L406.2223587223587,79.92699999999999L410,75.56799999999998" data-legend="swift" style="stroke: rgb(214, 39, 40); fill: none;"></path><path class="line" d="M3.9035626535626538,295.869L7.681203931203931,300L11.584766584766585,299.229L15.367654586404585,299.189L19.27121723996724,295.044L23.174779893529895,294.964L26.70057841932842,298.075L30.598894348894348,294.468L34.37653562653563,299.236L38.28009828009828,298.258L42.05773955773956,284.499L45.96130221130221,285.823L49.86486486486487,258.421L53.64250614250615,280.142L57.546068796068795,275.902L61.328956797706795,279.089L65.23251945126945,279.097L69.1360821048321,273.102L72.66188063063062,273.503L76.56019656019656,268.417L80.33783783783784,273.594L84.2414004914005,268.499L88.01904176904176,261.875L91.92260442260442,256.149L95.82616707616708,261.993L99.60380835380836,266.771L103.50737100737102,265.493L107.29025900900902,268.31L111.19382166257166,269.074L115.09738431613431,261.831L118.62318284193283,258.804L122.52149877149877,250.983L126.29914004914005,258.115L130.20270270270268,255.959L133.98034398034397,255.73000000000002L137.88390663390663,246.25L141.7874692874693,241.09699999999998L145.5651105651106,239.68L149.46867321867322,245.17499999999998L153.25156122031123,241.744L157.15512387387386,241.671L161.05868652743652,235.667L164.71040642915642,234.793L168.60872235872236,235.401L172.38636363636365,235.825L176.28992628992629,227.038L180.06756756756758,222.48L183.9711302211302,224.06900000000002L187.87469287469287,221.129L191.65233415233416,216.527L195.5558968058968,210.66L199.3387848075348,211.63400000000001L203.24234746109747,206.011L207.14591011466013,193.459L210.67170864045866,195.922L214.5700245700246,194.946L218.34766584766584,194.70499999999998L222.25122850122852,189.988L226.02886977886976,190.37400000000002L229.93243243243245,188.94299999999998L233.8359950859951,198.042L237.61363636363637,187.777L241.51719901719903,177.89600000000002L245.30008701883702,186.734L249.20364967239968,177.377L253.10721232596234,163.28400000000002L256.63301085176084,166.587L260.5313267813268,161.661L264.3089680589681,155.82199999999997L268.21253071253074,155.34099999999998L271.99017199017203,153.643L275.89373464373466,151.171L279.7972972972973,159.398L283.5749385749386,141.896L287.4785012285012,140.034L291.26138923013923,150.774L295.16495188370186,139.70100000000002L299.06851453726455,126.40100000000001L302.59431306306305,114.68199999999996L306.492628992629,127.71800000000002L310.27027027027026,118.37199999999999L314.17383292383295,119.93699999999998L317.95147420147424,99.27700000000002L321.8550368550369,110.14999999999995L325.7585995085995,115.44299999999998L329.5362407862408,105.1L333.4398034398034,104.49099999999999L337.22269144144144,118.32499999999999L341.1262540950041,107.55399999999997L345.02981674856676,111.54700000000003L348.68153665028666,102.243L352.57985257985257,92.701L356.35749385749386,102.58799999999997L360.2610565110565,93.82600000000002L364.0386977886978,91.595L367.9422604422604,99.106L371.8458230958231,118.44300000000001L375.62346437346434,97.894L379.52702702702703,106.99499999999998L383.30991502866505,114.65899999999999L387.2134776822277,111.28999999999999L391.1170403357903,99.82299999999998L394.64283886158887,80.51499999999996L398.5411547911548,73.45499999999998L402.3187960687961,79.57299999999998L406.2223587223587,62.001000000000005L410,60.05199999999999" data-legend="r" style="stroke: rgb(148, 103, 189); fill: none;"></path><path class="line" d="M3.9035626535626538,292.426L7.681203931203931,291.96L11.584766584766585,293.054L15.367654586404585,295.129L19.27121723996724,294.425L23.174779893529895,289.928L26.70057841932842,296.631L30.598894348894348,296.312L34.37653562653563,293.12L38.28009828009828,291.638L42.05773955773956,294.833L45.96130221130221,290.348L49.86486486486487,291.625L53.64250614250615,295.648L57.546068796068795,292.566L61.328956797706795,293.466L65.23251945126945,294.94L69.1360821048321,295.15L72.66188063063062,294.322L76.56019656019656,292.894L80.33783783783784,287.652L84.2414004914005,292.568L88.01904176904176,294.484L91.92260442260442,293.647L95.82616707616708,293.398L99.60380835380836,293.973L103.50737100737102,294.626L107.29025900900902,292.078L111.19382166257166,292.854L115.09738431613431,291.11L118.62318284193283,293.573L122.52149877149877,292.002L126.29914004914005,289.138L130.20270270270268,290.895L133.98034398034397,291.907L137.88390663390663,292.309L141.7874692874693,292.602L145.5651105651106,293.998L149.46867321867322,294.419L153.25156122031123,292.151L157.15512387387386,292.403L161.05868652743652,291.87L164.71040642915642,293.867L168.60872235872236,291.66L172.38636363636365,290.843L176.28992628992629,291.395L180.06756756756758,290.095L183.9711302211302,290.648L187.87469287469287,290.8L191.65233415233416,293.464L195.5558968058968,294.036L199.3387848075348,294.505L203.24234746109747,292.338L207.14591011466013,292.616L210.67170864045866,290.392L214.5700245700246,289.966L218.34766584766584,289.447L222.25122850122852,290.386L226.02886977886976,288.944L229.93243243243245,289.188L233.8359950859951,289.414L237.61363636363637,289.383L241.51719901719903,288.951L245.30008701883702,288.875L249.20364967239968,290.524L253.10721232596234,288.291L256.63301085176084,289.137L260.5313267813268,288.497L264.3089680589681,287.105L268.21253071253074,287.821L271.99017199017203,289.255L275.89373464373466,288.414L279.7972972972973,289.999L283.5749385749386,289.155L287.4785012285012,291.035L291.26138923013923,291.071L295.16495188370186,290.287L299.06851453726455,289.826L302.59431306306305,291.188L306.492628992629,290.355L310.27027027027026,291.196L314.17383292383295,292.394L317.95147420147424,290.278L321.8550368550369,291.253L325.7585995085995,290.863L329.5362407862408,291.654L333.4398034398034,291.76L337.22269144144144,290.358L341.1262540950041,289.906L345.02981674856676,291.076L348.68153665028666,289.727L352.57985257985257,290.368L356.35749385749386,290.21L360.2610565110565,290.79L364.0386977886978,289.348L367.9422604422604,290.753L371.8458230958231,291.186L375.62346437346434,292.385L379.52702702702703,291.033L383.30991502866505,291.407L387.2134776822277,290.668L391.1170403357903,291.815L394.64283886158887,292.133L398.5411547911548,290.268L402.3187960687961,291.971L406.2223587223587,292.764L410,292.197" data-legend="lua" style="stroke: rgb(140, 86, 75); fill: none;"></path><path class="line" d="M3.9035626535626538,255.929L7.681203931203931,261.14L11.584766584766585,269.899L15.367654586404585,265.087L19.27121723996724,262.211L23.174779893529895,256.35200000000003L26.70057841932842,252.347L30.598894348894348,269.57L34.37653562653563,262.158L38.28009828009828,261.67L42.05773955773956,265.957L45.96130221130221,265.915L49.86486486486487,265.002L53.64250614250615,258.38L57.546068796068795,267.698L61.328956797706795,268.895L65.23251945126945,264.795L69.1360821048321,266.487L72.66188063063062,257.983L76.56019656019656,259.139L80.33783783783784,265.235L84.2414004914005,265.13599999999997L88.01904176904176,268.689L91.92260442260442,264.361L95.82616707616708,256.356L99.60380835380836,260.74399999999997L103.50737100737102,256.442L107.29025900900902,258.265L111.19382166257166,260.942L115.09738431613431,263.96500000000003L118.62318284193283,263.284L122.52149877149877,261.033L126.29914004914005,260.26800000000003L130.20270270270268,261.303L133.98034398034397,260.703L137.88390663390663,258.245L141.7874692874693,261.18L145.5651105651106,256.043L149.46867321867322,253.187L153.25156122031123,247.13400000000001L157.15512387387386,249.099L161.05868652743652,252.48L164.71040642915642,249.68900000000002L168.60872235872236,250.71699999999998L172.38636363636365,250.579L176.28992628992629,250.686L180.06756756756758,253.708L183.9711302211302,250.742L187.87469287469287,246.43L191.65233415233416,247.707L195.5558968058968,246.44899999999998L199.3387848075348,250.321L203.24234746109747,247.599L207.14591011466013,242.312L210.67170864045866,241.397L214.5700245700246,246.254L218.34766584766584,241.666L222.25122850122852,244.039L226.02886977886976,243.612L229.93243243243245,237.254L233.8359950859951,237.37099999999998L237.61363636363637,236.297L241.51719901719903,225.761L245.30008701883702,231.177L249.20364967239968,230.921L253.10721232596234,226.35999999999999L256.63301085176084,232.32999999999998L260.5313267813268,233.041L264.3089680589681,231.92399999999998L268.21253071253074,228.301L271.99017199017203,231.285L275.89373464373466,230.841L279.7972972972973,226.934L283.5749385749386,226.908L287.4785012285012,225.057L291.26138923013923,233.657L295.16495188370186,227.23899999999998L299.06851453726455,223.549L302.59431306306305,224.55399999999997L306.492628992629,227.11599999999999L310.27027027027026,233.41199999999998L314.17383292383295,227.892L317.95147420147424,235.498L321.8550368550369,235.90699999999998L325.7585995085995,237.307L329.5362407862408,230.187L333.4398034398034,230.619L337.22269144144144,232.333L341.1262540950041,232.03699999999998L345.02981674856676,226.83999999999997L348.68153665028666,230.07600000000002L352.57985257985257,222.69099999999997L356.35749385749386,226.415L360.2610565110565,228.647L364.0386977886978,228.085L367.9422604422604,226.88799999999998L371.8458230958231,232.987L375.62346437346434,234.68200000000002L379.52702702702703,235.958L383.30991502866505,236.081L387.2134776822277,237.651L391.1170403357903,233.634L394.64283886158887,228.43200000000002L398.5411547911548,227.65L402.3187960687961,230.59199999999998L406.2223587223587,229.386L410,234.423" data-legend="bash" style="stroke: rgb(227, 119, 194); fill: none;"></path></g></g><g transform="translate(20, 150)"><text transform="rotate(-90)" x="-50" y="0" dy="1em" class="axis-label y-axis-label" style="text-anchor: middle; font-weight: bold;">% of Stack Overflow questions that month</text></g><g class="legend" transform="translate(530, 30)" style="font-size: 12px;"><text class="legend-title" style="font-weight: bold;">Tag</text><g class="legend-items" transform="translate(0,20)"><text y="0em" x="1em">swift</text><text y="1em" x="1em">r</text><text y="2em" x="1em">ruby</text><text y="3em" x="1em">perl</text><text y="4em" x="1em">bash</text><text y="5em" x="1em">assembly</text><text y="6em" x="1em">lua</text><circle cy="-0.25em" cx="0" r="0.4em" style="fill: rgb(214, 39, 40);"></circle><circle cy="0.75em" cx="0" r="0.4em" style="fill: rgb(148, 103, 189);"></circle><circle cy="1.75em" cx="0" r="0.4em" style="fill: rgb(44, 160, 44);"></circle><circle cy="2.75em" cx="0" r="0.4em" style="fill: rgb(255, 127, 14);"></circle><circle cy="3.75em" cx="0" r="0.4em" style="fill: rgb(227, 119, 194);"></circle><circle cy="4.75em" cx="0" r="0.4em" style="fill: rgb(31, 119, 180);"></circle><circle cy="5.75em" cx="0" r="0.4em" style="fill: rgb(140, 86, 75);"></circle></g><rect class="legend-box"></rect></g></svg>
            